Varta-Bold.ufo
<glyph name="dollar" format="2">
  <advance width="1042.0"/>
  <unicode hex="0024"/>
  <outline>
    <contour>
      <point x="449.0" y="-225.0" type="line"/>
      <point x="601.0" y="-225.0" type="line"/>
      <point x="601.0" y="-16.0" type="line"/>
      <point x="802.0" y="18.0"/>
      <point x="919.0" y="159.0"/>
      <point x="919.0" y="354.0" type="curve" smooth="yes"/>
      <point x="919.0" y="776.0"/>
      <point x="360.0" y="719.0"/>
      <point x="360.0" y="977.0" type="curve" smooth="yes"/>
      <point x="360.0" y="1085.0"/>
      <point x="433.0" y="1148.0"/>
      <point x="547.0" y="1148.0" type="curve" smooth="yes"/>
      <point x="649.0" y="1148.0"/>
      <point x="708.0" y="1126.0"/>
      <point x="784.0" y="1054.0" type="curve"/>
      <point x="897.0" y="1186.0" type="line"/>
      <point x="821.0" y="1266.0"/>
      <point x="732.0" y="1309.0"/>
      <point x="601.0" y="1325.0" type="curve"/>
      <point x="601.0" y="1530.0" type="line"/>
      <point x="449.0" y="1530.0" type="line"/>
      <point x="449.0" y="1322.0" type="line"/>
      <point x="265.0" y="1290.0"/>
      <point x="147.0" y="1156.0"/>
      <point x="147.0" y="966.0" type="curve" smooth="yes"/>
      <point x="147.0" y="579.0"/>
      <point x="706.0" y="624.0"/>
      <point x="706.0" y="339.0" type="curve" smooth="yes"/>
      <point x="706.0" y="225.0"/>
      <point x="640.0" y="156.0"/>
      <point x="503.0" y="156.0" type="curve" smooth="yes"/>
      <point x="388.0" y="156.0"/>
      <point x="288.0" y="193.0"/>
      <point x="194.0" y="270.0" type="curve"/>
      <point x="96.0" y="115.0" type="line"/>
      <point x="187.0" y="32.0"/>
      <point x="322.0" y="-8.0"/>
      <point x="449.0" y="-22.0" type="curve"/>
    </contour>
  </outline>
</glyph>
<glyph name="parenleft" format="2">
  <advance width="653.0"/>
  <unicode hex="0028"/>
  <outline>
    <contour>
      <point x="430.0" y="-363.0" type="curve"/>
      <point x="567.0" y="-303.0" type="line"/>
      <point x="412.0" y="-40.0"/>
      <point x="342.0" y="228.0"/>
      <point x="342.0" y="569.0" type="curve" smooth="yes"/>
      <point x="342.0" y="911.0"/>
      <point x="412.0" y="1179.0"/>
      <point x="567.0" y="1441.0" type="curve"/>
      <point x="430.0" y="1501.0" type="line"/>
      <point x="260.0" y="1225.0"/>
      <point x="160.0" y="975.0"/>
      <point x="160.0" y="569.0" type="curve" smooth="yes"/>
      <point x="160.0" y="163.0"/>
      <point x="260.0" y="-86.0"/>
    </contour>
  </outline>
</glyph>
<glyph name="comma" format="2">
  <advance width="550.0"/>
  <unicode hex="002C"/>
  <outline>
    <contour>
      <point x="144.0" y="-387.0" type="line"/>
      <point x="338.0" y="-317.0"/>
      <point x="451.0" y="-147.0"/>
      <point x="451.0" y="48.0" type="curve" smooth="yes"/>
      <point x="451.0" y="192.0"/>
      <point x="390.0" y="279.0"/>
      <point x="283.0" y="279.0" type="curve" smooth="yes"/>
      <point x="202.0" y="279.0"/>
      <point x="134.0" y="226.0"/>
      <point x="134.0" y="141.0" type="curve" smooth="yes"/>
      <point x="134.0" y="52.0"/>
      <point x="202.0" y="3.0"/>
      <point x="279.0" y="3.0" type="curve" smooth="yes"/>
      <point x="285.0" y="3.0"/>
      <point x="291.0" y="3.0"/>
      <point x="298.0" y="5.0" type="curve"/>
      <point x="298.0" y="-104.0"/>
      <point x="224.0" y="-213.0"/>
      <point x="95.0" y="-265.0" type="curve"/>
    </contour>
  </outline>
</glyph>
<glyph name="hyphen" format="2">
  <advance width="653.0"/>
  <unicode hex="002D"/>
  <outline>
    <contour>
      <point x="86.0" y="435.0" type="line"/>
      <point x="569.0" y="435.0" type="line"/>
      <point x="569.0" y="596.0" type="line"/>
      <point x="86.0" y="596.0" type="line"/>
    </contour>
  </outline>
</glyph>
<glyph name="period" format="2">
  <advance width="550.0"/>
  <unicode hex="002E"/>
  <outline>
    <contour>
      <point x="275.0" y="-25.0" type="curve" smooth="yes"/>
      <point x="356.0" y="-25.0"/>
      <point x="420.0" y="40.0"/>
      <point x="420.0" y="126.0" type="curve" smooth="yes"/>
      <point x="420.0" y="215.0"/>
      <point x="356.0" y="279.0"/>
      <point x="275.0" y="279.0" type="curve" smooth="yes"/>
      <point x="194.0" y="279.0"/>
      <point x="130.0" y="215.0"/>
      <point x="130.0" y="126.0" type="curve" smooth="yes"/>
      <point x="130.0" y="40.0"/>
      <point x="194.0" y="-25.0"/>
    </contour>
  </outline>
</glyph>
<glyph name="zero" format="2">
  <advance width="1042.0"/>
  <unicode hex="0030"/>
  <outline>
    <contour>
      <point x="521.0" y="-25.0" type="curve" smooth="yes"/>
      <point x="795.0" y="-25.0"/>
      <point x="958.0" y="230.0"/>
      <point x="958.0" y="674.0" type="curve" smooth="yes"/>
      <point x="958.0" y="1120.0"/>
      <point x="795.0" y="1365.0"/>
      <point x="521.0" y="1365.0" type="curve" smooth="yes"/>
      <point x="246.0" y="1365.0"/>
      <point x="85.0" y="1120.0"/>
      <point x="85.0" y="674.0" type="curve" smooth="yes"/>
      <point x="85.0" y="230.0"/>
      <point x="246.0" y="-25.0"/>
    </contour>
    <contour>
      <point x="521.0" y="148.0" type="curve" smooth="yes"/>
      <point x="384.0" y="148.0"/>
      <point x="294.0" y="298.0"/>
      <point x="294.0" y="674.0" type="curve" smooth="yes"/>
      <point x="294.0" y="1051.0"/>
      <point x="384.0" y="1193.0"/>
      <point x="521.0" y="1193.0" type="curve" smooth="yes"/>
      <point x="658.0" y="1193.0"/>
      <point x="748.0" y="1051.0"/>
      <point x="748.0" y="674.0" type="curve" smooth="yes"/>
      <point x="748.0" y="298.0"/>
      <point x="658.0" y="148.0"/>
    </contour>
  </outline>
</glyph>
<glyph name="two" format="2">
  <advance width="1042.0"/>
  <unicode hex="0032"/>
  <outline>
    <contour>
      <point x="80.0" y="0.0" type="line"/>
      <point x="951.0" y="0.0" type="line"/>
      <point x="951.0" y="187.0" type="line"/>
      <point x="616.0" y="187.0" type="line"/>
      <point x="551.0" y="187.0"/>
      <point x="467.0" y="180.0"/>
      <point x="398.0" y="173.0" type="curve"/>
      <point x="670.0" y="458.0"/>
      <point x="886.0" y="725.0"/>
      <point x="886.0" y="965.0" type="curve" smooth="yes"/>
      <point x="886.0" y="1211.0"/>
      <point x="727.0" y="1365.0"/>
      <point x="478.0" y="1365.0" type="curve" smooth="yes"/>
      <point x="302.0" y="1365.0"/>
      <point x="183.0" y="1295.0"/>
      <point x="67.0" y="1169.0" type="curve"/>
      <point x="189.0" y="1048.0" type="line"/>
      <point x="261.0" y="1129.0"/>
      <point x="347.0" y="1191.0"/>
      <point x="450.0" y="1191.0" type="curve" smooth="yes"/>
      <point x="597.0" y="1191.0"/>
      <point x="675.0" y="1101.0"/>
      <point x="675.0" y="951.0" type="curve" smooth="yes"/>
      <point x="675.0" y="751.0"/>
      <point x="449.0" y="489.0"/>
      <point x="80.0" y="127.0" type="curve"/>
    </contour>
  </outline>
</glyph>
<glyph name="three" format="2">
  <advance width="1042.0"/>
  <unicode hex="0033"/>
  <outline>
    <contour>
      <point x="493.0" y="-25.0" type="curve" smooth="yes"/>
      <point x="747.0" y="-25.0"/>
      <point x="939.0" y="123.0"/>
      <point x="939.0" y="358.0" type="curve" smooth="yes"/>
      <point x="939.0" y="533.0"/>
      <point x="820.0" y="645.0"/>
      <point x="666.0" y="684.0" type="curve"/>
      <point x="666.0" y="692.0" type="line"/>
      <point x="806.0" y="747.0"/>
      <point x="895.0" y="863.0"/>
      <point x="895.0" y="1011.0" type="curve" smooth="yes"/>
      <point x="895.0" y="1229.0"/>
      <point x="736.0" y="1365.0"/>
      <point x="487.0" y="1365.0" type="curve" smooth="yes"/>
      <point x="331.0" y="1365.0"/>
      <point x="202.0" y="1307.0"/>
      <point x="94.0" y="1209.0" type="curve"/>
      <point x="208.0" y="1073.0" type="line"/>
      <point x="287.0" y="1149.0"/>
      <point x="371.0" y="1191.0"/>
      <point x="473.0" y="1191.0" type="curve" smooth="yes"/>
      <point x="599.0" y="1191.0"/>
      <point x="673.0" y="1114.0"/>
      <point x="673.0" y="995.0" type="curve" smooth="yes"/>
      <point x="673.0" y="870.0"/>
      <point x="592.0" y="761.0"/>
      <point x="328.0" y="761.0" type="curve"/>
      <point x="328.0" y="600.0" type="line"/>
      <point x="631.0" y="600.0"/>
      <point x="719.0" y="505.0"/>
      <point x="719.0" y="365.0" type="curve" smooth="yes"/>
      <point x="719.0" y="231.0"/>
      <point x="621.0" y="155.0"/>
      <point x="475.0" y="155.0" type="curve" smooth="yes"/>
      <point x="338.0" y="155.0"/>
      <point x="234.0" y="221.0"/>
      <point x="156.0" y="301.0" type="curve"/>
      <point x="50.0" y="160.0" type="line"/>
      <point x="140.0" y="58.0"/>
      <point x="283.0" y="-25.0"/>
    </contour>
  </outline>
</glyph>
<glyph name="six" format="2">
  <advance width="1042.0"/>
  <unicode hex="0036"/>
  <outline>
    <contour>
      <point x="559.0" y="-25.0" type="curve" smooth="yes"/>
      <point x="779.0" y="-25.0"/>
      <point x="963.0" y="145.0"/>
      <point x="963.0" y="407.0" type="curve" smooth="yes"/>
      <point x="963.0" y="699.0"/>
      <point x="809.0" y="842.0"/>
      <point x="585.0" y="842.0" type="curve" smooth="yes"/>
      <point x="489.0" y="842.0"/>
      <point x="374.0" y="791.0"/>
      <point x="297.0" y="696.0" type="curve"/>
      <point x="306.0" y="1074.0"/>
      <point x="445.0" y="1185.0"/>
      <point x="612.0" y="1185.0" type="curve" smooth="yes"/>
      <point x="692.0" y="1185.0"/>
      <point x="772.0" y="1154.0"/>
      <point x="822.0" y="1095.0" type="curve"/>
      <point x="937.0" y="1233.0" type="line"/>
      <point x="861.0" y="1314.0"/>
      <point x="754.0" y="1365.0"/>
      <point x="601.0" y="1365.0" type="curve" smooth="yes"/>
      <point x="336.0" y="1365.0"/>
      <point x="93.0" y="1157.0"/>
      <point x="93.0" y="642.0" type="curve" smooth="yes"/>
      <point x="93.0" y="198.0"/>
      <point x="305.0" y="-25.0"/>
    </contour>
    <contour>
      <point x="557.0" y="144.0" type="curve" smooth="yes"/>
      <point x="420.0" y="144.0"/>
      <point x="315.0" y="273.0"/>
      <point x="302.0" y="534.0" type="curve"/>
      <point x="379.0" y="646.0"/>
      <point x="470.0" y="682.0"/>
      <point x="546.0" y="682.0" type="curve" smooth="yes"/>
      <point x="683.0" y="682.0"/>
      <point x="760.0" y="586.0"/>
      <point x="760.0" y="407.0" type="curve" smooth="yes"/>
      <point x="760.0" y="241.0"/>
      <point x="671.0" y="144.0"/>
    </contour>
  </outline>
</glyph>
<glyph name="seven" format="2">
  <advance width="1042.0"/>
  <unicode hex="0037"/>
  <outline>
    <contour>
      <point x="348.0" y="0.0" type="curve"/>
      <point x="572.0" y="0.0" type="line"/>
      <point x="590.0" y="509.0"/>
      <point x="650.0" y="825.0"/>
      <point x="956.0" y="1208.0" type="curve"/>
      <point x="956.0" y="1343.0" type="line"/>
      <point x="90.0" y="1343.0" type="line"/>
      <point x="90.0" y="1156.0" type="line"/>
      <point x="715.0" y="1156.0" type="line"/>
      <point x="462.0" y="805.0"/>
      <point x="367.0" y="469.0"/>
    </contour>
  </outline>
</glyph>
<glyph name="at" format="2">
  <advance width="1779.0"/>
  <unicode hex="0040"/>
  <outline>
    <contour>
      <point x="845.0" y="-306.0" type="curve" smooth="yes"/>
      <point x="988.0" y="-306.0"/>
      <point x="1118.0" y="-275.0"/>
      <point x="1238.0" y="-205.0" type="curve"/>
      <point x="1185.0" y="-87.0" type="line"/>
      <point x="1095.0" y="-137.0"/>
      <point x="979.0" y="-175.0"/>
      <point x="861.0" y="-175.0" type="curve" smooth="yes"/>
      <point x="514.0" y="-175.0"/>
      <point x="248.0" y="48.0"/>
      <point x="248.0" y="448.0" type="curve" smooth="yes"/>
      <point x="248.0" y="920.0"/>
      <point x="600.0" y="1234.0"/>
      <point x="967.0" y="1234.0" type="curve" smooth="yes"/>
      <point x="1351.0" y="1234.0"/>
      <point x="1535.0" y="977.0"/>
      <point x="1535.0" y="661.0" type="curve" smooth="yes"/>
      <point x="1535.0" y="410.0"/>
      <point x="1399.0" y="258.0"/>
      <point x="1272.0" y="258.0" type="curve" smooth="yes"/>
      <point x="1167.0" y="258.0"/>
      <point x="1131.0" y="328.0"/>
      <point x="1168.0" y="473.0" type="curve"/>
      <point x="1253.0" y="898.0" type="line"/>
      <point x="1113.0" y="898.0" type="line"/>
      <point x="1088.0" y="815.0" type="line"/>
      <point x="1084.0" y="815.0" type="line"/>
      <point x="1047.0" y="885.0"/>
      <point x="992.0" y="915.0"/>
      <point x="923.0" y="915.0" type="curve" smooth="yes"/>
      <point x="685.0" y="915.0"/>
      <point x="522.0" y="670.0"/>
      <point x="522.0" y="430.0" type="curve" smooth="yes"/>
      <point x="522.0" y="242.0"/>
      <point x="629.0" y="134.0"/>
      <point x="777.0" y="134.0" type="curve" smooth="yes"/>
      <point x="882.0" y="134.0"/>
      <point x="962.0" y="192.0"/>
      <point x="1025.0" y="271.0" type="curve"/>
      <point x="1030.0" y="271.0" type="line"/>
      <point x="1047.0" y="171.0"/>
      <point x="1137.0" y="116.0"/>
      <point x="1250.0" y="116.0" type="curve" smooth="yes"/>
      <point x="1447.0" y="116.0"/>
      <point x="1675.0" y="303.0"/>
      <point x="1675.0" y="667.0" type="curve" smooth="yes"/>
      <point x="1675.0" y="1081.0"/>
      <point x="1408.0" y="1365.0"/>
      <point x="983.0" y="1365.0" type="curve" smooth="yes"/>
      <point x="508.0" y="1365.0"/>
      <point x="102.0" y="1000.0"/>
      <point x="102.0" y="442.0" type="curve" smooth="yes"/>
      <point x="102.0" y="-53.0"/>
      <point x="440.0" y="-306.0"/>
    </contour>
    <contour>
      <point x="821.0" y="276.0" type="curve" smooth="yes"/>
      <point x="745.0" y="276.0"/>
      <point x="692.0" y="320.0"/>
      <point x="692.0" y="443.0" type="curve" smooth="yes"/>
      <point x="692.0" y="591.0"/>
      <point x="781.0" y="769.0"/>
      <point x="928.0" y="769.0" type="curve" smooth="yes"/>
      <point x="978.0" y="769.0"/>
      <point x="1013.0" y="747.0"/>
      <point x="1045.0" y="693.0" type="curve"/>
      <point x="989.0" y="386.0" type="line"/>
      <point x="938.0" y="312.0"/>
      <point x="873.0" y="276.0"/>
    </contour>
  </outline>
</glyph>
<glyph name="B" format="2">
  <advance width="1210.0"/>
  <unicode hex="0042"/>
  <anchor x="605.0" y="0.0" name="bottom"/>
  <anchor x="605.0" y="1340.0" name="top"/>
  <outline>
    <contour>
      <point x="170.0" y="0.0" type="line"/>
      <point x="632.0" y="0.0" type="line"/>
      <point x="928.0" y="0.0"/>
      <point x="1137.0" y="124.0"/>
      <point x="1137.0" y="397.0" type="curve" smooth="yes"/>
      <point x="1137.0" y="581.0"/>
      <point x="1028.0" y="694.0"/>
      <point x="834.0" y="712.0" type="curve"/>
      <point x="834.0" y="720.0" type="line"/>
      <point x="1001.0" y="757.0"/>
      <point x="1065.0" y="886.0"/>
      <point x="1065.0" y="1016.0" type="curve" smooth="yes"/>
      <point x="1065.0" y="1263.0"/>
      <point x="879.0" y="1340.0"/>
      <point x="600.0" y="1340.0" type="curve" smooth="yes"/>
      <point x="170.0" y="1340.0" type="line"/>
    </contour>
    <contour>
      <point x="392.0" y="172.0" type="line"/>
      <point x="392.0" y="620.0" type="line"/>
      <point x="612.0" y="620.0" type="line"/>
      <point x="821.0" y="620.0"/>
      <point x="921.0" y="559.0"/>
      <point x="921.0" y="411.0" type="curve" smooth="yes"/>
      <point x="921.0" y="246.0"/>
      <point x="812.0" y="172.0"/>
      <point x="608.0" y="172.0" type="curve" smooth="yes"/>
    </contour>
    <contour>
      <point x="392.0" y="780.0" type="line"/>
      <point x="392.0" y="1168.0" type="line"/>
      <point x="587.0" y="1168.0" type="line"/>
      <point x="768.0" y="1168.0"/>
      <point x="849.0" y="1119.0"/>
      <point x="849.0" y="989.0" type="curve" smooth="yes"/>
      <point x="849.0" y="856.0"/>
      <point x="772.0" y="780.0"/>
      <point x="575.0" y="780.0" type="curve" smooth="yes"/>
    </contour>
  </outline>
</glyph>
<glyph name="D" format="2">
  <advance width="1270.0"/>
  <unicode hex="0044"/>
  <anchor x="635.0" y="0.0" name="bottom"/>
  <anchor x="635.0" y="670.0" name="center"/>
  <anchor x="635.0" y="1340.0" name="top"/>
  <outline>
    <contour>
      <point x="170.0" y="0.0" type="line"/>
      <point x="540.0" y="0.0" type="line"/>
      <point x="940.0" y="0.0"/>
      <point x="1169.0" y="235.0"/>
      <point x="1169.0" y="678.0" type="curve" smooth="yes"/>
      <point x="1169.0" y="1127.0"/>
      <point x="950.0" y="1340.0"/>
      <point x="534.0" y="1340.0" type="curve" smooth="yes"/>
      <point x="170.0" y="1340.0" type="line"/>
    </contour>
    <contour>
      <point x="392.0" y="179.0" type="line"/>
      <point x="392.0" y="1161.0" type="line"/>
      <point x="520.0" y="1161.0" type="line"/>
      <point x="805.0" y="1161.0"/>
      <point x="943.0" y="1018.0"/>
      <point x="943.0" y="678.0" type="curve" smooth="yes"/>
      <point x="943.0" y="341.0"/>
      <point x="795.0" y="179.0"/>
      <point x="514.0" y="179.0" type="curve" smooth="yes"/>
    </contour>
  </outline>
</glyph>
<glyph name="E" format="2">
  <advance width="1088.0"/>
  <unicode hex="0045"/>
  <anchor x="544.0" y="0.0" name="bottom"/>
  <anchor x="979.0" y="10.0" name="ogonek"/>
  <anchor x="564.0" y="1340.0" name="top"/>
  <anchor x="20.0" y="1340.0" name="topleft"/>
  <outline>
    <contour>
      <point x="170.0" y="0.0" type="line"/>
      <point x="989.0" y="0.0" type="line"/>
      <point x="989.0" y="187.0" type="line"/>
      <point x="392.0" y="187.0" type="line"/>
      <point x="392.0" y="606.0" type="line"/>
      <point x="879.0" y="606.0" type="line"/>
      <point x="879.0" y="791.0" type="line"/>
      <point x="392.0" y="791.0" type="line"/>
      <point x="392.0" y="1155.0" type="line"/>
      <point x="968.0" y="1155.0" type="line"/>
      <point x="968.0" y="1340.0" type="line"/>
      <point x="170.0" y="1340.0" type="line"/>
    </contour>
  </outline>
</glyph>
<glyph name="L" format="2">
  <advance width="1012.0"/>
  <unicode hex="004C"/>
  <anchor x="506.0" y="0.0" name="bottom"/>
  <anchor x="506.0" y="670.0" name="center"/>
  <anchor x="506.0" y="1340.0" name="top"/>
  <anchor x="992.0" y="1340.0" name="topright"/>
  <outline>
    <contour>
      <point x="170.0" y="0.0" type="line"/>
      <point x="955.0" y="0.0" type="line"/>
      <point x="955.0" y="187.0" type="line"/>
      <point x="392.0" y="187.0" type="line"/>
      <point x="392.0" y="1340.0" type="line"/>
      <point x="170.0" y="1340.0" type="line"/>
    </contour>
  </outline>
</glyph>
<glyph name="R" format="2">
  <advance width="1211.0"/>
  <unicode hex="0052"/>
  <anchor x="606.0" y="0.0" name="bottom"/>
  <anchor x="606.0" y="1340.0" name="top"/>
  <outline>
    <contour>
      <point x="170.0" y="0.0" type="line"/>
      <point x="392.0" y="0.0" type="line"/>
      <point x="392.0" y="534.0" type="line"/>
      <point x="613.0" y="534.0" type="line"/>
      <point x="901.0" y="0.0" type="line"/>
      <point x="1151.0" y="0.0" type="line"/>
      <point x="834.0" y="567.0" type="line"/>
      <point x="1000.0" y="620.0"/>
      <point x="1101.0" y="736.0"/>
      <point x="1101.0" y="952.0" type="curve" smooth="yes"/>
      <point x="1101.0" y="1252.0"/>
      <point x="906.0" y="1340.0"/>
      <point x="630.0" y="1340.0" type="curve" smooth="yes"/>
      <point x="170.0" y="1340.0" type="line"/>
    </contour>
    <contour>
      <point x="392.0" y="712.0" type="line"/>
      <point x="392.0" y="1164.0" type="line"/>
      <point x="605.0" y="1164.0" type="line"/>
      <point x="794.0" y="1164.0"/>
      <point x="883.0" y="1117.0"/>
      <point x="883.0" y="952.0" type="curve" smooth="yes"/>
      <point x="883.0" y="782.0"/>
      <point x="791.0" y="712.0"/>
      <point x="601.0" y="712.0" type="curve" smooth="yes"/>
    </contour>
  </outline>
</glyph>
<glyph name="S" format="2">
  <advance width="1103.0"/>
  <unicode hex="0053"/>
  <anchor x="552.0" y="0.0" name="bottom"/>
  <anchor x="552.0" y="1340.0" name="top"/>
  <outline>
    <contour>
      <point x="556.0" y="-25.0" type="curve" smooth="yes"/>
      <point x="855.0" y="-25.0"/>
      <point x="1032.0" y="152.0"/>
      <point x="1032.0" y="368.0" type="curve" smooth="yes"/>
      <point x="1032.0" y="563.0"/>
      <point x="913.0" y="663.0"/>
      <point x="755.0" y="730.0" type="curve" smooth="yes"/>
      <point x="571.0" y="807.0" type="line"/>
      <point x="462.0" y="853.0"/>
      <point x="357.0" y="904.0"/>
      <point x="357.0" y="1015.0" type="curve" smooth="yes"/>
      <point x="357.0" y="1119.0"/>
      <point x="445.0" y="1174.0"/>
      <point x="578.0" y="1174.0" type="curve" smooth="yes"/>
      <point x="697.0" y="1174.0"/>
      <point x="789.0" y="1135.0"/>
      <point x="873.0" y="1062.0" type="curve"/>
      <point x="987.0" y="1202.0" type="line"/>
      <point x="884.0" y="1307.0"/>
      <point x="739.0" y="1365.0"/>
      <point x="580.0" y="1365.0" type="curve" smooth="yes"/>
      <point x="321.0" y="1365.0"/>
      <point x="134.0" y="1212.0"/>
      <point x="134.0" y="1001.0" type="curve" smooth="yes"/>
      <point x="134.0" y="804.0"/>
      <point x="273.0" y="694.0"/>
      <point x="404.0" y="640.0" type="curve" smooth="yes"/>
      <point x="588.0" y="560.0" type="line"/>
      <point x="711.0" y="505.0"/>
      <point x="806.0" y="467.0"/>
      <point x="806.0" y="350.0" type="curve" smooth="yes"/>
      <point x="806.0" y="239.0"/>
      <point x="721.0" y="167.0"/>
      <point x="560.0" y="167.0" type="curve" smooth="yes"/>
      <point x="429.0" y="167.0"/>
      <point x="305.0" y="223.0"/>
      <point x="209.0" y="316.0" type="curve"/>
      <point x="80.0" y="163.0" type="line"/>
      <point x="205.0" y="40.0"/>
      <point x="371.0" y="-25.0"/>
    </contour>
  </outline>
</glyph>
<glyph name="U" format="2">
  <advance width="1329.0"/>
  <unicode hex="0055"/>
  <anchor x="665.0" y="0.0" name="bottom"/>
  <anchor x="1196.0" y="10.0" name="ogonek"/>
  <anchor x="665.0" y="1340.0" name="top"/>
  <anchor x="1309.0" y="1340.0" name="topright"/>
  <outline>
    <contour>
      <point x="665.0" y="-25.0" type="curve" smooth="yes"/>
      <point x="967.0" y="-25.0"/>
      <point x="1166.0" y="134.0"/>
      <point x="1166.0" y="571.0" type="curve" smooth="yes"/>
      <point x="1166.0" y="1340.0" type="line"/>
      <point x="954.0" y="1340.0" type="line"/>
      <point x="954.0" y="557.0" type="line"/>
      <point x="954.0" y="258.0"/>
      <point x="833.0" y="167.0"/>
      <point x="665.0" y="167.0" type="curve" smooth="yes"/>
      <point x="500.0" y="167.0"/>
      <point x="385.0" y="259.0"/>
      <point x="385.0" y="557.0" type="curve" smooth="yes"/>
      <point x="385.0" y="1340.0" type="line"/>
      <point x="164.0" y="1340.0" type="line"/>
      <point x="164.0" y="571.0" type="line"/>
      <point x="164.0" y="136.0"/>
      <point x="364.0" y="-25.0"/>
    </contour>
  </outline>
</glyph>
<glyph name="V" format="2">
  <advance width="1079.0"/>
  <unicode hex="0056"/>
  <anchor x="540.0" y="0.0" name="bottom"/>
  <anchor x="540.0" y="1340.0" name="top"/>
  <outline>
    <contour>
      <point x="410.0" y="0.0" type="line"/>
      <point x="671.0" y="0.0" type="line"/>
      <point x="1089.0" y="1340.0" type="line"/>
      <point x="863.0" y="1340.0" type="line"/>
      <point x="669.0" y="654.0" type="line"/>
      <point x="627.0" y="500.0"/>
      <point x="596.0" y="370.0"/>
      <point x="549.0" y="216.0" type="curve"/>
      <point x="541.0" y="216.0" type="line"/>
      <point x="495.0" y="370.0"/>
      <point x="464.0" y="500.0"/>
      <point x="420.0" y="654.0" type="curve" smooth="yes"/>
      <point x="224.0" y="1340.0" type="line"/>
      <point x="-9.0" y="1340.0" type="line"/>
    </contour>
  </outline>
</glyph>
<glyph name="W" format="2">
  <advance width="1623.0"/>
  <unicode hex="0057"/>
  <anchor x="812.0" y="0.0" name="bottom"/>
  <anchor x="812.0" y="1340.0" name="top"/>
  <outline>
    <contour>
      <point x="306.0" y="0.0" type="line"/>
      <point x="573.0" y="0.0" type="line"/>
      <point x="746.0" y="732.0" type="line"/>
      <point x="768.0" y="835.0"/>
      <point x="788.0" y="936.0"/>
      <point x="808.0" y="1038.0" type="curve"/>
      <point x="817.0" y="1038.0" type="line"/>
      <point x="833.0" y="936.0"/>
      <point x="854.0" y="835.0"/>
      <point x="876.0" y="732.0" type="curve"/>
      <point x="1052.0" y="0.0" type="line"/>
      <point x="1324.0" y="0.0" type="line"/>
      <point x="1587.0" y="1340.0" type="line"/>
      <point x="1375.0" y="1340.0" type="line"/>
      <point x="1251.0" y="650.0" type="line"/>
      <point x="1230.0" y="509.0"/>
      <point x="1207.0" y="365.0"/>
      <point x="1185.0" y="220.0" type="curve"/>
      <point x="1176.0" y="220.0" type="line"/>
      <point x="1146.0" y="365.0"/>
      <point x="1116.0" y="511.0"/>
      <point x="1086.0" y="650.0" type="curve"/>
      <point x="916.0" y="1340.0" type="line"/>
      <point x="722.0" y="1340.0" type="line"/>
      <point x="552.0" y="650.0" type="line"/>
      <point x="521.0" y="508.0"/>
      <point x="491.0" y="364.0"/>
      <point x="464.0" y="220.0" type="curve"/>
      <point x="455.0" y="220.0" type="line"/>
      <point x="432.0" y="364.0"/>
      <point x="408.0" y="507.0"/>
      <point x="385.0" y="650.0" type="curve"/>
      <point x="262.0" y="1340.0" type="line"/>
      <point x="36.0" y="1340.0" type="line"/>
    </contour>
  </outline>
</glyph>
<glyph name="Y" format="2">
  <advance width="1006.0"/>
  <unicode hex="0059"/>
  <anchor x="503.0" y="0.0" name="bottom"/>
  <anchor x="503.0" y="1340.0" name="top"/>
  <anchor x="20.0" y="1340.0" name="topleft"/>
  <outline>
    <contour>
      <point x="392.0" y="0.0" type="line"/>
      <point x="612.0" y="0.0" type="line"/>
      <point x="612.0" y="503.0" type="line"/>
      <point x="1016.0" y="1340.0" type="line"/>
      <point x="787.0" y="1340.0" type="line"/>
      <point x="634.0" y="989.0" type="line"/>
      <point x="595.0" y="890.0"/>
      <point x="550.0" y="796.0"/>
      <point x="508.0" y="695.0" type="curve"/>
      <point x="500.0" y="695.0" type="line"/>
      <point x="456.0" y="796.0"/>
      <point x="418.0" y="890.0"/>
      <point x="378.0" y="989.0" type="curve" smooth="yes"/>
      <point x="225.0" y="1340.0" type="line"/>
      <point x="-11.0" y="1340.0" type="line"/>
      <point x="392.0" y="503.0" type="line"/>
    </contour>
  </outline>
</glyph>
<glyph name="Z" format="2">
  <advance width="1099.0"/>
  <unicode hex="005A"/>
  <anchor x="550.0" y="0.0" name="bottom"/>
  <anchor x="550.0" y="670.0" name="center"/>
  <anchor x="550.0" y="1340.0" name="top"/>
  <outline>
    <contour>
      <point x="81.0" y="0.0" type="line"/>
      <point x="1022.0" y="0.0" type="line"/>
      <point x="1022.0" y="187.0" type="line"/>
      <point x="353.0" y="187.0" type="line"/>
      <point x="1017.0" y="1209.0" type="line"/>
      <point x="1017.0" y="1340.0" type="line"/>
      <point x="141.0" y="1340.0" type="line"/>
      <point x="141.0" y="1155.0" type="line"/>
      <point x="744.0" y="1155.0" type="line"/>
      <point x="81.0" y="133.0" type="line"/>
    </contour>
  </outline>
</glyph>
<glyph name="bracketleft" format="2">
  <advance width="653.0"/>
  <unicode hex="005B"/>
  <outline>
    <contour>
      <point x="187.0" y="-311.0" type="line"/>
      <point x="578.0" y="-311.0" type="line"/>
      <point x="578.0" y="-191.0" type="line"/>
      <point x="351.0" y="-191.0" type="line"/>
      <point x="351.0" y="1328.0" type="line"/>
      <point x="578.0" y="1328.0" type="line"/>
      <point x="578.0" y="1450.0" type="line"/>
      <point x="187.0" y="1450.0" type="line"/>
    </contour>
  </outline>
</glyph>
<glyph name="backslash" format="2">
  <advance width="708.0"/>
  <unicode hex="005C"/>
  <outline>
    <contour>
      <point x="533.0" y="-328.0" type="line"/>
      <point x="685.0" y="-328.0" type="line"/>
      <point x="190.0" y="1454.0" type="line"/>
      <point x="40.0" y="1454.0" type="line"/>
    </contour>
  </outline>
</glyph>
<glyph name="asciicircum" format="2">
  <advance width="1042.0"/>
  <unicode hex="005E"/>
  <outline>
    <contour>
      <point x="115.0" y="574.0" type="line"/>
      <point x="301.0" y="574.0" type="line"/>
      <point x="419.0" y="897.0" type="line"/>
      <point x="518.0" y="1170.0" type="line"/>
      <point x="526.0" y="1170.0" type="line"/>
      <point x="623.0" y="897.0" type="line"/>
      <point x="742.0" y="574.0" type="line"/>
      <point x="927.0" y="574.0" type="line"/>
      <point x="614.0" y="1372.0" type="line"/>
      <point x="429.0" y="1372.0" type="line"/>
    </contour>
  </outline>
</glyph>
<glyph name="grave" format="2">
  <advance width="1120.0"/>
  <unicode hex="0060"/>
  <outline>
    <contour>
      <point x="543.0" y="1175.0" type="line"/>
      <point x="706.0" y="1175.0" type="line"/>
      <point x="523.0" y="1470.0" type="line"/>
      <point x="303.0" y="1470.0" type="line"/>
    </contour>
  </outline>
</glyph>
<glyph name="b" format="2">
  <advance width="1151.0"/>
  <unicode hex="0062"/>
  <anchor x="576.0" y="0.0" name="bottom"/>
  <anchor x="692.0" y="1003.0" name="top"/>
  <outline>
    <contour>
      <point x="631.0" y="-25.0" type="curve" smooth="yes"/>
      <point x="862.0" y="-25.0"/>
      <point x="1059.0" y="160.0"/>
      <point x="1059.0" y="517.0" type="curve" smooth="yes"/>
      <point x="1059.0" y="838.0"/>
      <point x="926.0" y="1028.0"/>
      <point x="664.0" y="1028.0" type="curve" smooth="yes"/>
      <point x="556.0" y="1028.0"/>
      <point x="453.0" y="975.0"/>
      <point x="368.0" y="899.0" type="curve"/>
      <point x="373.0" y="1069.0" type="line"/>
      <point x="373.0" y="1450.0" type="line"/>
      <point x="155.0" y="1450.0" type="line"/>
      <point x="155.0" y="0.0" type="line"/>
      <point x="328.0" y="0.0" type="line"/>
      <point x="346.0" y="101.0" type="line"/>
      <point x="353.0" y="101.0" type="line"/>
      <point x="438.0" y="20.0"/>
      <point x="536.0" y="-25.0"/>
    </contour>
    <contour>
      <point x="585.0" y="157.0" type="curve" smooth="yes"/>
      <point x="523.0" y="157.0"/>
      <point x="448.0" y="180.0"/>
      <point x="373.0" y="246.0" type="curve"/>
      <point x="373.0" y="727.0" type="line"/>
      <point x="454.0" y="806.0"/>
      <point x="526.0" y="847.0"/>
      <point x="604.0" y="847.0" type="curve" smooth="yes"/>
      <point x="773.0" y="847.0"/>
      <point x="833.0" y="724.0"/>
      <point x="833.0" y="514.0" type="curve" smooth="yes"/>
      <point x="833.0" y="276.0"/>
      <point x="730.0" y="157.0"/>
    </contour>
  </outline>
</glyph>
<glyph name="d" format="2">
  <advance width="1151.0"/>
  <unicode hex="0064"/>
  <anchor x="536.0" y="0.0" name="bottom"/>
  <anchor x="1147.0" y="1003.0" name="car"/>
  <anchor x="576.0" y="502.0" name="center"/>
  <anchor x="450.0" y="990.0" name="top"/>
  <anchor x="1131.0" y="1003.0" name="topright"/>
  <outline>
    <contour>
      <point x="503.0" y="-25.0" type="curve" smooth="yes"/>
      <point x="613.0" y="-25.0"/>
      <point x="717.0" y="36.0"/>
      <point x="793.0" y="111.0" type="curve"/>
      <point x="799.0" y="111.0" type="line"/>
      <point x="816.0" y="0.0" type="line"/>
      <point x="996.0" y="0.0" type="line"/>
      <point x="996.0" y="1450.0" type="line"/>
      <point x="776.0" y="1450.0" type="line"/>
      <point x="776.0" y="1081.0" type="line"/>
      <point x="786.0" y="916.0" type="line"/>
      <point x="705.0" y="985.0"/>
      <point x="632.0" y="1028.0"/>
      <point x="518.0" y="1028.0" type="curve" smooth="yes"/>
      <point x="289.0" y="1028.0"/>
      <point x="90.0" y="837.0"/>
      <point x="90.0" y="502.0" type="curve" smooth="yes"/>
      <point x="90.0" y="161.0"/>
      <point x="255.0" y="-25.0"/>
    </contour>
    <contour>
      <point x="556.0" y="157.0" type="curve" smooth="yes"/>
      <point x="398.0" y="157.0"/>
      <point x="314.0" y="275.0"/>
      <point x="314.0" y="505.0" type="curve" smooth="yes"/>
      <point x="314.0" y="725.0"/>
      <point x="421.0" y="847.0"/>
      <point x="562.0" y="847.0" type="curve" smooth="yes"/>
      <point x="634.0" y="847.0"/>
      <point x="704.0" y="823.0"/>
      <point x="776.0" y="757.0" type="curve"/>
      <point x="776.0" y="277.0" type="line"/>
      <point x="707.0" y="194.0"/>
      <point x="638.0" y="157.0"/>
    </contour>
  </outline>
</glyph>
<glyph name="g" format="2">
  <advance width="1056.0"/>
  <unicode hex="0067"/>
  <anchor x="528.0" y="-1068.0" name="bottom"/>
  <anchor x="526.0" y="1003.0" name="top"/>
  <outline>
    <contour>
      <point x="500.0" y="-449.0" type="curve" smooth="yes"/>
      <point x="833.0" y="-449.0"/>
      <point x="1029.0" y="-291.0"/>
      <point x="1029.0" y="-97.0" type="curve" smooth="yes"/>
      <point x="1029.0" y="75.0"/>
      <point x="918.0" y="161.0"/>
      <point x="679.0" y="161.0" type="curve" smooth="yes"/>
      <point x="484.0" y="161.0" type="line"/>
      <point x="358.0" y="161.0"/>
      <point x="317.0" y="198.0"/>
      <point x="317.0" y="257.0" type="curve" smooth="yes"/>
      <point x="317.0" y="305.0"/>
      <point x="338.0" y="323.0"/>
      <point x="370.0" y="351.0" type="curve"/>
      <point x="415.0" y="332.0"/>
      <point x="462.0" y="322.0"/>
      <point x="509.0" y="322.0" type="curve" smooth="yes"/>
      <point x="726.0" y="322.0"/>
      <point x="888.0" y="437.0"/>
      <point x="888.0" y="666.0" type="curve" smooth="yes"/>
      <point x="888.0" y="742.0"/>
      <point x="860.0" y="807.0"/>
      <point x="823.0" y="846.0" type="curve"/>
      <point x="1012.0" y="846.0" type="line"/>
      <point x="1012.0" y="1003.0" type="line"/>
      <point x="657.0" y="1003.0" type="line"/>
      <point x="617.0" y="1018.0"/>
      <point x="571.0" y="1028.0"/>
      <point x="509.0" y="1028.0" type="curve" smooth="yes"/>
      <point x="294.0" y="1028.0"/>
      <point x="117.0" y="909.0"/>
      <point x="117.0" y="673.0" type="curve" smooth="yes"/>
      <point x="117.0" y="549.0"/>
      <point x="182.0" y="458.0"/>
      <point x="250.0" y="406.0" type="curve"/>
      <point x="250.0" y="398.0" type="line"/>
      <point x="193.0" y="359.0"/>
      <point x="139.0" y="300.0"/>
      <point x="139.0" y="220.0" type="curve" smooth="yes"/>
      <point x="139.0" y="139.0"/>
      <point x="178.0" y="94.0"/>
      <point x="229.0" y="61.0" type="curve"/>
      <point x="229.0" y="53.0" type="line"/>
      <point x="137.0" y="-3.0"/>
      <point x="84.0" y="-97.0"/>
      <point x="84.0" y="-184.0" type="curve" smooth="yes"/>
      <point x="84.0" y="-359.0"/>
      <point x="239.0" y="-449.0"/>
    </contour>
    <contour>
      <point x="534.0" y="-303.0" type="curve" smooth="yes"/>
      <point x="365.0" y="-303.0"/>
      <point x="271.0" y="-247.0"/>
      <point x="271.0" y="-152.0" type="curve" smooth="yes"/>
      <point x="271.0" y="-84.0"/>
      <point x="295.0" y="-29.0"/>
      <point x="354.0" y="14.0" type="curve"/>
      <point x="393.0" y="4.0"/>
      <point x="437.0" y="0.0"/>
      <point x="488.0" y="0.0" type="curve" smooth="yes"/>
      <point x="635.0" y="0.0" type="line"/>
      <point x="753.0" y="0.0"/>
      <point x="818.0" y="-49.0"/>
      <point x="818.0" y="-131.0" type="curve" smooth="yes"/>
      <point x="818.0" y="-223.0"/>
      <point x="709.0" y="-303.0"/>
    </contour>
    <contour>
      <point x="509.0" y="461.0" type="curve" smooth="yes"/>
      <point x="408.0" y="461.0"/>
      <point x="325.0" y="533.0"/>
      <point x="325.0" y="673.0" type="curve" smooth="yes"/>
      <point x="325.0" y="810.0"/>
      <point x="400.0" y="874.0"/>
      <point x="509.0" y="874.0" type="curve" smooth="yes"/>
      <point x="618.0" y="874.0"/>
      <point x="693.0" y="809.0"/>
      <point x="693.0" y="673.0" type="curve" smooth="yes"/>
      <point x="693.0" y="531.0"/>
      <point x="610.0" y="461.0"/>
    </contour>
  </outline>
</glyph>
<glyph name="i" format="2">
  <advance width="527.0"/>
  <unicode hex="0069"/>
  <outline>
    <contour>
      <point x="155.0" y="0.0" type="line"/>
      <point x="373.0" y="0.0" type="line"/>
      <point x="373.0" y="1003.0" type="line"/>
      <point x="155.0" y="1003.0" type="line"/>
    </contour>
    <contour>
      <point x="265.0" y="1187.0" type="curve" smooth="yes"/>
      <point x="344.0" y="1187.0"/>
      <point x="404.0" y="1240.0"/>
      <point x="404.0" y="1314.0" type="curve" smooth="yes"/>
      <point x="404.0" y="1390.0"/>
      <point x="344.0" y="1441.0"/>
      <point x="265.0" y="1441.0" type="curve" smooth="yes"/>
      <point x="186.0" y="1441.0"/>
      <point x="126.0" y="1390.0"/>
      <point x="126.0" y="1314.0" type="curve" smooth="yes"/>
      <point x="126.0" y="1240.0"/>
      <point x="186.0" y="1187.0"/>
    </contour>
  </outline>
</glyph>
<glyph name="l" format="2">
  <advance width="546.0"/>
  <unicode hex="006C"/>
  <anchor x="273.0" y="0.0" name="bottom"/>
  <anchor x="527.0" y="1003.0" name="car"/>
  <anchor x="273.0" y="951.0" name="center"/>
  <anchor x="263.0" y="1340.0" name="top"/>
  <outline>
    <contour>
      <point x="370.0" y="-25.0" type="curve" smooth="yes"/>
      <point x="424.0" y="-25.0"/>
      <point x="461.0" y="-16.0"/>
      <point x="487.0" y="-5.0" type="curve"/>
      <point x="460.0" y="159.0" type="line"/>
      <point x="442.0" y="155.0"/>
      <point x="434.0" y="155.0"/>
      <point x="423.0" y="155.0" type="curve" smooth="yes"/>
      <point x="398.0" y="155.0"/>
      <point x="373.0" y="175.0"/>
      <point x="373.0" y="232.0" type="curve" smooth="yes"/>
      <point x="373.0" y="1450.0" type="line"/>
      <point x="155.0" y="1450.0" type="line"/>
      <point x="155.0" y="245.0" type="line"/>
      <point x="155.0" y="76.0"/>
      <point x="213.0" y="-25.0"/>
    </contour>
  </outline>
</glyph>
<glyph name="p" format="2">
  <advance width="1151.0"/>
  <unicode hex="0070"/>
  <anchor x="576.0" y="0.0" name="bottom"/>
  <anchor x="576.0" y="1003.0" name="top"/>
  <outline>
    <contour>
      <point x="155.0" y="-404.0" type="line"/>
      <point x="373.0" y="-404.0" type="line"/>
      <point x="373.0" y="-82.0" type="line"/>
      <point x="367.0" y="87.0" type="line"/>
      <point x="451.0" y="16.0"/>
      <point x="537.0" y="-25.0"/>
      <point x="630.0" y="-25.0" type="curve" smooth="yes"/>
      <point x="858.0" y="-25.0"/>
      <point x="1059.0" y="169.0"/>
      <point x="1059.0" y="515.0" type="curve" smooth="yes"/>
      <point x="1059.0" y="831.0"/>
      <point x="921.0" y="1028.0"/>
      <point x="664.0" y="1028.0" type="curve" smooth="yes"/>
      <point x="549.0" y="1028.0"/>
      <point x="444.0" y="968.0"/>
      <point x="359.0" y="894.0" type="curve"/>
      <point x="351.0" y="894.0" type="line"/>
      <point x="334.0" y="1003.0" type="line"/>
      <point x="155.0" y="1003.0" type="line"/>
    </contour>
    <contour>
      <point x="584.0" y="157.0" type="curve" smooth="yes"/>
      <point x="523.0" y="157.0"/>
      <point x="449.0" y="180.0"/>
      <point x="373.0" y="246.0" type="curve"/>
      <point x="373.0" y="727.0" type="line"/>
      <point x="457.0" y="806.0"/>
      <point x="527.0" y="847.0"/>
      <point x="603.0" y="847.0" type="curve" smooth="yes"/>
      <point x="770.0" y="847.0"/>
      <point x="833.0" y="723.0"/>
      <point x="833.0" y="514.0" type="curve" smooth="yes"/>
      <point x="833.0" y="279.0"/>
      <point x="728.0" y="157.0"/>
    </contour>
  </outline>
</glyph>
<glyph name="q" format="2">
  <advance width="1143.0"/>
  <unicode hex="0071"/>
  <anchor x="543.0" y="-200.0" name="btm"/>
  <anchor x="543.0" y="800.0" name="top"/>
  <outline>
    <contour>
      <point x="776.0" y="-404.0" type="line"/>
      <point x="996.0" y="-404.0" type="line"/>
      <point x="996.0" y="1003.0" type="line"/>
      <point x="823.0" y="1003.0" type="line"/>
      <point x="803.0" y="906.0" type="line"/>
      <point x="797.0" y="906.0" type="line"/>
      <point x="711.0" y="987.0"/>
      <point x="635.0" y="1028.0"/>
      <point x="519.0" y="1028.0" type="curve" smooth="yes"/>
      <point x="292.0" y="1028.0"/>
      <point x="90.0" y="832.0"/>
      <point x="90.0" y="499.0" type="curve" smooth="yes"/>
      <point x="90.0" y="161.0"/>
      <point x="248.0" y="-25.0"/>
      <point x="504.0" y="-25.0" type="curve" smooth="yes"/>
      <point x="613.0" y="-25.0"/>
      <point x="711.0" y="32.0"/>
      <point x="786.0" y="102.0" type="curve"/>
      <point x="776.0" y="-67.0" type="line"/>
    </contour>
    <contour>
      <point x="558.0" y="157.0" type="curve" smooth="yes"/>
      <point x="401.0" y="157.0"/>
      <point x="315.0" y="273.0"/>
      <point x="315.0" y="502.0" type="curve" smooth="yes"/>
      <point x="315.0" y="720.0"/>
      <point x="425.0" y="847.0"/>
      <point x="564.0" y="847.0" type="curve" smooth="yes"/>
      <point x="638.0" y="847.0"/>
      <point x="704.0" y="823.0"/>
      <point x="776.0" y="757.0" type="curve"/>
      <point x="776.0" y="277.0" type="line"/>
      <point x="707.0" y="194.0"/>
      <point x="641.0" y="157.0"/>
    </contour>
  </outline>
</glyph>
<glyph name="v" format="2">
  <advance width="1000.0"/>
  <unicode hex="0076"/>
  <anchor x="500.0" y="-200.0" name="btm"/>
  <anchor x="500.0" y="800.0" name="top"/>
  <outline>
    <contour>
      <point x="377.0" y="0.0" type="line"/>
      <point x="632.0" y="0.0" type="line"/>
      <point x="976.0" y="1003.0" type="line"/>
      <point x="763.0" y="1003.0" type="line"/>
      <point x="596.0" y="471.0" type="line"/>
      <point x="568.0" y="372.0"/>
      <point x="537.0" y="269.0"/>
      <point x="510.0" y="170.0" type="curve"/>
      <point x="502.0" y="170.0" type="line"/>
      <point x="473.0" y="269.0"/>
      <point x="442.0" y="372.0"/>
      <point x="414.0" y="471.0" type="curve"/>
      <point x="248.0" y="1003.0" type="line"/>
      <point x="25.0" y="1003.0" type="line"/>
    </contour>
  </outline>
</glyph>
<glyph name="x" format="2">
  <advance width="966.0"/>
  <unicode hex="0078"/>
  <anchor x="483.0" y="1003.0" name="top"/>
  <outline>
    <contour>
      <point x="29.0" y="0.0" type="line"/>
      <point x="257.0" y="0.0" type="line"/>
      <point x="371.0" y="207.0" type="line"/>
      <point x="400.0" y="268.0"/>
      <point x="432.0" y="327.0"/>
      <point x="462.0" y="385.0" type="curve"/>
      <point x="471.0" y="385.0" type="line"/>
      <point x="506.0" y="327.0"/>
      <point x="540.0" y="266.0"/>
      <point x="574.0" y="207.0" type="curve"/>
      <point x="701.0" y="0.0" type="line"/>
      <point x="938.0" y="0.0" type="line"/>
      <point x="618.0" y="499.0" type="line"/>
      <point x="917.0" y="1003.0" type="line"/>
      <point x="689.0" y="1003.0" type="line"/>
      <point x="588.0" y="805.0" type="line"/>
      <point x="561.0" y="750.0"/>
      <point x="531.0" y="692.0"/>
      <point x="506.0" y="636.0" type="curve"/>
      <point x="498.0" y="636.0" type="line"/>
      <point x="465.0" y="692.0"/>
      <point x="433.0" y="750.0"/>
      <point x="404.0" y="805.0" type="curve" smooth="yes"/>
      <point x="288.0" y="1003.0" type="line"/>
      <point x="51.0" y="1003.0" type="line"/>
      <point x="349.0" y="523.0" type="line"/>
    </contour>
  </outline>
</glyph>
<glyph name="z" format="2">
  <advance width="897.0"/>
  <unicode hex="007A"/>
  <anchor x="449.0" y="0.0" name="bottom"/>
  <anchor x="449.0" y="502.0" name="center"/>
  <anchor x="449.0" y="1003.0" name="top"/>
  <outline>
    <contour>
      <point x="69.0" y="0.0" type="line"/>
      <point x="846.0" y="0.0" type="line"/>
      <point x="846.0" y="175.0" type="line"/>
      <point x="344.0" y="175.0" type="line"/>
      <point x="831.0" y="886.0" type="line"/>
      <point x="831.0" y="1003.0" type="line"/>
      <point x="123.0" y="1003.0" type="line"/>
      <point x="123.0" y="828.0" type="line"/>
      <point x="556.0" y="828.0" type="line"/>
      <point x="69.0" y="117.0" type="line"/>
    </contour>
  </outline>
</glyph>
<glyph name="asciitilde" format="2">
  <advance width="1042.0"/>
  <unicode hex="007E"/>
  <outline>
    <contour>
      <point x="703.0" y="513.0" type="curve" smooth="yes"/>
      <point x="805.0" y="513.0"/>
      <point x="902.0" y="568.0"/>
      <point x="974.0" y="706.0" type="curve"/>
      <point x="856.0" y="795.0" type="line"/>
      <point x="818.0" y="711.0"/>
      <point x="769.0" y="673.0"/>
      <point x="704.0" y="673.0" type="curve" smooth="yes"/>
      <point x="590.0" y="673.0"/>
      <point x="509.0" y="838.0"/>
      <point x="344.0" y="838.0" type="curve" smooth="yes"/>
      <point x="235.0" y="838.0"/>
      <point x="137.0" y="789.0"/>
      <point x="68.0" y="644.0" type="curve"/>
      <point x="186.0" y="556.0" type="line"/>
      <point x="228.0" y="646.0"/>
      <point x="274.0" y="679.0"/>
      <point x="339.0" y="679.0" type="curve" smooth="yes"/>
      <point x="452.0" y="679.0"/>
      <point x="538.0" y="513.0"/>
    </contour>
  </outline>
</glyph>
<glyph name="yen" format="2">
  <advance width="1042.0"/>
  <unicode hex="00A5"/>
  <outline>
    <contour>
      <point x="411.0" y="0.0" type="line"/>
      <point x="629.0" y="0.0" type="line"/>
      <point x="629.0" y="315.0" type="line"/>
      <point x="957.0" y="315.0" type="line"/>
      <point x="957.0" y="430.0" type="line"/>
      <point x="629.0" y="430.0" type="line"/>
      <point x="629.0" y="556.0" type="line"/>
      <point x="957.0" y="556.0" type="line"/>
      <point x="957.0" y="670.0" type="line"/>
      <point x="681.0" y="670.0" type="line"/>
      <point x="1004.0" y="1304.0" type="line"/>
      <point x="782.0" y="1304.0" type="line"/>
      <point x="644.0" y="983.0" type="line"/>
      <point x="605.0" y="894.0"/>
      <point x="569.0" y="804.0"/>
      <point x="527.0" y="711.0" type="curve"/>
      <point x="519.0" y="711.0" type="line"/>
      <point x="479.0" y="803.0"/>
      <point x="442.0" y="893.0"/>
      <point x="404.0" y="983.0" type="curve" smooth="yes"/>
      <point x="265.0" y="1304.0" type="line"/>
      <point x="39.0" y="1304.0" type="line"/>
      <point x="360.0" y="670.0" type="line"/>
      <point x="86.0" y="670.0" type="line"/>
      <point x="86.0" y="556.0" type="line"/>
      <point x="411.0" y="556.0" type="line"/>
      <point x="411.0" y="430.0" type="line"/>
      <point x="86.0" y="430.0" type="line"/>
      <point x="86.0" y="315.0" type="line"/>
      <point x="411.0" y="315.0" type="line"/>
    </contour>
  </outline>
</glyph>
<glyph name="section" format="2">
  <advance width="1042.0"/>
  <unicode hex="00A7"/>
  <outline>
    <contour>
      <point x="486.0" y="-147.0" type="curve" smooth="yes"/>
      <point x="703.0" y="-147.0"/>
      <point x="840.0" y="-20.0"/>
      <point x="840.0" y="151.0" type="curve" smooth="yes"/>
      <point x="840.0" y="217.0"/>
      <point x="820.0" y="270.0"/>
      <point x="785.0" y="314.0" type="curve"/>
      <point x="890.0" y="376.0"/>
      <point x="957.0" y="457.0"/>
      <point x="957.0" y="582.0" type="curve" smooth="yes"/>
      <point x="957.0" y="956.0"/>
      <point x="393.0" y="937.0"/>
      <point x="393.0" y="1129.0" type="curve" smooth="yes"/>
      <point x="393.0" y="1191.0"/>
      <point x="437.0" y="1239.0"/>
      <point x="536.0" y="1239.0" type="curve" smooth="yes"/>
      <point x="619.0" y="1239.0"/>
      <point x="694.0" y="1198.0"/>
      <point x="759.0" y="1144.0" type="curve"/>
      <point x="861.0" y="1282.0" type="line"/>
      <point x="781.0" y="1347.0"/>
      <point x="666.0" y="1406.0"/>
      <point x="526.0" y="1406.0" type="curve" smooth="yes"/>
      <point x="311.0" y="1406.0"/>
      <point x="194.0" y="1279.0"/>
      <point x="194.0" y="1122.0" type="curve" smooth="yes"/>
      <point x="194.0" y="1050.0"/>
      <point x="218.0" y="996.0"/>
      <point x="257.0" y="953.0" type="curve"/>
      <point x="156.0" y="893.0"/>
      <point x="86.0" y="802.0"/>
      <point x="86.0" y="689.0" type="curve" smooth="yes"/>
      <point x="86.0" y="308.0"/>
      <point x="641.0" y="345.0"/>
      <point x="641.0" y="139.0" type="curve" smooth="yes"/>
      <point x="641.0" y="72.0"/>
      <point x="586.0" y="19.0"/>
      <point x="486.0" y="19.0" type="curve" smooth="yes"/>
      <point x="389.0" y="19.0"/>
      <point x="312.0" y="58.0"/>
      <point x="245.0" y="124.0" type="curve"/>
      <point x="116.0" y="9.0" type="line"/>
      <point x="203.0" y="-92.0"/>
      <point x="340.0" y="-147.0"/>
    </contour>
    <contour>
      <point x="665.0" y="411.0" type="curve"/>
      <point x="500.0" y="505.0"/>
      <point x="274.0" y="543.0"/>
      <point x="274.0" y="704.0" type="curve" smooth="yes"/>
      <point x="274.0" y="775.0"/>
      <point x="313.0" y="821.0"/>
      <point x="379.0" y="860.0" type="curve"/>
      <point x="545.0" y="768.0"/>
      <point x="768.0" y="728.0"/>
      <point x="768.0" y="564.0" type="curve" smooth="yes"/>
      <point x="768.0" y="488.0"/>
      <point x="733.0" y="445.0"/>
    </contour>
  </outline>
</glyph>
<glyph name="dieresis" format="2">
  <advance width="1120.0"/>
  <unicode hex="00A8"/>
  <outline>
    <contour>
      <point x="374.0" y="1191.0" type="curve" smooth="yes"/>
      <point x="442.0" y="1191.0"/>
      <point x="490.0" y="1241.0"/>
      <point x="490.0" y="1308.0" type="curve" smooth="yes"/>
      <point x="490.0" y="1374.0"/>
      <point x="442.0" y="1424.0"/>
      <point x="374.0" y="1424.0" type="curve" smooth="yes"/>
      <point x="306.0" y="1424.0"/>
      <point x="258.0" y="1374.0"/>
      <point x="258.0" y="1308.0" type="curve" smooth="yes"/>
      <point x="258.0" y="1241.0"/>
      <point x="306.0" y="1191.0"/>
    </contour>
    <contour>
      <point x="747.0" y="1191.0" type="curve" smooth="yes"/>
      <point x="816.0" y="1191.0"/>
      <point x="863.0" y="1241.0"/>
      <point x="863.0" y="1308.0" type="curve" smooth="yes"/>
      <point x="863.0" y="1374.0"/>
      <point x="816.0" y="1424.0"/>
      <point x="747.0" y="1424.0" type="curve" smooth="yes"/>
      <point x="679.0" y="1424.0"/>
      <point x="631.0" y="1374.0"/>
      <point x="631.0" y="1308.0" type="curve" smooth="yes"/>
      <point x="631.0" y="1241.0"/>
      <point x="679.0" y="1191.0"/>
    </contour>
  </outline>
</glyph>
<glyph name="ordfeminine" format="2">
  <advance width="718.0"/>
  <unicode hex="00AA"/>
  <outline>
    <contour>
      <point x="274.0" y="516.0" type="curve" smooth="yes"/>
      <point x="355.0" y="516.0"/>
      <point x="422.0" y="556.0"/>
      <point x="474.0" y="605.0" type="curve"/>
      <point x="483.0" y="605.0" type="line"/>
      <point x="499.0" y="532.0" type="line"/>
      <point x="627.0" y="532.0" type="line"/>
      <point x="627.0" y="929.0" type="line"/>
      <point x="627.0" y="1114.0"/>
      <point x="544.0" y="1214.0"/>
      <point x="377.0" y="1214.0" type="curve" smooth="yes"/>
      <point x="270.0" y="1214.0"/>
      <point x="171.0" y="1172.0"/>
      <point x="94.0" y="1126.0" type="curve"/>
      <point x="153.0" y="1018.0" type="line"/>
      <point x="212.0" y="1053.0"/>
      <point x="286.0" y="1085.0"/>
      <point x="351.0" y="1085.0" type="curve" smooth="yes"/>
      <point x="436.0" y="1085.0"/>
      <point x="464.0" y="1034.0"/>
      <point x="467.0" y="958.0" type="curve"/>
      <point x="191.0" y="931.0"/>
      <point x="70.0" y="857.0"/>
      <point x="70.0" y="714.0" type="curve" smooth="yes"/>
      <point x="70.0" y="599.0"/>
      <point x="151.0" y="516.0"/>
    </contour>
    <contour>
      <point x="324.0" y="641.0" type="curve" smooth="yes"/>
      <point x="263.0" y="641.0"/>
      <point x="224.0" y="668.0"/>
      <point x="224.0" y="726.0" type="curve" smooth="yes"/>
      <point x="224.0" y="792.0"/>
      <point x="285.0" y="841.0"/>
      <point x="467.0" y="861.0" type="curve"/>
      <point x="467.0" y="711.0" type="line"/>
      <point x="418.0" y="664.0"/>
      <point x="374.0" y="641.0"/>
    </contour>
  </outline>
</glyph>
<glyph name="macron" format="2">
  <advance width="1120.0"/>
  <unicode hex="00AF"/>
  <outline>
    <contour>
      <point x="298.0" y="1224.0" type="line"/>
      <point x="824.0" y="1224.0" type="line"/>
      <point x="824.0" y="1369.0" type="line"/>
      <point x="298.0" y="1369.0" type="line"/>
    </contour>
  </outline>
</glyph>
<glyph name="plusminus" format="2">
  <advance width="1042.0"/>
  <unicode hex="00B1"/>
  <outline>
    <contour>
      <point x="437.0" y="284.0" type="line"/>
      <point x="604.0" y="284.0" type="line"/>
      <point x="604.0" y="615.0" type="line"/>
      <point x="972.0" y="615.0" type="line"/>
      <point x="972.0" y="775.0" type="line"/>
      <point x="604.0" y="775.0" type="line"/>
      <point x="604.0" y="1147.0" type="line"/>
      <point x="437.0" y="1147.0" type="line"/>
      <point x="437.0" y="775.0" type="line"/>
      <point x="70.0" y="775.0" type="line"/>
      <point x="70.0" y="615.0" type="line"/>
      <point x="437.0" y="615.0" type="line"/>
    </contour>
    <contour>
      <point x="70.0" y="0.0" type="line"/>
      <point x="972.0" y="0.0" type="line"/>
      <point x="972.0" y="160.0" type="line"/>
      <point x="70.0" y="160.0" type="line"/>
    </contour>
  </outline>
</glyph>
<glyph name="two.sups" format="2">
  <advance width="759.0"/>
  <unicode hex="00B2"/>
  <outline>
    <contour>
      <point x="101.0" y="901.0" type="line"/>
      <point x="666.0" y="901.0" type="line"/>
      <point x="666.0" y="1041.0" type="line"/>
      <point x="365.0" y="1041.0" type="line"/>
      <point x="513.0" y="1196.0"/>
      <point x="630.0" y="1318.0"/>
      <point x="630.0" y="1461.0" type="curve" smooth="yes"/>
      <point x="630.0" y="1631.0"/>
      <point x="519.0" y="1724.0"/>
      <point x="353.0" y="1724.0" type="curve" smooth="yes"/>
      <point x="239.0" y="1724.0"/>
      <point x="141.0" y="1664.0"/>
      <point x="72.0" y="1566.0" type="curve"/>
      <point x="168.0" y="1478.0" type="line"/>
      <point x="213.0" y="1541.0"/>
      <point x="267.0" y="1587.0"/>
      <point x="330.0" y="1587.0" type="curve" smooth="yes"/>
      <point x="416.0" y="1587.0"/>
      <point x="469.0" y="1529.0"/>
      <point x="469.0" y="1435.0" type="curve" smooth="yes"/>
      <point x="469.0" y="1322.0"/>
      <point x="332.0" y="1195.0"/>
      <point x="101.0" y="993.0" type="curve"/>
    </contour>
  </outline>
</glyph>
<glyph name="acute" format="2">
  <advance width="1120.0"/>
  <unicode hex="00B4"/>
  <outline>
    <contour>
      <point x="354.0" y="1175.0" type="line"/>
      <point x="518.0" y="1175.0" type="line"/>
      <point x="757.0" y="1470.0" type="line"/>
      <point x="538.0" y="1470.0" type="line"/>
    </contour>
  </outline>
</glyph>
<glyph name="paragraph" format="2">
  <advance width="1207.0"/>
  <unicode hex="00B6"/>
  <outline>
    <contour>
      <point x="603.0" y="440.0" type="curve"/>
      <point x="658.0" y="440.0" type="line"/>
      <point x="658.0" y="1340.0" type="line"/>
      <point x="586.0" y="1340.0" type="line"/>
      <point x="303.0" y="1340.0"/>
      <point x="82.0" y="1227.0"/>
      <point x="82.0" y="896.0" type="curve" smooth="yes"/>
      <point x="82.0" y="585.0"/>
      <point x="308.0" y="440.0"/>
    </contour>
    <contour>
      <point x="788.0" y="-164.0" type="line"/>
      <point x="1010.0" y="-164.0" type="line"/>
      <point x="1010.0" y="1340.0" type="line"/>
      <point x="788.0" y="1340.0" type="line"/>
    </contour>
  </outline>
</glyph>
<glyph name="cedilla" format="2">
  <advance width="1120.0"/>
  <unicode hex="00B8"/>
  <outline>
    <contour>
      <point x="401.0" y="-442.0" type="line"/>
      <point x="570.0" y="-430.0"/>
      <point x="723.0" y="-372.0"/>
      <point x="723.0" y="-245.0" type="curve" smooth="yes"/>
      <point x="723.0" y="-161.0"/>
      <point x="669.0" y="-120.0"/>
      <point x="602.0" y="-97.0" type="curve"/>
      <point x="650.0" y="7.0" type="line"/>
      <point x="515.0" y="7.0" type="line"/>
      <point x="433.0" y="-155.0" type="line"/>
      <point x="519.0" y="-176.0"/>
      <point x="560.0" y="-203.0"/>
      <point x="560.0" y="-249.0" type="curve" smooth="yes"/>
      <point x="560.0" y="-304.0"/>
      <point x="486.0" y="-332.0"/>
      <point x="382.0" y="-344.0" type="curve"/>
    </contour>
  </outline>
</glyph>
<glyph name="ordmasculine" format="2">
  <advance width="754.0"/>
  <unicode hex="00BA"/>
  <outline>
    <contour>
      <point x="376.0" y="516.0" type="curve" smooth="yes"/>
      <point x="546.0" y="516.0"/>
      <point x="695.0" y="646.0"/>
      <point x="695.0" y="864.0" type="curve" smooth="yes"/>
      <point x="695.0" y="1085.0"/>
      <point x="546.0" y="1214.0"/>
      <point x="376.0" y="1214.0" type="curve" smooth="yes"/>
      <point x="205.0" y="1214.0"/>
      <point x="56.0" y="1085.0"/>
      <point x="56.0" y="864.0" type="curve" smooth="yes"/>
      <point x="56.0" y="646.0"/>
      <point x="205.0" y="516.0"/>
    </contour>
    <contour>
      <point x="376.0" y="645.0" type="curve" smooth="yes"/>
      <point x="276.0" y="645.0"/>
      <point x="219.0" y="734.0"/>
      <point x="219.0" y="864.0" type="curve" smooth="yes"/>
      <point x="219.0" y="998.0"/>
      <point x="276.0" y="1085.0"/>
      <point x="376.0" y="1085.0" type="curve" smooth="yes"/>
      <point x="476.0" y="1085.0"/>
      <point x="532.0" y="998.0"/>
      <point x="532.0" y="864.0" type="curve" smooth="yes"/>
      <point x="532.0" y="734.0"/>
      <point x="476.0" y="645.0"/>
    </contour>
  </outline>
</glyph>
<glyph name="AE" format="2">
  <advance width="1694.0"/>
  <unicode hex="00C6"/>
  <anchor x="847.0" y="0.0" name="bottom"/>
  <anchor x="927.0" y="1340.0" name="top"/>
  <outline>
    <contour>
      <point x="-4.0" y="0.0" type="line"/>
      <point x="226.0" y="0.0" type="line"/>
      <point x="404.0" y="358.0" type="line"/>
      <point x="806.0" y="358.0" type="line"/>
      <point x="806.0" y="0.0" type="line"/>
      <point x="1595.0" y="0.0" type="line"/>
      <point x="1595.0" y="187.0" type="line"/>
      <point x="1027.0" y="187.0" type="line"/>
      <point x="1027.0" y="606.0" type="line"/>
      <point x="1486.0" y="606.0" type="line"/>
      <point x="1486.0" y="791.0" type="line"/>
      <point x="1027.0" y="791.0" type="line"/>
      <point x="1027.0" y="1155.0" type="line"/>
      <point x="1575.0" y="1155.0" type="line"/>
      <point x="1575.0" y="1340.0" type="line"/>
      <point x="674.0" y="1340.0" type="line"/>
    </contour>
    <contour>
      <point x="489.0" y="532.0" type="line"/>
      <point x="599.0" y="754.0" type="line"/>
      <point x="664.0" y="889.0"/>
      <point x="732.0" y="1030.0"/>
      <point x="798.0" y="1170.0" type="curve"/>
      <point x="806.0" y="1170.0" type="line"/>
      <point x="806.0" y="532.0" type="line"/>
    </contour>
  </outline>
</glyph>
<glyph name="Oslash" format="2">
  <advance width="1369.0"/>
  <unicode hex="00D8"/>
  <anchor x="685.0" y="0.0" name="bottom"/>
  <anchor x="685.0" y="1340.0" name="top"/>
  <outline>
    <contour>
      <point x="210.0" y="-70.0" type="line"/>
      <point x="335.0" y="92.0" type="line"/>
      <point x="432.0" y="15.0"/>
      <point x="549.0" y="-25.0"/>
      <point x="684.0" y="-25.0" type="curve" smooth="yes"/>
      <point x="1030.0" y="-25.0"/>
      <point x="1270.0" y="243.0"/>
      <point x="1270.0" y="676.0" type="curve" smooth="yes"/>
      <point x="1270.0" y="862.0"/>
      <point x="1226.0" y="1015.0"/>
      <point x="1147.0" y="1129.0" type="curve"/>
      <point x="1297.0" y="1320.0" type="line"/>
      <point x="1177.0" y="1410.0" type="line"/>
      <point x="1046.0" y="1241.0" type="line"/>
      <point x="949.0" y="1322.0"/>
      <point x="825.0" y="1365.0"/>
      <point x="684.0" y="1365.0" type="curve" smooth="yes"/>
      <point x="339.0" y="1365.0"/>
      <point x="97.0" y="1109.0"/>
      <point x="97.0" y="676.0" type="curve" smooth="yes"/>
      <point x="97.0" y="481.0"/>
      <point x="146.0" y="320.0"/>
      <point x="232.0" y="202.0" type="curve"/>
      <point x="90.0" y="21.0" type="line"/>
    </contour>
    <contour>
      <point x="684.0" y="167.0" type="curve" smooth="yes"/>
      <point x="597.0" y="167.0"/>
      <point x="523.0" y="199.0"/>
      <point x="465.0" y="255.0" type="curve"/>
      <point x="997.0" y="939.0" type="line"/>
      <point x="1027.0" y="867.0"/>
      <point x="1043.0" y="778.0"/>
      <point x="1043.0" y="676.0" type="curve" smooth="yes"/>
      <point x="1043.0" y="366.0"/>
      <point x="902.0" y="167.0"/>
    </contour>
    <contour>
      <point x="379.0" y="388.0" type="line"/>
      <point x="343.0" y="466.0"/>
      <point x="324.0" y="564.0"/>
      <point x="324.0" y="676.0" type="curve" smooth="yes"/>
      <point x="324.0" y="985.0"/>
      <point x="466.0" y="1174.0"/>
      <point x="684.0" y="1174.0" type="curve" smooth="yes"/>
      <point x="776.0" y="1174.0"/>
      <point x="855.0" y="1140.0"/>
      <point x="915.0" y="1076.0" type="curve"/>
    </contour>
  </outline>
</glyph>
<glyph name="divide" format="2">
  <advance width="1042.0"/>
  <unicode hex="00F7"/>
  <outline>
    <contour>
      <point x="70.0" y="596.0" type="line"/>
      <point x="972.0" y="596.0" type="line"/>
      <point x="972.0" y="755.0" type="line"/>
      <point x="70.0" y="755.0" type="line"/>
    </contour>
    <contour>
      <point x="522.0" y="179.0" type="curve" smooth="yes"/>
      <point x="595.0" y="179.0"/>
      <point x="654.0" y="232.0"/>
      <point x="654.0" y="307.0" type="curve" smooth="yes"/>
      <point x="654.0" y="382.0"/>
      <point x="595.0" y="435.0"/>
      <point x="522.0" y="435.0" type="curve" smooth="yes"/>
      <point x="446.0" y="435.0"/>
      <point x="389.0" y="382.0"/>
      <point x="389.0" y="307.0" type="curve" smooth="yes"/>
      <point x="389.0" y="232.0"/>
      <point x="446.0" y="179.0"/>
    </contour>
    <contour>
      <point x="522.0" y="916.0" type="curve" smooth="yes"/>
      <point x="595.0" y="916.0"/>
      <point x="654.0" y="969.0"/>
      <point x="654.0" y="1044.0" type="curve" smooth="yes"/>
      <point x="654.0" y="1119.0"/>
      <point x="595.0" y="1172.0"/>
      <point x="522.0" y="1172.0" type="curve" smooth="yes"/>
      <point x="446.0" y="1172.0"/>
      <point x="389.0" y="1119.0"/>
      <point x="389.0" y="1044.0" type="curve" smooth="yes"/>
      <point x="389.0" y="969.0"/>
      <point x="446.0" y="916.0"/>
    </contour>
  </outline>
</glyph>
<glyph name="oslash" format="2">
  <advance width="1120.0"/>
  <unicode hex="00F8"/>
  <anchor x="560.0" y="1003.0" name="top"/>
  <outline>
    <contour>
      <point x="184.0" y="-49.0" type="line"/>
      <point x="280.0" y="69.0" type="line"/>
      <point x="360.0" y="8.0"/>
      <point x="459.0" y="-25.0"/>
      <point x="560.0" y="-25.0" type="curve" smooth="yes"/>
      <point x="809.0" y="-25.0"/>
      <point x="1034.0" y="168.0"/>
      <point x="1034.0" y="501.0" type="curve" smooth="yes"/>
      <point x="1034.0" y="648.0"/>
      <point x="990.0" y="767.0"/>
      <point x="921.0" y="855.0" type="curve"/>
      <point x="1026.0" y="983.0" type="line"/>
      <point x="937.0" y="1053.0" type="line"/>
      <point x="840.0" y="934.0" type="line"/>
      <point x="760.0" y="995.0"/>
      <point x="662.0" y="1028.0"/>
      <point x="560.0" y="1028.0" type="curve" smooth="yes"/>
      <point x="311.0" y="1028.0"/>
      <point x="86.0" y="835.0"/>
      <point x="86.0" y="501.0" type="curve" smooth="yes"/>
      <point x="86.0" y="354.0"/>
      <point x="130.0" y="236.0"/>
      <point x="199.0" y="148.0" type="curve"/>
      <point x="94.0" y="21.0" type="line"/>
    </contour>
    <contour>
      <point x="560.0" y="148.0" type="curve" smooth="yes"/>
      <point x="497.0" y="148.0"/>
      <point x="441.0" y="171.0"/>
      <point x="398.0" y="213.0" type="curve"/>
      <point x="785.0" y="688.0" type="line"/>
      <point x="809.0" y="633.0"/>
      <point x="820.0" y="568.0"/>
      <point x="820.0" y="490.0" type="curve" smooth="yes"/>
      <point x="820.0" y="286.0"/>
      <point x="714.0" y="148.0"/>
    </contour>
    <contour>
      <point x="334.0" y="316.0" type="line"/>
      <point x="311.0" y="369.0"/>
      <point x="300.0" y="435.0"/>
      <point x="300.0" y="512.0" type="curve" smooth="yes"/>
      <point x="300.0" y="716.0"/>
      <point x="408.0" y="855.0"/>
      <point x="560.0" y="855.0" type="curve" smooth="yes"/>
      <point x="625.0" y="855.0"/>
      <point x="680.0" y="833.0"/>
      <point x="722.0" y="790.0" type="curve"/>
    </contour>
  </outline>
</glyph>
<glyph name="thorn" format="2">
  <advance width="1151.0"/>
  <unicode hex="00FE"/>
  <outline>
    <contour>
      <point x="155.0" y="-404.0" type="line"/>
      <point x="373.0" y="-404.0" type="line"/>
      <point x="373.0" y="-82.0" type="line"/>
      <point x="369.0" y="81.0" type="line"/>
      <point x="451.0" y="14.0"/>
      <point x="533.0" y="-25.0"/>
      <point x="630.0" y="-25.0" type="curve" smooth="yes"/>
      <point x="855.0" y="-25.0"/>
      <point x="1059.0" y="175.0"/>
      <point x="1059.0" y="517.0" type="curve" smooth="yes"/>
      <point x="1059.0" y="827.0"/>
      <point x="913.0" y="1028.0"/>
      <point x="653.0" y="1028.0" type="curve" smooth="yes"/>
      <point x="551.0" y="1028.0"/>
      <point x="451.0" y="976.0"/>
      <point x="369.0" y="910.0" type="curve"/>
      <point x="373.0" y="1069.0" type="line"/>
      <point x="373.0" y="1450.0" type="line"/>
      <point x="155.0" y="1450.0" type="line"/>
    </contour>
    <contour>
      <point x="586.0" y="157.0" type="curve" smooth="yes"/>
      <point x="526.0" y="157.0"/>
      <point x="449.0" y="180.0"/>
      <point x="373.0" y="246.0" type="curve"/>
      <point x="373.0" y="727.0" type="line"/>
      <point x="457.0" y="806.0"/>
      <point x="529.0" y="847.0"/>
      <point x="604.0" y="847.0" type="curve" smooth="yes"/>
      <point x="767.0" y="847.0"/>
      <point x="833.0" y="720.0"/>
      <point x="833.0" y="515.0" type="curve" smooth="yes"/>
      <point x="833.0" y="283.0"/>
      <point x="727.0" y="157.0"/>
    </contour>
  </outline>
</glyph>
<glyph name="hbar" format="2">
  <advance width="1135.0"/>
  <unicode hex="0127"/>
  <outline>
    <contour>
      <point x="155.0" y="0.0" type="line"/>
      <point x="373.0" y="0.0" type="line"/>
      <point x="373.0" y="667.0" type="line"/>
      <point x="460.0" y="753.0"/>
      <point x="522.0" y="799.0"/>
      <point x="614.0" y="799.0" type="curve" smooth="yes"/>
      <point x="728.0" y="799.0"/>
      <point x="778.0" y="733.0"/>
      <point x="778.0" y="561.0" type="curve" smooth="yes"/>
      <point x="778.0" y="0.0" type="line"/>
      <point x="997.0" y="0.0" type="line"/>
      <point x="997.0" y="590.0" type="line"/>
      <point x="997.0" y="844.0"/>
      <point x="902.0" y="987.0"/>
      <point x="689.0" y="987.0" type="curve" smooth="yes"/>
      <point x="551.0" y="987.0"/>
      <point x="451.0" y="914.0"/>
      <point x="364.0" y="832.0" type="curve"/>
      <point x="373.0" y="1028.0" type="line"/>
      <point x="373.0" y="1158.0" type="line"/>
      <point x="544.0" y="1158.0" type="line"/>
      <point x="544.0" y="1274.0" type="line"/>
      <point x="373.0" y="1274.0" type="line"/>
      <point x="373.0" y="1450.0" type="line"/>
      <point x="155.0" y="1450.0" type="line"/>
      <point x="155.0" y="1273.0" type="line"/>
      <point x="8.0" y="1273.0" type="line"/>
      <point x="8.0" y="1158.0" type="line"/>
      <point x="155.0" y="1158.0" type="line"/>
    </contour>
  </outline>
</glyph>
<glyph name="Iogonek" format="2">
  <advance width="561.0"/>
  <unicode hex="012E"/>
  <outline>
    <contour>
      <point x="294.0" y="-443.0" type="curve" smooth="yes"/>
      <point x="356.0" y="-443.0"/>
      <point x="433.0" y="-415.0"/>
      <point x="477.0" y="-380.0" type="curve"/>
      <point x="422.0" y="-265.0" type="line"/>
      <point x="400.0" y="-282.0"/>
      <point x="373.0" y="-294.0"/>
      <point x="342.0" y="-294.0" type="curve" smooth="yes"/>
      <point x="296.0" y="-294.0"/>
      <point x="249.0" y="-266.0"/>
      <point x="249.0" y="-206.0" type="curve" smooth="yes"/>
      <point x="249.0" y="-127.0"/>
      <point x="296.0" y="-58.0"/>
      <point x="392.0" y="0.0" type="curve"/>
      <point x="392.0" y="1340.0" type="line"/>
      <point x="170.0" y="1340.0" type="line"/>
      <point x="170.0" y="0.0" type="line"/>
      <point x="226.0" y="0.0" type="line"/>
      <point x="163.0" y="-53.0"/>
      <point x="85.0" y="-137.0"/>
      <point x="85.0" y="-259.0" type="curve" smooth="yes"/>
      <point x="85.0" y="-378.0"/>
      <point x="177.0" y="-443.0"/>
    </contour>
  </outline>
</glyph>
<glyph name="oe" format="2">
  <advance width="1705.0"/>
  <unicode hex="0153"/>
  <anchor x="853.0" y="1003.0" name="top"/>
  <outline>
    <contour>
      <point x="543.0" y="-25.0" type="curve" smooth="yes"/>
      <point x="702.0" y="-25.0"/>
      <point x="818.0" y="51.0"/>
      <point x="899.0" y="197.0" type="curve"/>
      <point x="978.0" y="59.0"/>
      <point x="1107.0" y="-25.0"/>
      <point x="1250.0" y="-25.0" type="curve" smooth="yes"/>
      <point x="1379.0" y="-25.0"/>
      <point x="1498.0" y="21.0"/>
      <point x="1591.0" y="83.0" type="curve"/>
      <point x="1513.0" y="229.0" type="line"/>
      <point x="1439.0" y="183.0"/>
      <point x="1366.0" y="150.0"/>
      <point x="1278.0" y="150.0" type="curve" smooth="yes"/>
      <point x="1126.0" y="150.0"/>
      <point x="1005.0" y="261.0"/>
      <point x="992.0" y="443.0" type="curve"/>
      <point x="1620.0" y="443.0" type="line"/>
      <point x="1625.0" y="467.0"/>
      <point x="1629.0" y="506.0"/>
      <point x="1629.0" y="549.0" type="curve" smooth="yes"/>
      <point x="1629.0" y="831.0"/>
      <point x="1490.0" y="1028.0"/>
      <point x="1236.0" y="1028.0" type="curve" smooth="yes"/>
      <point x="1099.0" y="1028.0"/>
      <point x="975.0" y="945.0"/>
      <point x="897.0" y="805.0" type="curve"/>
      <point x="823.0" y="948.0"/>
      <point x="696.0" y="1028.0"/>
      <point x="548.0" y="1028.0" type="curve" smooth="yes"/>
      <point x="300.0" y="1028.0"/>
      <point x="86.0" y="835.0"/>
      <point x="86.0" y="501.0" type="curve" smooth="yes"/>
      <point x="86.0" y="168.0"/>
      <point x="296.0" y="-25.0"/>
    </contour>
    <contour>
      <point x="548.0" y="155.0" type="curve" smooth="yes"/>
      <point x="404.0" y="155.0"/>
      <point x="309.0" y="292.0"/>
      <point x="309.0" y="501.0" type="curve" smooth="yes"/>
      <point x="309.0" y="709.0"/>
      <point x="404.0" y="849.0"/>
      <point x="548.0" y="849.0" type="curve" smooth="yes"/>
      <point x="692.0" y="849.0"/>
      <point x="788.0" y="709.0"/>
      <point x="788.0" y="501.0" type="curve" smooth="yes"/>
      <point x="788.0" y="292.0"/>
      <point x="692.0" y="155.0"/>
    </contour>
    <contour>
      <point x="992.0" y="582.0" type="line"/>
      <point x="1009.0" y="757.0"/>
      <point x="1109.0" y="858.0"/>
      <point x="1229.0" y="858.0" type="curve" smooth="yes"/>
      <point x="1366.0" y="858.0"/>
      <point x="1439.0" y="756.0"/>
      <point x="1439.0" y="582.0" type="curve"/>
    </contour>
  </outline>
</glyph>
<glyph name="tbar" format="2">
  <advance width="727.0"/>
  <unicode hex="0167"/>
  <anchor x="424.0" y="0.0" name="bottom"/>
  <anchor x="572.0" y="1001.0" name="car"/>
  <anchor x="364.0" y="502.0" name="center"/>
  <anchor x="304.0" y="1193.0" name="top"/>
  <anchor x="547.0" y="1003.0" name="topright"/>
  <outline>
    <contour>
      <point x="46.0" y="486.0" type="line"/>
      <point x="669.0" y="486.0" type="line"/>
      <point x="669.0" y="661.0" type="line"/>
      <point x="46.0" y="661.0" type="line"/>
    </contour>
    <component base="t"/>
  </outline>
</glyph>
<glyph name="Uogonek" format="2">
  <advance width="1329.0"/>
  <unicode hex="0172"/>
  <outline>
    <contour>
      <point x="718.0" y="-443.0" type="curve" smooth="yes"/>
      <point x="779.0" y="-443.0"/>
      <point x="857.0" y="-415.0"/>
      <point x="901.0" y="-380.0" type="curve"/>
      <point x="845.0" y="-265.0" type="line"/>
      <point x="822.0" y="-282.0"/>
      <point x="797.0" y="-294.0"/>
      <point x="766.0" y="-294.0" type="curve" smooth="yes"/>
      <point x="720.0" y="-294.0"/>
      <point x="673.0" y="-266.0"/>
      <point x="673.0" y="-206.0" type="curve" smooth="yes"/>
      <point x="673.0" y="-143.0"/>
      <point x="726.0" y="-63.0"/>
      <point x="830.0" y="-12.0" type="curve" smooth="yes"/>
      <point x="1043.0" y="86.0"/>
      <point x="1166.0" y="211.0"/>
      <point x="1166.0" y="579.0" type="curve" smooth="yes"/>
      <point x="1166.0" y="1340.0" type="line"/>
      <point x="954.0" y="1340.0" type="line"/>
      <point x="954.0" y="565.0" type="line"/>
      <point x="954.0" y="265.0"/>
      <point x="833.0" y="167.0"/>
      <point x="665.0" y="167.0" type="curve" smooth="yes"/>
      <point x="500.0" y="167.0"/>
      <point x="385.0" y="265.0"/>
      <point x="385.0" y="565.0" type="curve" smooth="yes"/>
      <point x="385.0" y="1340.0" type="line"/>
      <point x="164.0" y="1340.0" type="line"/>
      <point x="164.0" y="579.0" type="line"/>
      <point x="164.0" y="163.0"/>
      <point x="346.0" y="-11.0"/>
      <point x="639.0" y="-22.0" type="curve"/>
      <point x="594.0" y="-66.0"/>
      <point x="508.0" y="-141.0"/>
      <point x="508.0" y="-259.0" type="curve" smooth="yes"/>
      <point x="508.0" y="-378.0"/>
      <point x="602.0" y="-443.0"/>
    </contour>
  </outline>
</glyph>
<glyph name="bstroke" format="2">
  <advance width="1135.0"/>
  <unicode hex="0180"/>
  <outline>
    <contour>
      <point x="630.0" y="-25.0" type="curve" smooth="yes"/>
      <point x="855.0" y="-25.0"/>
      <point x="1059.0" y="167.0"/>
      <point x="1059.0" y="499.0" type="curve" smooth="yes"/>
      <point x="1059.0" y="794.0"/>
      <point x="916.0" y="987.0"/>
      <point x="662.0" y="987.0" type="curve" smooth="yes"/>
      <point x="558.0" y="987.0"/>
      <point x="453.0" y="934.0"/>
      <point x="368.0" y="858.0" type="curve"/>
      <point x="373.0" y="1028.0" type="line"/>
      <point x="373.0" y="1158.0" type="line"/>
      <point x="736.0" y="1158.0" type="line"/>
      <point x="736.0" y="1274.0" type="line"/>
      <point x="373.0" y="1274.0" type="line"/>
      <point x="373.0" y="1450.0" type="line"/>
      <point x="155.0" y="1450.0" type="line"/>
      <point x="155.0" y="1273.0" type="line"/>
      <point x="8.0" y="1263.0" type="line"/>
      <point x="8.0" y="1158.0" type="line"/>
      <point x="155.0" y="1158.0" type="line"/>
      <point x="155.0" y="0.0" type="line"/>
      <point x="328.0" y="0.0" type="line"/>
      <point x="346.0" y="101.0" type="line"/>
      <point x="353.0" y="101.0" type="line"/>
      <point x="438.0" y="20.0"/>
      <point x="539.0" y="-25.0"/>
    </contour>
    <contour>
      <point x="586.0" y="157.0" type="curve" smooth="yes"/>
      <point x="526.0" y="157.0"/>
      <point x="448.0" y="180.0"/>
      <point x="373.0" y="246.0" type="curve"/>
      <point x="373.0" y="687.0" type="line"/>
      <point x="454.0" y="766.0"/>
      <point x="529.0" y="806.0"/>
      <point x="604.0" y="806.0" type="curve" smooth="yes"/>
      <point x="767.0" y="806.0"/>
      <point x="833.0" y="687.0"/>
      <point x="833.0" y="495.0" type="curve" smooth="yes"/>
      <point x="833.0" y="275.0"/>
      <point x="727.0" y="157.0"/>
    </contour>
  </outline>
</glyph>
<glyph name="Schwa" format="2">
  <advance width="1387.0"/>
  <unicode hex="018F"/>
  <anchor x="694.0" y="0.0" name="bottom"/>
  <anchor x="694.0" y="1340.0" name="top"/>
  <outline>
    <contour>
      <point x="702.0" y="-25.0" type="curve" smooth="yes"/>
      <point x="1043.0" y="-25.0"/>
      <point x="1284.0" y="241.0"/>
      <point x="1284.0" y="674.0" type="curve" smooth="yes"/>
      <point x="1284.0" y="1106.0"/>
      <point x="1055.0" y="1365.0"/>
      <point x="710.0" y="1365.0" type="curve" smooth="yes"/>
      <point x="518.0" y="1365.0"/>
      <point x="374.0" y="1298.0"/>
      <point x="275.0" y="1204.0" type="curve"/>
      <point x="375.0" y="1053.0" type="line"/>
      <point x="451.0" y="1123.0"/>
      <point x="559.0" y="1178.0"/>
      <point x="688.0" y="1178.0" type="curve" smooth="yes"/>
      <point x="916.0" y="1178.0"/>
      <point x="1049.0" y="1015.0"/>
      <point x="1064.0" y="734.0" type="curve"/>
      <point x="141.0" y="734.0" type="line"/>
      <point x="138.0" y="709.0"/>
      <point x="136.0" y="685.0"/>
      <point x="136.0" y="664.0" type="curve" smooth="yes"/>
      <point x="136.0" y="243.0"/>
      <point x="362.0" y="-25.0"/>
    </contour>
    <contour>
      <point x="702.0" y="163.0" type="curve" smooth="yes"/>
      <point x="515.0" y="163.0"/>
      <point x="380.0" y="313.0"/>
      <point x="361.0" y="569.0" type="curve"/>
      <point x="1060.0" y="569.0" type="line"/>
      <point x="1031.0" y="314.0"/>
      <point x="892.0" y="163.0"/>
    </contour>
  </outline>
</glyph>
<glyph name="ohorn" format="2">
  <advance width="1120.0"/>
  <unicode hex="01A1"/>
  <anchor x="565.0" y="0.0" name="bottom"/>
  <anchor x="575.0" y="1003.0" name="top"/>
  <outline>
    <contour>
      <point x="560.0" y="-25.0" type="curve" smooth="yes"/>
      <point x="809.0" y="-25.0"/>
      <point x="1034.0" y="168.0"/>
      <point x="1034.0" y="501.0" type="curve" smooth="yes"/>
      <point x="1034.0" y="679.0"/>
      <point x="969.0" y="817.0"/>
      <point x="872.0" y="907.0" type="curve"/>
      <point x="978.0" y="938.0"/>
      <point x="1065.0" y="1004.0"/>
      <point x="1065.0" y="1130.0" type="curve" smooth="yes"/>
      <point x="1065.0" y="1188.0"/>
      <point x="1042.0" y="1238.0"/>
      <point x="1014.0" y="1275.0" type="curve"/>
      <point x="860.0" y="1204.0" type="line"/>
      <point x="877.0" y="1179.0"/>
      <point x="891.0" y="1148.0"/>
      <point x="891.0" y="1115.0" type="curve" smooth="yes"/>
      <point x="891.0" y="1039.0"/>
      <point x="838.0" y="1002.0"/>
      <point x="754.0" y="986.0" type="curve"/>
      <point x="693.0" y="1014.0"/>
      <point x="628.0" y="1028.0"/>
      <point x="560.0" y="1028.0" type="curve" smooth="yes"/>
      <point x="311.0" y="1028.0"/>
      <point x="86.0" y="835.0"/>
      <point x="86.0" y="501.0" type="curve" smooth="yes"/>
      <point x="86.0" y="168.0"/>
      <point x="311.0" y="-25.0"/>
    </contour>
    <contour>
      <point x="560.0" y="155.0" type="curve" smooth="yes"/>
      <point x="408.0" y="155.0"/>
      <point x="312.0" y="292.0"/>
      <point x="312.0" y="501.0" type="curve" smooth="yes"/>
      <point x="312.0" y="709.0"/>
      <point x="408.0" y="849.0"/>
      <point x="560.0" y="849.0" type="curve" smooth="yes"/>
      <point x="714.0" y="849.0"/>
      <point x="809.0" y="709.0"/>
      <point x="809.0" y="501.0" type="curve" smooth="yes"/>
      <point x="809.0" y="292.0"/>
      <point x="714.0" y="155.0"/>
    </contour>
  </outline>
</glyph>
<glyph name="Uhorn" format="2">
  <advance width="1360.0"/>
  <unicode hex="01AF"/>
  <anchor x="680.0" y="0.0" name="bottom"/>
  <anchor x="680.0" y="1340.0" name="top"/>
  <outline>
    <contour>
      <point x="665.0" y="-25.0" type="curve" smooth="yes"/>
      <point x="967.0" y="-25.0"/>
      <point x="1166.0" y="141.0"/>
      <point x="1166.0" y="579.0" type="curve" smooth="yes"/>
      <point x="1166.0" y="1253.0" type="line"/>
      <point x="1295.0" y="1279.0"/>
      <point x="1402.0" y="1346.0"/>
      <point x="1402.0" y="1488.0" type="curve" smooth="yes"/>
      <point x="1402.0" y="1545.0"/>
      <point x="1378.0" y="1596.0"/>
      <point x="1350.0" y="1633.0" type="curve"/>
      <point x="1196.0" y="1562.0" type="line"/>
      <point x="1213.0" y="1536.0"/>
      <point x="1227.0" y="1506.0"/>
      <point x="1227.0" y="1474.0" type="curve" smooth="yes"/>
      <point x="1227.0" y="1375.0"/>
      <point x="1150.0" y="1351.0"/>
      <point x="1053.0" y="1340.0" type="curve"/>
      <point x="954.0" y="1340.0" type="line"/>
      <point x="954.0" y="565.0" type="line"/>
      <point x="954.0" y="265.0"/>
      <point x="833.0" y="167.0"/>
      <point x="665.0" y="167.0" type="curve" smooth="yes"/>
      <point x="500.0" y="167.0"/>
      <point x="385.0" y="265.0"/>
      <point x="385.0" y="565.0" type="curve" smooth="yes"/>
      <point x="385.0" y="1340.0" type="line"/>
      <point x="164.0" y="1340.0" type="line"/>
      <point x="164.0" y="579.0" type="line"/>
      <point x="164.0" y="141.0"/>
      <point x="364.0" y="-25.0"/>
    </contour>
  </outline>
</glyph>
<glyph name="uhorn" format="2">
  <advance width="1133.0"/>
  <unicode hex="01B0"/>
  <anchor x="567.0" y="0.0" name="bottom"/>
  <anchor x="567.0" y="1003.0" name="top"/>
  <outline>
    <contour>
      <point x="451.0" y="-25.0" type="curve" smooth="yes"/>
      <point x="589.0" y="-25.0"/>
      <point x="686.0" y="44.0"/>
      <point x="775.0" y="150.0" type="curve"/>
      <point x="782.0" y="150.0" type="line"/>
      <point x="799.0" y="0.0" type="line"/>
      <point x="979.0" y="0.0" type="line"/>
      <point x="979.0" y="929.0" type="line"/>
      <point x="1077.0" y="957.0"/>
      <point x="1168.0" y="1023.0"/>
      <point x="1168.0" y="1151.0" type="curve" smooth="yes"/>
      <point x="1168.0" y="1208.0"/>
      <point x="1144.0" y="1258.0"/>
      <point x="1116.0" y="1295.0" type="curve"/>
      <point x="963.0" y="1225.0" type="line"/>
      <point x="979.0" y="1199.0"/>
      <point x="992.0" y="1168.0"/>
      <point x="992.0" y="1135.0" type="curve" smooth="yes"/>
      <point x="992.0" y="1037.0"/>
      <point x="912.0" y="1011.0"/>
      <point x="823.0" y="1003.0" type="curve"/>
      <point x="760.0" y="1003.0" type="line"/>
      <point x="760.0" y="310.0" type="line"/>
      <point x="679.0" y="207.0"/>
      <point x="618.0" y="163.0"/>
      <point x="526.0" y="163.0" type="curve" smooth="yes"/>
      <point x="411.0" y="163.0"/>
      <point x="362.0" y="231.0"/>
      <point x="362.0" y="401.0" type="curve" smooth="yes"/>
      <point x="362.0" y="1003.0" type="line"/>
      <point x="142.0" y="1003.0" type="line"/>
      <point x="142.0" y="373.0" type="line"/>
      <point x="142.0" y="119.0"/>
      <point x="236.0" y="-25.0"/>
    </contour>
  </outline>
</glyph>
<glyph name="commaturnedmod" format="2">
  <advance width="321.0"/>
  <unicode hex="02BB"/>
  <outline>
    <contour>
      <point x="164.0" y="806.0" type="curve" smooth="yes"/>
      <point x="237.0" y="806.0"/>
      <point x="291.0" y="858.0"/>
      <point x="291.0" y="940.0" type="curve" smooth="yes"/>
      <point x="291.0" y="1017.0"/>
      <point x="230.0" y="1062.0"/>
      <point x="164.0" y="1062.0" type="curve" smooth="yes"/>
      <point x="158.0" y="1062.0"/>
      <point x="150.0" y="1062.0"/>
      <point x="144.0" y="1060.0" type="curve"/>
      <point x="144.0" y="1178.0"/>
      <point x="200.0" y="1251.0"/>
      <point x="311.0" y="1316.0" type="curve"/>
      <point x="255.0" y="1415.0" type="line"/>
      <point x="93.0" y="1328.0"/>
      <point x="10.0" y="1198.0"/>
      <point x="10.0" y="1023.0" type="curve" smooth="yes"/>
      <point x="10.0" y="885.0"/>
      <point x="64.0" y="806.0"/>
    </contour>
  </outline>
</glyph>
<glyph name="apostrophemod" format="2">
  <advance width="322.0"/>
  <unicode hex="02BC"/>
  <outline>
    <contour>
      <point x="64.0" y="821.0" type="line"/>
      <point x="227.0" y="909.0"/>
      <point x="312.0" y="1037.0"/>
      <point x="312.0" y="1212.0" type="curve" smooth="yes"/>
      <point x="312.0" y="1351.0"/>
      <point x="255.0" y="1430.0"/>
      <point x="158.0" y="1430.0" type="curve" smooth="yes"/>
      <point x="84.0" y="1430.0"/>
      <point x="31.0" y="1379.0"/>
      <point x="31.0" y="1295.0" type="curve" smooth="yes"/>
      <point x="31.0" y="1219.0"/>
      <point x="89.0" y="1174.0"/>
      <point x="158.0" y="1174.0" type="curve" smooth="yes"/>
      <point x="164.0" y="1174.0"/>
      <point x="169.0" y="1174.0"/>
      <point x="176.0" y="1177.0" type="curve"/>
      <point x="176.0" y="1056.0"/>
      <point x="120.0" y="984.0"/>
      <point x="10.0" y="919.0" type="curve"/>
    </contour>
  </outline>
</glyph>
<glyph name="fourthtonechinese" format="2">
  <advance width="423.0"/>
  <unicode hex="02CB"/>
  <outline>
    <contour>
      <point x="250.0" y="1175.0" type="line"/>
      <point x="413.0" y="1175.0" type="line"/>
      <point x="230.0" y="1470.0" type="line"/>
      <point x="10.0" y="1470.0" type="line"/>
    </contour>
  </outline>
</glyph>
<glyph name="breve" format="2">
  <advance width="1120.0"/>
  <unicode hex="02D8"/>
  <outline>
    <contour>
      <point x="560.0" y="1177.0" type="curve" smooth="yes"/>
      <point x="742.0" y="1177.0"/>
      <point x="821.0" y="1315.0"/>
      <point x="829.0" y="1446.0" type="curve"/>
      <point x="700.0" y="1446.0" type="line"/>
      <point x="690.0" y="1372.0"/>
      <point x="647.0" y="1305.0"/>
      <point x="560.0" y="1305.0" type="curve" smooth="yes"/>
      <point x="473.0" y="1305.0"/>
      <point x="431.0" y="1372.0"/>
      <point x="420.0" y="1446.0" type="curve"/>
      <point x="292.0" y="1446.0" type="line"/>
      <point x="299.0" y="1315.0"/>
      <point x="378.0" y="1177.0"/>
    </contour>
  </outline>
</glyph>
<glyph name="ring" format="2">
  <advance width="1120.0"/>
  <unicode hex="02DA"/>
  <outline>
    <contour>
      <point x="560.0" y="1115.0" type="curve" smooth="yes"/>
      <point x="682.0" y="1115.0"/>
      <point x="767.0" y="1193.0"/>
      <point x="767.0" y="1312.0" type="curve" smooth="yes"/>
      <point x="767.0" y="1430.0"/>
      <point x="682.0" y="1508.0"/>
      <point x="560.0" y="1508.0" type="curve" smooth="yes"/>
      <point x="439.0" y="1508.0"/>
      <point x="355.0" y="1430.0"/>
      <point x="355.0" y="1312.0" type="curve" smooth="yes"/>
      <point x="355.0" y="1193.0"/>
      <point x="439.0" y="1115.0"/>
    </contour>
    <contour>
      <point x="560.0" y="1205.0" type="curve" smooth="yes"/>
      <point x="508.0" y="1205.0"/>
      <point x="468.0" y="1247.0"/>
      <point x="468.0" y="1312.0" type="curve" smooth="yes"/>
      <point x="468.0" y="1376.0"/>
      <point x="508.0" y="1418.0"/>
      <point x="560.0" y="1418.0" type="curve" smooth="yes"/>
      <point x="612.0" y="1418.0"/>
      <point x="652.0" y="1376.0"/>
      <point x="652.0" y="1312.0" type="curve" smooth="yes"/>
      <point x="652.0" y="1247.0"/>
      <point x="612.0" y="1205.0"/>
    </contour>
  </outline>
</glyph>
<glyph name="tilde" format="2">
  <advance width="1120.0"/>
  <unicode hex="02DC"/>
  <outline>
    <contour>
      <point x="254.0" y="1183.0" type="curve"/>
      <point x="373.0" y="1183.0" type="line"/>
      <point x="382.0" y="1253.0"/>
      <point x="403.0" y="1284.0"/>
      <point x="442.0" y="1284.0" type="curve" smooth="yes"/>
      <point x="508.0" y="1284.0"/>
      <point x="584.0" y="1184.0"/>
      <point x="689.0" y="1184.0" type="curve" smooth="yes"/>
      <point x="792.0" y="1184.0"/>
      <point x="856.0" y="1276.0"/>
      <point x="866.0" y="1422.0" type="curve"/>
      <point x="748.0" y="1422.0" type="line"/>
      <point x="739.0" y="1354.0"/>
      <point x="717.0" y="1323.0"/>
      <point x="678.0" y="1323.0" type="curve" smooth="yes"/>
      <point x="614.0" y="1323.0"/>
      <point x="539.0" y="1421.0"/>
      <point x="433.0" y="1421.0" type="curve" smooth="yes"/>
      <point x="331.0" y="1421.0"/>
      <point x="263.0" y="1330.0"/>
    </contour>
  </outline>
</glyph>
<glyph name="l.sups" format="2">
  <advance width="372.0"/>
  <unicode hex="02E1"/>
  <outline>
    <contour>
      <point x="256.0" y="516.0" type="curve" smooth="yes"/>
      <point x="295.0" y="516.0"/>
      <point x="320.0" y="523.0"/>
      <point x="340.0" y="531.0" type="curve"/>
      <point x="320.0" y="649.0" type="line"/>
      <point x="308.0" y="645.0"/>
      <point x="300.0" y="645.0"/>
      <point x="292.0" y="645.0" type="curve" smooth="yes"/>
      <point x="272.0" y="645.0"/>
      <point x="258.0" y="660.0"/>
      <point x="258.0" y="699.0" type="curve" smooth="yes"/>
      <point x="258.0" y="1488.0" type="line"/>
      <point x="98.0" y="1488.0" type="line"/>
      <point x="98.0" y="709.0" type="line"/>
      <point x="98.0" y="591.0"/>
      <point x="138.0" y="516.0"/>
    </contour>
  </outline>
</glyph>
<glyph name="gravecomb" format="2">
  <unicode hex="0300"/>
  <anchor x="308.0" y="1003.0" name="_top"/>
  <anchor x="211.5" y="1470.0" name="top"/>
  <outline>
    <contour>
      <point x="250.0" y="1175.0" type="line"/>
      <point x="413.0" y="1175.0" type="line"/>
      <point x="230.0" y="1470.0" type="line"/>
      <point x="10.0" y="1470.0" type="line"/>
    </contour>
  </outline>
</glyph>
<glyph name="horncomb" format="2">
  <unicode hex="031B"/>
  <anchor x="-10.0" y="1003.0" name="_topright"/>
  <anchor x="364.0" y="1275.0" name="topright"/>
  <outline>
    <contour>
      <point x="29.0" y="885.0" type="line"/>
      <point x="205.0" y="899.0"/>
      <point x="344.0" y="970.0"/>
      <point x="344.0" y="1130.0" type="curve" smooth="yes"/>
      <point x="344.0" y="1188.0"/>
      <point x="320.0" y="1238.0"/>
      <point x="292.0" y="1275.0" type="curve"/>
      <point x="138.0" y="1204.0" type="line"/>
      <point x="154.0" y="1179.0"/>
      <point x="169.0" y="1148.0"/>
      <point x="169.0" y="1115.0" type="curve" smooth="yes"/>
      <point x="169.0" y="1031.0"/>
      <point x="112.0" y="998.0"/>
      <point x="10.0" y="983.0" type="curve"/>
    </contour>
  </outline>
</glyph>
<glyph name="commaaccentcomb" format="2">
  <unicode hex="0326"/>
  <anchor x="182.5" y="0.0" name="_bottom"/>
  <anchor x="182.5" y="-444.0" name="bottom"/>
  <outline>
    <contour>
      <point x="30.0" y="-444.0" type="line"/>
      <point x="201.0" y="-433.0"/>
      <point x="355.0" y="-375.0"/>
      <point x="355.0" y="-247.0" type="curve" smooth="yes"/>
      <point x="355.0" y="-150.0"/>
      <point x="294.0" y="-102.0"/>
      <point x="135.0" y="-83.0" type="curve"/>
      <point x="89.0" y="-175.0" type="line"/>
      <point x="149.0" y="-190.0"/>
      <point x="186.0" y="-212.0"/>
      <point x="186.0" y="-259.0" type="curve" smooth="yes"/>
      <point x="186.0" y="-309.0"/>
      <point x="113.0" y="-332.0"/>
      <point x="10.0" y="-345.0" type="curve"/>
    </contour>
  </outline>
</glyph>
<glyph name="brevebelowcomb" format="2">
  <unicode hex="032E"/>
  <anchor x="278.0" y="0.0" name="_bottom"/>
  <anchor x="278.0" y="-425.0" name="bottom"/>
  <outline>
    <contour>
      <point x="278.0" y="-425.0" type="curve" smooth="yes"/>
      <point x="459.0" y="-425.0"/>
      <point x="539.0" y="-288.0"/>
      <point x="546.0" y="-156.0" type="curve"/>
      <point x="418.0" y="-156.0" type="line"/>
      <point x="408.0" y="-231.0"/>
      <point x="365.0" y="-298.0"/>
      <point x="278.0" y="-298.0" type="curve" smooth="yes"/>
      <point x="191.0" y="-298.0"/>
      <point x="148.0" y="-231.0"/>
      <point x="138.0" y="-156.0" type="curve"/>
      <point x="10.0" y="-156.0" type="line"/>
      <point x="17.0" y="-288.0"/>
      <point x="97.0" y="-425.0"/>
    </contour>
  </outline>
</glyph>
<glyph name="anusvara-deva" format="2">
  <unicode hex="0902"/>
  <anchor x="273.0" y="1287.0" name="_top"/>
  <outline>
    <contour>
      <point x="273.0" y="1446.0" type="curve" smooth="yes"/>
      <point x="355.0" y="1446.0"/>
      <point x="390.0" y="1480.0"/>
      <point x="390.0" y="1561.0" type="curve" smooth="yes"/>
      <point x="390.0" y="1643.0"/>
      <point x="355.0" y="1677.0"/>
      <point x="273.0" y="1677.0" type="curve" smooth="yes"/>
      <point x="191.0" y="1677.0"/>
      <point x="156.0" y="1643.0"/>
      <point x="156.0" y="1561.0" type="curve" smooth="yes"/>
      <point x="156.0" y="1480.0"/>
      <point x="191.0" y="1446.0"/>
    </contour>
  </outline>
</glyph>
<glyph name="a-deva" format="2">
  <advance width="1398.0"/>
  <unicode hex="0905"/>
  <anchor x="1117.0" y="0.0" name="bottom"/>
  <anchor x="942.0" y="1287.0" name="candra"/>
  <anchor x="1154.0" y="1287.0" name="top"/>
  <outline>
    <contour>
      <point x="407.0" y="128.0" type="curve" smooth="yes"/>
      <point x="614.0" y="128.0"/>
      <point x="780.0" y="259.0"/>
      <point x="780.0" y="457.0" type="curve" smooth="yes"/>
      <point x="780.0" y="657.0"/>
      <point x="633.0" y="767.0"/>
      <point x="393.0" y="777.0" type="curve"/>
      <point x="278.0" y="740.0" type="line"/>
      <point x="498.0" y="674.0"/>
      <point x="570.0" y="611.0"/>
      <point x="570.0" y="479.0" type="curve" smooth="yes"/>
      <point x="570.0" y="381.0"/>
      <point x="503.0" y="316.0"/>
      <point x="391.0" y="316.0" type="curve" smooth="yes"/>
      <point x="309.0" y="316.0"/>
      <point x="214.0" y="343.0"/>
      <point x="96.0" y="436.0" type="curve"/>
      <point x="-3.0" y="303.0" type="line"/>
      <point x="134.0" y="180.0"/>
      <point x="262.0" y="128.0"/>
    </contour>
    <contour>
      <point x="248.0" y="638.0" type="line"/>
      <point x="324.0" y="635.0"/>
      <point x="445.0" y="642.0"/>
      <point x="550.0" y="711.0" type="curve" smooth="yes"/>
      <point x="663.0" y="781.0"/>
      <point x="728.0" y="865.0"/>
      <point x="728.0" y="1018.0" type="curve" smooth="yes"/>
      <point x="728.0" y="1200.0"/>
      <point x="598.0" y="1306.0"/>
      <point x="399.0" y="1306.0" type="curve" smooth="yes"/>
      <point x="289.0" y="1306.0"/>
      <point x="200.0" y="1280.0"/>
      <point x="99.0" y="1239.0" type="curve"/>
      <point x="158.0" y="1074.0" type="line"/>
      <point x="261.0" y="1114.0"/>
      <point x="331.0" y="1128.0"/>
      <point x="390.0" y="1128.0" type="curve" smooth="yes"/>
      <point x="482.0" y="1128.0"/>
      <point x="536.0" y="1090.0"/>
      <point x="536.0" y="1004.0" type="curve" smooth="yes"/>
      <point x="536.0" y="905.0"/>
      <point x="480.0" y="840.0"/>
      <point x="304.0" y="819.0" type="curve" smooth="yes"/>
      <point x="279.0" y="815.0"/>
      <point x="265.0" y="813.0"/>
      <point x="235.0" y="811.0" type="curve"/>
    </contour>
    <contour>
      <point x="705.0" y="526.0" type="line"/>
      <point x="817.0" y="502.0"/>
      <point x="1006.0" y="529.0"/>
      <point x="1113.0" y="613.0" type="curve"/>
      <point x="1112.0" y="822.0" type="line"/>
      <point x="929.0" y="684.0"/>
      <point x="793.0" y="670.0"/>
      <point x="622.0" y="688.0" type="curve"/>
    </contour>
    <contour>
      <point x="1011.0" y="1.0" type="line"/>
      <point x="1223.0" y="1.0" type="line"/>
      <point x="1223.0" y="1216.0" type="line"/>
      <point x="1011.0" y="1216.0" type="line"/>
    </contour>
    <contour>
      <point x="851.0" y="1104.0" type="line"/>
      <point x="1417.0" y="1104.0" type="line"/>
      <point x="1417.0" y="1287.0" type="line"/>
      <point x="851.0" y="1287.0" type="line"/>
    </contour>
  </outline>
</glyph>
<glyph name="i-deva" format="2">
  <advance width="1060.0"/>
  <unicode hex="0907"/>
  <anchor x="622.0" y="1287.0" name="candra"/>
  <anchor x="761.0" y="1287.0" name="top"/>
  <outline>
    <contour>
      <point x="564.0" y="-24.0" type="curve"/>
      <point x="826.0" y="-24.0"/>
      <point x="995.0" y="100.0"/>
      <point x="995.0" y="335.0" type="curve" smooth="yes"/>
      <point x="995.0" y="564.0"/>
      <point x="837.0" y="599.0"/>
      <point x="672.0" y="599.0" type="curve" smooth="yes"/>
      <point x="547.0" y="599.0"/>
      <point x="356.0" y="578.0"/>
      <point x="295.0" y="565.0" type="curve"/>
      <point x="318.0" y="558.0" type="line"/>
      <point x="306.0" y="582.0"/>
      <point x="289.0" y="632.0"/>
      <point x="289.0" y="685.0" type="curve" smooth="yes"/>
      <point x="289.0" y="758.0"/>
      <point x="320.0" y="785.0"/>
      <point x="439.0" y="785.0" type="curve" smooth="yes"/>
      <point x="786.0" y="785.0" type="line"/>
      <point x="762.0" y="972.0" type="line"/>
      <point x="402.0" y="972.0" type="line" smooth="yes"/>
      <point x="180.0" y="972.0"/>
      <point x="102.0" y="886.0"/>
      <point x="102.0" y="742.0" type="curve" smooth="yes"/>
      <point x="102.0" y="612.0"/>
      <point x="163.0" y="461.0"/>
      <point x="234.0" y="406.0" type="curve" smooth="yes"/>
      <point x="270.0" y="378.0"/>
      <point x="292.0" y="379.0"/>
      <point x="322.0" y="382.0" type="curve" smooth="yes"/>
      <point x="386.0" y="388.0"/>
      <point x="576.0" y="409.0"/>
      <point x="661.0" y="409.0" type="curve" smooth="yes"/>
      <point x="775.0" y="409.0"/>
      <point x="801.0" y="374.0"/>
      <point x="800.0" y="312.0" type="curve" smooth="yes"/>
      <point x="799.0" y="236.0"/>
      <point x="757.0" y="160.0"/>
      <point x="552.0" y="160.0" type="curve" smooth="yes"/>
      <point x="475.0" y="160.0"/>
      <point x="389.0" y="169.0"/>
      <point x="259.0" y="224.0" type="curve"/>
      <point x="380.0" y="123.0" type="line"/>
      <point x="276.0" y="319.0" type="line"/>
      <point x="101.0" y="291.0" type="line"/>
      <point x="96.0" y="261.0"/>
      <point x="93.0" y="225.0"/>
      <point x="93.0" y="204.0" type="curve" smooth="yes"/>
      <point x="93.0" y="64.0"/>
      <point x="213.0" y="19.0"/>
      <point x="345.0" y="-17.0" type="curve"/>
      <point x="358.0" y="15.0" type="line"/>
      <point x="426.0" y="-11.0"/>
      <point x="491.0" y="-24.0"/>
    </contour>
    <contour>
      <point x="463.0" y="-322.0" type="line"/>
      <point x="632.0" y="-228.0" type="line"/>
      <point x="341.0" y="166.0" type="line"/>
      <point x="216.0" y="157.0" type="line"/>
    </contour>
    <contour>
      <point x="-19.0" y="1104.0" type="line"/>
      <point x="1079.0" y="1104.0" type="line"/>
      <point x="1079.0" y="1287.0" type="line"/>
      <point x="-19.0" y="1287.0" type="line"/>
    </contour>
    <contour>
      <point x="656.0" y="785.0" type="line"/>
      <point x="863.0" y="785.0" type="line"/>
      <point x="863.0" y="1211.0" type="line"/>
      <point x="656.0" y="1211.0" type="line"/>
    </contour>
  </outline>
</glyph>
<glyph name="u-deva" format="2">
  <advance width="877.0"/>
  <unicode hex="0909"/>
  <anchor x="466.0" y="69.0" name="bottom"/>
  <anchor x="480.0" y="1287.0" name="candra"/>
  <anchor x="476.0" y="1166.0" name="top"/>
  <outline>
    <contour>
      <point x="423.0" y="8.0" type="curve" smooth="yes"/>
      <point x="644.0" y="8.0"/>
      <point x="816.0" y="145.0"/>
      <point x="816.0" y="363.0" type="curve" smooth="yes"/>
      <point x="816.0" y="567.0"/>
      <point x="662.0" y="676.0"/>
      <point x="408.0" y="696.0" type="curve"/>
      <point x="292.0" y="655.0" type="line"/>
      <point x="504.0" y="595.0"/>
      <point x="606.0" y="527.0"/>
      <point x="606.0" y="375.0" type="curve" smooth="yes"/>
      <point x="606.0" y="271.0"/>
      <point x="536.0" y="193.0"/>
      <point x="410.0" y="193.0" type="curve" smooth="yes"/>
      <point x="298.0" y="193.0"/>
      <point x="196.0" y="239.0"/>
      <point x="108.0" y="308.0" type="curve"/>
      <point x="15.0" y="179.0" type="line"/>
      <point x="115.0" y="73.0"/>
      <point x="263.0" y="8.0"/>
    </contour>
    <contour>
      <point x="271.0" y="566.0" type="line"/>
      <point x="360.0" y="565.0"/>
      <point x="477.0" y="577.0"/>
      <point x="577.0" y="643.0" type="curve" smooth="yes"/>
      <point x="696.0" y="718.0"/>
      <point x="765.0" y="807.0"/>
      <point x="765.0" y="955.0" type="curve" smooth="yes"/>
      <point x="765.0" y="1171.0"/>
      <point x="522.0" y="1216.0"/>
      <point x="392.0" y="1203.0" type="curve"/>
      <point x="398.0" y="1114.0" type="line"/>
      <point x="471.0" y="1114.0"/>
      <point x="566.0" y="1065.0"/>
      <point x="566.0" y="950.0" type="curve" smooth="yes"/>
      <point x="566.0" y="846.0"/>
      <point x="503.0" y="768.0"/>
      <point x="316.0" y="745.0" type="curve" smooth="yes"/>
      <point x="295.0" y="742.0"/>
      <point x="281.0" y="740.0"/>
      <point x="249.0" y="738.0" type="curve"/>
    </contour>
    <contour>
      <point x="-19.0" y="1104.0" type="line"/>
      <point x="896.0" y="1104.0" type="line"/>
      <point x="896.0" y="1287.0" type="line"/>
      <point x="-19.0" y="1287.0" type="line"/>
    </contour>
  </outline>
</glyph>
<glyph name="lVocalic-deva" format="2">
  <advance width="1254.0"/>
  <unicode hex="090C"/>
  <anchor x="745.0" y="-80.0" name="bottom"/>
  <anchor x="642.0" y="1287.0" name="candra"/>
  <anchor x="943.0" y="1287.0" name="top"/>
  <outline>
    <contour>
      <point x="1004.0" y="-202.0" type="curve" smooth="yes"/>
      <point x="1112.0" y="-202.0"/>
      <point x="1215.09" y="-164.909"/>
      <point x="1293.0" y="-107.0" type="curve"/>
      <point x="1226.0" y="33.0" type="line"/>
      <point x="1161.0" y="-8.0"/>
      <point x="1087.91" y="-39.0"/>
      <point x="1020.0" y="-39.0" type="curve" smooth="yes"/>
      <point x="943.091" y="-39.0"/>
      <point x="916.0" y="2.0"/>
      <point x="916.0" y="47.0" type="curve" smooth="yes"/>
      <point x="916.0" y="111.0"/>
      <point x="982.0" y="170.0"/>
      <point x="1112.09" y="218.0" type="curve"/>
      <point x="1169.0" y="333.0"/>
      <point x="1200.0" y="447.0"/>
      <point x="1199.91" y="557.909" type="curve" smooth="yes"/>
      <point x="1200.0" y="792.0"/>
      <point x="1085.0" y="943.0"/>
      <point x="871.0" y="943.0" type="curve" smooth="yes"/>
      <point x="648.0" y="943.0"/>
      <point x="539.0" y="775.0"/>
      <point x="539.0" y="574.0" type="curve" smooth="yes"/>
      <point x="539.0" y="529.0"/>
      <point x="544.0" y="485.0"/>
      <point x="559.0" y="446.0" type="curve"/>
      <point x="740.0" y="465.0" type="line"/>
      <point x="735.0" y="497.0"/>
      <point x="732.0" y="527.0"/>
      <point x="732.0" y="557.0" type="curve" smooth="yes"/>
      <point x="732.0" y="668.0"/>
      <point x="781.0" y="751.0"/>
      <point x="880.0" y="751.0" type="curve" smooth="yes"/>
      <point x="965.0" y="751.0"/>
      <point x="1003.0" y="667.0"/>
      <point x="1003.0" y="563.0" type="curve" smooth="yes"/>
      <point x="1003.0" y="476.0"/>
      <point x="991.0" y="404.0"/>
      <point x="929.0" y="274.0" type="curve"/>
      <point x="968.0" y="329.0" type="line"/>
      <point x="794.0" y="256.0"/>
      <point x="727.0" y="153.0"/>
      <point x="727.0" y="49.0" type="curve"/>
      <point x="727.0" y="-86.0"/>
      <point x="839.0" y="-202.0"/>
    </contour>
    <contour>
      <point x="308.0" y="24.0" type="curve"/>
      <point x="456.0" y="151.0" type="line"/>
      <point x="345.0" y="293.0"/>
      <point x="260.0" y="423.0"/>
      <point x="260.0" y="567.0" type="curve" smooth="yes"/>
      <point x="260.0" y="707.0"/>
      <point x="328.909" y="745.909"/>
      <point x="390.0" y="746.0" type="curve" smooth="yes"/>
      <point x="495.0" y="746.0"/>
      <point x="565.909" y="658.909"/>
      <point x="643.091" y="535.909" type="curve"/>
      <point x="662.0" y="671.0" type="line"/>
      <point x="590.0" y="860.0"/>
      <point x="487.0" y="940.0"/>
      <point x="340.0" y="940.0" type="curve" smooth="yes"/>
      <point x="167.0" y="940.0"/>
      <point x="53.909" y="815.091"/>
      <point x="54.0" y="597.0" type="curve" smooth="yes"/>
      <point x="54.0" y="334.0"/>
      <point x="214.0" y="132.0"/>
    </contour>
    <contour>
      <point x="-19.0" y="1104.0" type="line"/>
      <point x="1273.0" y="1104.0" type="line"/>
      <point x="1273.0" y="1287.0" type="line"/>
      <point x="-19.0" y="1287.0" type="line"/>
    </contour>
    <contour>
      <point x="838.0" y="828.0" type="line"/>
      <point x="1048.0" y="828.0" type="line"/>
      <point x="1047.91" y="1163.0" type="line"/>
      <point x="838.0" y="1163.0" type="line"/>
    </contour>
  </outline>
</glyph>
<glyph name="e-deva" format="2">
  <advance width="1059.0"/>
  <unicode hex="090F"/>
  <anchor x="582.0" y="54.0" name="bottom"/>
  <anchor x="542.0" y="1287.0" name="candra"/>
  <anchor x="830.0" y="1287.0" name="top"/>
  <outline>
    <contour>
      <point x="658.0" y="-222.0" type="line"/>
      <point x="757.0" y="-146.0"/>
      <point x="798.0" y="-55.0"/>
      <point x="800.0" y="27.909" type="curve" smooth="yes"/>
      <point x="802.0" y="114.0"/>
      <point x="761.0" y="200.0"/>
      <point x="674.0" y="278.0" type="curve" smooth="yes"/>
      <point x="458.0" y="476.0" type="line" smooth="yes"/>
      <point x="341.0" y="583.0"/>
      <point x="331.0" y="637.0"/>
      <point x="331.0" y="717.0" type="curve" smooth="yes"/>
      <point x="331.0" y="1142.0" type="line"/>
      <point x="123.0" y="1142.0" type="line"/>
      <point x="123.0" y="717.0" type="line" smooth="yes"/>
      <point x="123.0" y="537.0"/>
      <point x="169.0" y="476.0"/>
      <point x="289.0" y="364.0" type="curve" smooth="yes"/>
      <point x="517.0" y="153.0" type="line"/>
      <point x="569.0" y="107.0"/>
      <point x="590.0" y="60.0"/>
      <point x="589.0" y="15.0" type="curve" smooth="yes"/>
      <point x="588.0" y="-34.0"/>
      <point x="560.0" y="-67.0"/>
      <point x="523.0" y="-107.0" type="curve"/>
    </contour>
    <contour>
      <point x="704.0" y="402.0" type="line"/>
      <point x="881.0" y="495.0"/>
      <point x="942.0" y="609.0"/>
      <point x="942.0" y="760.0" type="curve" smooth="yes"/>
      <point x="942.0" y="1208.0" type="line"/>
      <point x="731.0" y="1208.0" type="line"/>
      <point x="731.0" y="750.0" type="line" smooth="yes"/>
      <point x="731.0" y="667.0"/>
      <point x="698.0" y="621.0"/>
      <point x="587.0" y="563.0" type="curve"/>
    </contour>
    <contour>
      <point x="-20.0" y="1105.0" type="line"/>
      <point x="1077.0" y="1105.0" type="line"/>
      <point x="1077.0" y="1287.0" type="line"/>
      <point x="-20.0" y="1287.0" type="line"/>
    </contour>
  </outline>
</glyph>
<glyph name="kha-deva" format="2">
  <advance width="1622.0"/>
  <unicode hex="0916"/>
  <anchor x="1342.0" y="0.0" name="bottom"/>
  <anchor x="1222.0" y="1287.0" name="candra"/>
  <anchor x="106.0" y="52.0" name="nukta"/>
  <anchor x="1342.0" y="1287.0" name="top"/>
  <outline>
    <contour>
      <point x="778.0" y="-59.0" type="curve" smooth="yes"/>
      <point x="833.0" y="-59.0"/>
      <point x="919.0" y="-53.0"/>
      <point x="986.0" y="-29.0" type="curve"/>
      <point x="950.0" y="145.0" type="line"/>
      <point x="889.0" y="131.0"/>
      <point x="819.0" y="124.0"/>
      <point x="769.0" y="124.0" type="curve" smooth="yes"/>
      <point x="597.0" y="124.0"/>
      <point x="431.0" y="234.0"/>
      <point x="292.0" y="575.0" type="curve"/>
      <point x="273.0" y="540.0" type="line"/>
      <point x="289.0" y="533.0"/>
      <point x="317.0" y="519.0"/>
      <point x="360.0" y="519.0" type="curve" smooth="yes"/>
      <point x="443.0" y="519.0"/>
      <point x="563.0" y="563.0"/>
      <point x="563.0" y="785.0" type="curve" smooth="yes"/>
      <point x="563.0" y="1166.0" type="line"/>
      <point x="353.0" y="1166.0" type="line"/>
      <point x="353.0" y="800.0" type="line" smooth="yes"/>
      <point x="353.0" y="726.0"/>
      <point x="331.0" y="689.0"/>
      <point x="281.0" y="689.0" type="curve" smooth="yes"/>
      <point x="249.0" y="689.0"/>
      <point x="219.0" y="701.0"/>
      <point x="180.0" y="733.0" type="curve"/>
      <point x="52.0" y="644.0" type="line"/>
      <point x="278.0" y="110.0"/>
      <point x="488.0" y="-59.0"/>
    </contour>
    <contour>
      <point x="965.0" y="269.0" type="curve" smooth="yes"/>
      <point x="1114.0" y="269.0"/>
      <point x="1247.0" y="333.0"/>
      <point x="1320.0" y="450.0" type="curve"/>
      <point x="1277.0" y="600.0" type="line"/>
      <point x="1202.0" y="502.0"/>
      <point x="1106.0" y="447.0"/>
      <point x="997.0" y="447.0" type="curve" smooth="yes"/>
      <point x="909.0" y="447.0"/>
      <point x="858.0" y="484.0"/>
      <point x="858.0" y="598.0" type="curve" smooth="yes"/>
      <point x="858.0" y="708.0"/>
      <point x="912.0" y="755.0"/>
      <point x="1029.0" y="759.0" type="curve" smooth="yes"/>
      <point x="1106.0" y="761.0"/>
      <point x="1219.0" y="744.0"/>
      <point x="1323.0" y="721.0" type="curve"/>
      <point x="1318.0" y="833.0" type="line"/>
      <point x="1259.0" y="897.0"/>
      <point x="1141.0" y="941.0"/>
      <point x="993.0" y="941.0" type="curve" smooth="yes"/>
      <point x="781.0" y="941.0"/>
      <point x="647.0" y="829.0"/>
      <point x="647.0" y="602.0" type="curve" smooth="yes"/>
      <point x="647.0" y="445.0"/>
      <point x="719.0" y="269.0"/>
    </contour>
    <contour>
      <point x="1237.0" y="0.0" type="line"/>
      <point x="1447.0" y="0.0" type="line"/>
      <point x="1447.0" y="1176.0" type="line"/>
      <point x="1237.0" y="1176.0" type="line"/>
    </contour>
    <contour>
      <point x="-19.0" y="1104.0" type="line"/>
      <point x="1641.0" y="1104.0" type="line"/>
      <point x="1641.0" y="1287.0" type="line"/>
      <point x="-19.0" y="1287.0" type="line"/>
    </contour>
  </outline>
</glyph>
<glyph name="gha-deva" format="2">
  <advance width="1187.0"/>
  <unicode hex="0918"/>
  <anchor x="909.0" y="0.0" name="bottom"/>
  <anchor x="808.0" y="1287.0" name="candra"/>
  <anchor x="201.0" y="82.0" name="nukta"/>
  <anchor x="910.0" y="1287.0" name="top"/>
  <outline>
    <contour>
      <point x="477.0" y="212.0" type="curve" smooth="yes"/>
      <point x="676.0" y="212.0"/>
      <point x="827.0" y="289.0"/>
      <point x="918.0" y="393.0" type="curve"/>
      <point x="888.0" y="603.0" type="line"/>
      <point x="803.0" y="479.0"/>
      <point x="651.0" y="393.0"/>
      <point x="493.0" y="393.0" type="curve" smooth="yes"/>
      <point x="383.0" y="393.0"/>
      <point x="331.0" y="431.0"/>
      <point x="331.0" y="528.0" type="curve" smooth="yes"/>
      <point x="331.0" y="630.0"/>
      <point x="407.0" y="660.0"/>
      <point x="565.0" y="674.0" type="curve"/>
      <point x="557.0" y="843.0" type="line"/>
      <point x="221.0" y="840.0"/>
      <point x="117.0" y="688.0"/>
      <point x="117.0" y="526.0" type="curve" smooth="yes"/>
      <point x="117.0" y="337.0"/>
      <point x="244.0" y="212.0"/>
    </contour>
    <contour>
      <point x="369.0" y="681.0" type="curve"/>
      <point x="467.0" y="758.0" type="line"/>
      <point x="390.0" y="798.0"/>
      <point x="281.0" y="846.0"/>
      <point x="281.0" y="969.0" type="curve" smooth="yes"/>
      <point x="281.0" y="1077.0"/>
      <point x="360.0" y="1095.0"/>
      <point x="483.0" y="1106.0" type="curve"/>
      <point x="500.0" y="1237.0" type="line"/>
      <point x="306.0" y="1227.0"/>
      <point x="69.0" y="1192.0"/>
      <point x="69.0" y="983.0" type="curve" smooth="yes"/>
      <point x="69.0" y="864.0"/>
      <point x="143.0" y="777.0"/>
    </contour>
    <contour>
      <point x="802.0" y="0.0" type="line"/>
      <point x="1012.0" y="0.0" type="line"/>
      <point x="1012.0" y="1199.0" type="line"/>
      <point x="802.0" y="1199.0" type="line"/>
    </contour>
    <contour>
      <point x="-19.0" y="1104.0" type="line"/>
      <point x="1206.0" y="1104.0" type="line"/>
      <point x="1206.0" y="1287.0" type="line"/>
      <point x="-19.0" y="1287.0" type="line"/>
    </contour>
  </outline>
</glyph>
<glyph name="cha-deva" format="2">
  <advance width="1351.0"/>
  <unicode hex="091B"/>
  <anchor x="650.0" y="0.0" name="bottom"/>
  <anchor x="948.0" y="1287.0" name="candra"/>
  <anchor x="663.0" y="-186.0" name="nukta"/>
  <anchor x="968.0" y="1287.0" name="top"/>
  <outline>
    <contour>
      <point x="575.0" y="56.0" type="curve" smooth="yes"/>
      <point x="968.0" y="56.0"/>
      <point x="1285.0" y="287.0"/>
      <point x="1285.0" y="630.0" type="curve" smooth="yes"/>
      <point x="1285.0" y="836.0"/>
      <point x="1164.0" y="942.0"/>
      <point x="969.0" y="942.0" type="curve" smooth="yes"/>
      <point x="772.0" y="942.0"/>
      <point x="686.0" y="840.0"/>
      <point x="687.0" y="698.0" type="curve" smooth="yes"/>
      <point x="687.0" y="593.0"/>
      <point x="744.0" y="508.0"/>
      <point x="823.0" y="455.0" type="curve"/>
      <point x="932.0" y="548.0" type="line"/>
      <point x="894.0" y="594.0"/>
      <point x="878.0" y="631.0"/>
      <point x="878.0" y="672.0" type="curve" smooth="yes"/>
      <point x="878.0" y="735.0"/>
      <point x="913.0" y="779.0"/>
      <point x="975.0" y="779.0" type="curve" smooth="yes"/>
      <point x="1054.0" y="779.0"/>
      <point x="1093.0" y="729.0"/>
      <point x="1093.0" y="627.0" type="curve" smooth="yes"/>
      <point x="1094.0" y="403.0"/>
      <point x="871.0" y="244.0"/>
      <point x="570.0" y="244.0" type="curve" smooth="yes"/>
      <point x="353.0" y="244.0"/>
      <point x="299.0" y="321.0"/>
      <point x="299.0" y="418.0" type="curve" smooth="yes"/>
      <point x="299.0" y="555.0"/>
      <point x="416.0" y="585.0"/>
      <point x="566.0" y="589.0" type="curve"/>
      <point x="563.0" y="763.0" type="line"/>
      <point x="546.0" y="764.0"/>
      <point x="528.0" y="764.0"/>
      <point x="514.0" y="764.0" type="curve" smooth="yes"/>
      <point x="313.0" y="763.0"/>
      <point x="84.0" y="668.0"/>
      <point x="84.0" y="433.0" type="curve" smooth="yes"/>
      <point x="84.0" y="200.0"/>
      <point x="263.0" y="56.0"/>
    </contour>
    <contour>
      <point x="374.0" y="636.0" type="curve"/>
      <point x="489.0" y="685.0" type="line"/>
      <point x="330.0" y="770.0"/>
      <point x="302.0" y="830.0"/>
      <point x="302.0" y="917.0" type="curve" smooth="yes"/>
      <point x="302.0" y="1019.0"/>
      <point x="378.0" y="1095.0"/>
      <point x="521.0" y="1105.0" type="curve"/>
      <point x="546.0" y="1205.0" type="line"/>
      <point x="228.0" y="1175.0"/>
      <point x="79.0" y="1113.0"/>
      <point x="83.0" y="915.0" type="curve" smooth="yes"/>
      <point x="88.0" y="781.0"/>
      <point x="194.0" y="710.0"/>
    </contour>
    <contour>
      <point x="-19.0" y="1104.0" type="line"/>
      <point x="1370.0" y="1104.0" type="line"/>
      <point x="1370.0" y="1287.0" type="line"/>
      <point x="-19.0" y="1287.0" type="line"/>
    </contour>
    <contour>
      <point x="866.0" y="848.0" type="line"/>
      <point x="1071.0" y="848.0" type="line"/>
      <point x="1071.0" y="1218.0" type="line"/>
      <point x="866.0" y="1218.0" type="line"/>
    </contour>
  </outline>
</glyph>
<glyph name="ja-deva" format="2">
  <advance width="1422.0"/>
  <unicode hex="091C"/>
  <anchor x="1147.0" y="0.0" name="bottom"/>
  <anchor x="1027.0" y="1287.0" name="candra"/>
  <anchor x="133.0" y="90.0" name="nukta"/>
  <anchor x="1144.0" y="1287.0" name="top"/>
  <outline>
    <contour>
      <point x="526.0" y="167.0" type="curve" smooth="yes"/>
      <point x="729.0" y="167.0"/>
      <point x="868.0" y="282.0"/>
      <point x="868.0" y="465.0" type="curve" smooth="yes"/>
      <point x="868.0" y="607.0"/>
      <point x="802.0" y="678.0"/>
      <point x="659.0" y="752.0" type="curve"/>
      <point x="571.0" y="878.0" type="line"/>
      <point x="503.0" y="731.0" type="line"/>
      <point x="619.0" y="678.0"/>
      <point x="663.0" y="603.0"/>
      <point x="663.0" y="515.0" type="curve" smooth="yes"/>
      <point x="663.0" y="422.0"/>
      <point x="611.0" y="365.0"/>
      <point x="511.0" y="364.0" type="curve" smooth="yes"/>
      <point x="267.0" y="362.0"/>
      <point x="234.0" y="701.0"/>
      <point x="210.0" y="875.0" type="curve"/>
      <point x="45.0" y="852.0" type="line"/>
      <point x="64.0" y="460.0"/>
      <point x="183.0" y="167.0"/>
    </contour>
    <contour>
      <point x="647.0" y="691.0" type="line"/>
      <point x="1168.0" y="691.0" type="line"/>
      <point x="1168.0" y="878.0" type="line"/>
      <point x="571.0" y="878.0" type="line"/>
    </contour>
    <contour>
      <point x="1037.0" y="0.0" type="line"/>
      <point x="1247.0" y="0.0" type="line"/>
      <point x="1247.0" y="1199.0" type="line"/>
      <point x="1037.0" y="1199.0" type="line"/>
    </contour>
    <contour>
      <point x="-19.0" y="1104.0" type="line"/>
      <point x="1441.0" y="1104.0" type="line"/>
      <point x="1441.0" y="1287.0" type="line"/>
      <point x="-19.0" y="1287.0" type="line"/>
    </contour>
  </outline>
</glyph>
<glyph name="nya-deva" format="2">
  <advance width="1484.0"/>
  <unicode hex="091E"/>
  <anchor x="1202.0" y="0.0" name="bottom"/>
  <anchor x="1179.0" y="1287.0" name="candra"/>
  <anchor x="197.0" y="82.0" name="nukta"/>
  <anchor x="1202.0" y="1287.0" name="top"/>
  <outline>
    <contour>
      <point x="559.0" y="200.0" type="curve" smooth="yes"/>
      <point x="785.0" y="200.0"/>
      <point x="932.0" y="327.0"/>
      <point x="932.0" y="569.0" type="curve" smooth="yes"/>
      <point x="932.0" y="824.0"/>
      <point x="768.0" y="936.0"/>
      <point x="578.0" y="936.0" type="curve" smooth="yes"/>
      <point x="519.0" y="936.0"/>
      <point x="466.0" y="927.0"/>
      <point x="426.0" y="907.0" type="curve"/>
      <point x="458.0" y="734.0" type="line"/>
      <point x="490.0" y="742.0"/>
      <point x="524.0" y="747.0"/>
      <point x="575.0" y="747.0" type="curve" smooth="yes"/>
      <point x="669.0" y="747.0"/>
      <point x="737.0" y="709.0"/>
      <point x="740.0" y="580.0" type="curve" smooth="yes"/>
      <point x="743.0" y="438.0"/>
      <point x="654.0" y="388.0"/>
      <point x="553.0" y="388.0" type="curve" smooth="yes"/>
      <point x="375.0" y="388.0"/>
      <point x="262.0" y="519.0"/>
      <point x="200.0" y="881.0" type="curve"/>
      <point x="37.0" y="849.0" type="line"/>
      <point x="105.0" y="315.0"/>
      <point x="350.0" y="200.0"/>
    </contour>
    <contour>
      <point x="878.0" y="489.0" type="line"/>
      <point x="982.0" y="469.0"/>
      <point x="1188.0" y="515.0"/>
      <point x="1254.0" y="577.0" type="curve"/>
      <point x="1247.0" y="775.0" type="line"/>
      <point x="1129.0" y="687.0"/>
      <point x="944.0" y="647.0"/>
      <point x="827.0" y="661.0" type="curve"/>
    </contour>
    <contour>
      <point x="1097.0" y="0.0" type="line"/>
      <point x="1307.0" y="0.0" type="line"/>
      <point x="1307.0" y="1199.0" type="line"/>
      <point x="1097.0" y="1199.0" type="line"/>
    </contour>
    <contour>
      <point x="-19.0" y="1104.0" type="line"/>
      <point x="1503.0" y="1104.0" type="line"/>
      <point x="1503.0" y="1287.0" type="line"/>
      <point x="-19.0" y="1287.0" type="line"/>
    </contour>
  </outline>
</glyph>
<glyph name="ddha-deva" format="2">
  <advance width="1082.0"/>
  <unicode hex="0922"/>
  <anchor x="577.0" y="-55.0" name="bottom"/>
  <anchor x="675.0" y="1287.0" name="candra"/>
  <anchor x="565.0" y="-223.0" name="nukta"/>
  <anchor x="768.0" y="1287.0" name="top"/>
  <outline>
    <contour>
      <point x="560.0" y="11.0" type="curve" smooth="yes"/>
      <point x="721.0" y="11.0"/>
      <point x="1021.0" y="61.0"/>
      <point x="1021.0" y="346.0" type="curve" smooth="yes"/>
      <point x="1021.0" y="517.0"/>
      <point x="901.0" y="593.0"/>
      <point x="750.0" y="593.0" type="curve" smooth="yes"/>
      <point x="565.0" y="593.0"/>
      <point x="493.0" y="479.0"/>
      <point x="493.0" y="386.0" type="curve" smooth="yes"/>
      <point x="493.0" y="292.0"/>
      <point x="526.0" y="229.0"/>
      <point x="608.0" y="155.0" type="curve"/>
      <point x="750.0" y="182.0" type="line"/>
      <point x="689.0" y="247.0"/>
      <point x="670.0" y="291.0"/>
      <point x="670.0" y="346.0" type="curve" smooth="yes"/>
      <point x="670.0" y="391.0"/>
      <point x="699.0" y="434.0"/>
      <point x="753.0" y="434.0" type="curve" smooth="yes"/>
      <point x="802.0" y="434.0"/>
      <point x="847.0" y="426.0"/>
      <point x="847.0" y="356.0" type="curve" smooth="yes"/>
      <point x="847.0" y="234.0"/>
      <point x="750.0" y="185.0"/>
      <point x="600.0" y="181.0" type="curve" smooth="yes"/>
      <point x="365.0" y="175.0"/>
      <point x="283.0" y="241.0"/>
      <point x="283.0" y="470.0" type="curve" smooth="yes"/>
      <point x="283.0" y="649.0"/>
      <point x="375.0" y="721.0"/>
      <point x="601.0" y="722.0" type="curve" smooth="yes"/>
      <point x="664.0" y="722.0"/>
      <point x="796.0" y="717.0"/>
      <point x="875.0" y="713.0" type="curve"/>
      <point x="875.0" y="1154.0" type="line"/>
      <point x="665.0" y="1154.0" type="line"/>
      <point x="665.0" y="846.0" type="line"/>
      <point x="763.0" y="870.0" type="line"/>
      <point x="691.0" y="900.0"/>
      <point x="577.0" y="908.0"/>
      <point x="529.0" y="908.0" type="curve" smooth="yes"/>
      <point x="238.0" y="908.0"/>
      <point x="63.0" y="775.0"/>
      <point x="63.0" y="480.0" type="curve" smooth="yes"/>
      <point x="63.0" y="170.0"/>
      <point x="264.0" y="11.0"/>
    </contour>
    <contour>
      <point x="-19.0" y="1104.0" type="line"/>
      <point x="1101.0" y="1104.0" type="line"/>
      <point x="1101.0" y="1287.0" type="line"/>
      <point x="-19.0" y="1287.0" type="line"/>
    </contour>
  </outline>
</glyph>
<glyph name="nna-deva" format="2">
  <advance width="1547.0"/>
  <unicode hex="0923"/>
  <anchor x="1267.0" y="0.0" name="bottom"/>
  <anchor x="1141.0" y="1287.0" name="candra"/>
  <anchor x="514.0" y="71.0" name="nukta"/>
  <anchor x="1267.0" y="1287.0" name="top"/>
  <outline>
    <contour>
      <point x="511.0" y="298.0" type="curve" smooth="yes"/>
      <point x="767.0" y="298.0"/>
      <point x="906.0" y="439.0"/>
      <point x="906.0" y="703.0" type="curve" smooth="yes"/>
      <point x="906.0" y="1162.0" type="line"/>
      <point x="696.0" y="1162.0" type="line"/>
      <point x="696.0" y="691.0" type="line" smooth="yes"/>
      <point x="696.0" y="559.0"/>
      <point x="650.0" y="487.0"/>
      <point x="508.0" y="487.0" type="curve" smooth="yes"/>
      <point x="378.0" y="487.0"/>
      <point x="336.0" y="558.0"/>
      <point x="336.0" y="685.0" type="curve" smooth="yes"/>
      <point x="336.0" y="1162.0" type="line"/>
      <point x="126.0" y="1162.0" type="line"/>
      <point x="126.0" y="703.0" type="line" smooth="yes"/>
      <point x="126.0" y="442.0"/>
      <point x="252.0" y="298.0"/>
    </contour>
    <contour>
      <point x="1162.0" y="0.0" type="line"/>
      <point x="1372.0" y="0.0" type="line"/>
      <point x="1372.0" y="1216.0" type="line"/>
      <point x="1162.0" y="1216.0" type="line"/>
    </contour>
    <contour>
      <point x="-19.0" y="1104.0" type="line"/>
      <point x="1566.0" y="1104.0" type="line"/>
      <point x="1566.0" y="1287.0" type="line"/>
      <point x="-19.0" y="1287.0" type="line"/>
    </contour>
  </outline>
</glyph>
<glyph name="ta-deva" format="2">
  <advance width="1109.0"/>
  <unicode hex="0924"/>
  <anchor x="828.0" y="0.0" name="bottom"/>
  <anchor x="695.0" y="1287.0" name="candra"/>
  <anchor x="-7.0" y="52.0" name="nukta"/>
  <anchor x="835.0" y="1287.0" name="top"/>
  <outline>
    <contour>
      <point x="310.0" y="-38.0" type="curve"/>
      <point x="474.0" y="71.0" type="line"/>
      <point x="321.0" y="302.0"/>
      <point x="275.0" y="439.0"/>
      <point x="275.0" y="534.0" type="curve" smooth="yes"/>
      <point x="275.0" y="633.0"/>
      <point x="326.0" y="661.0"/>
      <point x="439.0" y="661.0" type="curve" smooth="yes"/>
      <point x="863.0" y="661.0" type="line"/>
      <point x="817.0" y="858.0" type="line"/>
      <point x="419.0" y="858.0" type="line" smooth="yes"/>
      <point x="205.0" y="858.0"/>
      <point x="61.0" y="750.0"/>
      <point x="61.0" y="566.0" type="curve" smooth="yes"/>
      <point x="61.0" y="365.0"/>
      <point x="179.0" y="131.0"/>
    </contour>
    <contour>
      <point x="723.0" y="0.0" type="line"/>
      <point x="933.0" y="0.0" type="line"/>
      <point x="933.0" y="1199.0" type="line"/>
      <point x="723.0" y="1199.0" type="line"/>
    </contour>
    <contour>
      <point x="-19.0" y="1104.0" type="line"/>
      <point x="1128.0" y="1104.0" type="line"/>
      <point x="1128.0" y="1287.0" type="line"/>
      <point x="-19.0" y="1287.0" type="line"/>
    </contour>
  </outline>
</glyph>
<glyph name="da-deva" format="2">
  <advance width="1033.0"/>
  <unicode hex="0926"/>
  <anchor x="976.0" y="-61.0" name="bottom"/>
  <anchor x="605.0" y="1287.0" name="candra"/>
  <anchor x="123.0" y="-73.0" name="nukta"/>
  <anchor x="721.0" y="1287.0" name="top"/>
  <outline>
    <contour>
      <point x="549.0" y="55.0" type="curve" smooth="yes"/>
      <point x="664.0" y="55.0"/>
      <point x="769.0" y="78.0"/>
      <point x="854.0" y="134.0" type="curve" smooth="yes"/>
      <point x="912.0" y="174.0"/>
      <point x="953.0" y="259.0"/>
      <point x="953.0" y="323.0" type="curve" smooth="yes"/>
      <point x="953.0" y="432.0"/>
      <point x="849.0" y="507.0"/>
      <point x="735.0" y="537.0" type="curve"/>
      <point x="619.0" y="450.0" type="line"/>
      <point x="722.0" y="231.0" type="line"/>
      <point x="800.0" y="326.0" type="line"/>
      <point x="701.0" y="260.0"/>
      <point x="654.0" y="233.0"/>
      <point x="540.0" y="233.0" type="curve" smooth="yes"/>
      <point x="368.0" y="233.0"/>
      <point x="281.0" y="296.0"/>
      <point x="281.0" y="474.0" type="curve" smooth="yes"/>
      <point x="281.0" y="681.0"/>
      <point x="397.0" y="721.0"/>
      <point x="602.0" y="721.0" type="curve" smooth="yes"/>
      <point x="710.0" y="721.0"/>
      <point x="763.0" y="717.0"/>
      <point x="826.0" y="713.0" type="curve"/>
      <point x="826.0" y="1134.0" type="line"/>
      <point x="615.0" y="1134.0" type="line"/>
      <point x="615.0" y="840.0" type="line"/>
      <point x="756.0" y="870.0" type="line"/>
      <point x="668.0" y="899.0"/>
      <point x="598.0" y="908.0"/>
      <point x="544.0" y="908.0" type="curve" smooth="yes"/>
      <point x="201.0" y="908.0"/>
      <point x="63.0" y="745.0"/>
      <point x="63.0" y="502.0" type="curve" smooth="yes"/>
      <point x="63.0" y="248.0"/>
      <point x="218.0" y="55.0"/>
    </contour>
    <contour>
      <point x="921.0" y="-171.0" type="line"/>
      <point x="1085.0" y="-73.0" type="line"/>
      <point x="854.0" y="272.0" type="line"/>
      <point x="730.0" y="216.0" type="line"/>
    </contour>
    <contour>
      <point x="-19.0" y="1104.0" type="line"/>
      <point x="1052.0" y="1104.0" type="line"/>
      <point x="1052.0" y="1287.0" type="line"/>
      <point x="-19.0" y="1287.0" type="line"/>
    </contour>
  </outline>
</glyph>
<glyph name="dha-deva" format="2">
  <advance width="1279.0"/>
  <unicode hex="0927"/>
  <anchor x="998.0" y="0.0" name="bottom"/>
  <anchor x="888.0" y="1287.0" name="candra"/>
  <anchor x="199.0" y="82.0" name="nukta"/>
  <anchor x="998.0" y="1287.0" name="top"/>
  <outline>
    <contour>
      <point x="502.0" y="203.0" type="curve" smooth="yes"/>
      <point x="696.0" y="203.0"/>
      <point x="854.0" y="280.0"/>
      <point x="981.0" y="411.0" type="curve"/>
      <point x="942.0" y="627.0" type="line"/>
      <point x="840.0" y="472.0"/>
      <point x="680.0" y="385.0"/>
      <point x="519.0" y="385.0" type="curve" smooth="yes"/>
      <point x="400.0" y="385.0"/>
      <point x="363.0" y="436.0"/>
      <point x="363.0" y="519.0" type="curve" smooth="yes"/>
      <point x="363.0" y="629.0"/>
      <point x="433.0" y="678.0"/>
      <point x="635.0" y="685.0" type="curve"/>
      <point x="629.0" y="860.0" type="line"/>
      <point x="276.0" y="858.0"/>
      <point x="149.0" y="690.0"/>
      <point x="149.0" y="527.0" type="curve" smooth="yes"/>
      <point x="149.0" y="334.0"/>
      <point x="281.0" y="203.0"/>
    </contour>
    <contour>
      <point x="405.0" y="718.0" type="curve"/>
      <point x="513.0" y="796.0" type="line"/>
      <point x="378.0" y="857.0"/>
      <point x="315.0" y="911.0"/>
      <point x="317.0" y="1002.0" type="curve" smooth="yes"/>
      <point x="319.0" y="1095.0"/>
      <point x="393.0" y="1121.0"/>
      <point x="489.0" y="1123.0" type="curve" smooth="yes"/>
      <point x="534.0" y="1124.0"/>
      <point x="581.0" y="1119.0"/>
      <point x="630.0" y="1111.0" type="curve"/>
      <point x="656.0" y="1280.0" type="line"/>
      <point x="604.0" y="1295.0"/>
      <point x="523.0" y="1304.0"/>
      <point x="467.0" y="1304.0" type="curve" smooth="yes"/>
      <point x="306.0" y="1304.0"/>
      <point x="99.0" y="1233.0"/>
      <point x="99.0" y="1031.0" type="curve" smooth="yes"/>
      <point x="99.0" y="904.0"/>
      <point x="180.0" y="811.0"/>
    </contour>
    <contour>
      <point x="893.0" y="0.0" type="line"/>
      <point x="1103.0" y="0.0" type="line"/>
      <point x="1103.0" y="1225.0" type="line"/>
      <point x="893.0" y="1225.0" type="line"/>
    </contour>
    <contour>
      <point x="764.0" y="1104.0" type="line"/>
      <point x="1299.0" y="1104.0" type="line"/>
      <point x="1299.0" y="1287.0" type="line"/>
      <point x="764.0" y="1287.0" type="line"/>
    </contour>
  </outline>
</glyph>
<glyph name="na-deva" format="2">
  <advance width="1064.0"/>
  <unicode hex="0928"/>
  <anchor x="784.0" y="0.0" name="bottom"/>
  <anchor x="670.0" y="1287.0" name="candra"/>
  <anchor x="233.0" y="122.0" name="nukta"/>
  <anchor x="784.0" y="1287.0" name="top"/>
  <outline>
    <contour>
      <point x="678.091" y="0.0" type="line"/>
      <point x="889.0" y="0.0" type="line"/>
      <point x="889.0" y="1199.0" type="line"/>
      <point x="678.0" y="1199.0" type="line"/>
    </contour>
    <contour>
      <point x="199.0" y="387.0" type="line"/>
      <point x="346.0" y="387.0"/>
      <point x="369.0" y="468.0"/>
      <point x="369.0" y="568.0" type="curve" smooth="yes"/>
      <point x="369.0" y="775.0" type="line"/>
      <point x="45.0" y="775.0" type="line"/>
      <point x="45.0" y="611.0" type="line"/>
    </contour>
    <contour>
      <point x="170.0" y="589.0" type="line"/>
      <point x="794.0" y="589.0" type="line"/>
      <point x="794.0" y="775.0" type="line"/>
      <point x="170.0" y="775.0" type="line"/>
    </contour>
    <contour>
      <point x="-19.0" y="1104.0" type="line"/>
      <point x="1083.0" y="1104.0" type="line"/>
      <point x="1083.0" y="1287.0" type="line"/>
      <point x="-19.0" y="1287.0" type="line"/>
    </contour>
  </outline>
</glyph>
<glyph name="pa-deva" format="2">
  <advance width="1176.0"/>
  <unicode hex="092A"/>
  <anchor x="896.0" y="0.0" name="bottom"/>
  <anchor x="765.0" y="1287.0" name="candra"/>
  <anchor x="261.0" y="92.0" name="nukta"/>
  <anchor x="897.0" y="1287.0" name="top"/>
  <outline>
    <contour>
      <point x="507.0" y="285.0" type="curve" smooth="yes"/>
      <point x="662.0" y="285.0"/>
      <point x="805.0" y="365.0"/>
      <point x="884.0" y="491.0" type="curve"/>
      <point x="838.0" y="681.0" type="line"/>
      <point x="764.0" y="551.0"/>
      <point x="654.0" y="477.0"/>
      <point x="520.0" y="476.0" type="curve" smooth="yes"/>
      <point x="398.0" y="475.0"/>
      <point x="365.0" y="529.0"/>
      <point x="365.0" y="666.0" type="curve" smooth="yes"/>
      <point x="365.0" y="1133.0" type="line"/>
      <point x="151.0" y="1133.0" type="line"/>
      <point x="151.0" y="675.0" type="line" smooth="yes"/>
      <point x="151.0" y="419.0"/>
      <point x="276.0" y="285.0"/>
    </contour>
    <contour>
      <point x="790.0" y="0.0" type="line"/>
      <point x="1001.0" y="0.0" type="line"/>
      <point x="1001.0" y="1199.0" type="line"/>
      <point x="790.0" y="1199.0" type="line"/>
    </contour>
    <contour>
      <point x="-20.0" y="1104.0" type="line"/>
      <point x="1195.0" y="1104.0" type="line"/>
      <point x="1195.0" y="1287.0" type="line"/>
      <point x="-20.0" y="1287.0" type="line"/>
    </contour>
  </outline>
</glyph>
<glyph name="pha-deva" format="2">
  <advance width="1608.0"/>
  <unicode hex="092B"/>
  <anchor x="873.0" y="0.0" name="bottom"/>
  <anchor x="873.0" y="1287.0" name="candra"/>
  <anchor x="239.0" y="87.0" name="nukta"/>
  <anchor x="869.0" y="1287.0" name="top"/>
  <outline>
    <contour>
      <point x="505.0" y="314.0" type="curve" smooth="yes"/>
      <point x="643.0" y="314.0"/>
      <point x="795.0" y="393.0"/>
      <point x="874.0" y="550.0" type="curve"/>
      <point x="828.0" y="713.0" type="line"/>
      <point x="754.0" y="583.0"/>
      <point x="645.0" y="506.0"/>
      <point x="518.0" y="505.0" type="curve" smooth="yes"/>
      <point x="399.0" y="504.0"/>
      <point x="366.0" y="559.0"/>
      <point x="366.0" y="695.0" type="curve" smooth="yes"/>
      <point x="366.0" y="1161.0" type="line"/>
      <point x="152.0" y="1161.0" type="line"/>
      <point x="152.0" y="704.0" type="line" smooth="yes"/>
      <point x="152.0" y="447.0"/>
      <point x="277.0" y="314.0"/>
    </contour>
    <contour>
      <point x="767.0" y="0.0" type="line"/>
      <point x="978.0" y="0.0" type="line"/>
      <point x="978.0" y="1199.0" type="line"/>
      <point x="767.0" y="1199.0" type="line"/>
    </contour>
    <contour>
      <point x="1375.0" y="125.0" type="line"/>
      <point x="1486.0" y="244.0"/>
      <point x="1552.0" y="390.0"/>
      <point x="1552.0" y="547.0" type="curve" smooth="yes"/>
      <point x="1552.0" y="749.0"/>
      <point x="1443.0" y="887.0"/>
      <point x="1251.0" y="887.0" type="curve" smooth="yes"/>
      <point x="1112.0" y="887.0"/>
      <point x="1010.0" y="831.0"/>
      <point x="906.0" y="708.0" type="curve"/>
      <point x="878.0" y="416.0" type="line"/>
      <point x="1045.0" y="631.0"/>
      <point x="1161.0" y="701.0"/>
      <point x="1241.0" y="701.0" type="curve" smooth="yes"/>
      <point x="1318.0" y="701.0"/>
      <point x="1362.0" y="656.0"/>
      <point x="1362.0" y="568.0" type="curve" smooth="yes"/>
      <point x="1362.0" y="462.0"/>
      <point x="1306.0" y="360.0"/>
      <point x="1222.0" y="241.0" type="curve"/>
    </contour>
    <contour>
      <point x="-19.0" y="1104.0" type="line"/>
      <point x="1627.0" y="1104.0" type="line"/>
      <point x="1627.0" y="1287.0" type="line"/>
      <point x="-19.0" y="1287.0" type="line"/>
    </contour>
  </outline>
</glyph>
<glyph name="bha-deva" format="2">
  <advance width="1242.0"/>
  <unicode hex="092D"/>
  <anchor x="962.0" y="0.0" name="bottom"/>
  <anchor x="796.0" y="1287.0" name="candra"/>
  <anchor x="369.0" y="82.0" name="nukta"/>
  <anchor x="962.0" y="1287.0" name="top"/>
  <outline>
    <contour>
      <point x="275.0" y="548.0" type="line"/>
      <point x="485.0" y="548.0" type="line"/>
      <point x="485.0" y="1032.0" type="line" smooth="yes"/>
      <point x="485.0" y="1168.0"/>
      <point x="464.0" y="1307.0"/>
      <point x="239.0" y="1307.0" type="curve" smooth="yes"/>
      <point x="173.0" y="1307.0"/>
      <point x="133.0" y="1299.0"/>
      <point x="93.0" y="1281.0" type="curve"/>
      <point x="125.0" y="1105.0" type="line"/>
      <point x="144.0" y="1112.0"/>
      <point x="170.0" y="1118.0"/>
      <point x="197.0" y="1118.0" type="curve" smooth="yes"/>
      <point x="245.0" y="1118.0"/>
      <point x="275.0" y="1099.0"/>
      <point x="275.0" y="1035.0" type="curve" smooth="yes"/>
    </contour>
    <contour>
      <point x="316.0" y="289.0" type="line"/>
      <point x="455.0" y="289.0"/>
      <point x="484.0" y="357.0"/>
      <point x="484.0" y="437.0" type="curve" smooth="yes"/>
      <point x="484.0" y="661.0" type="line"/>
      <point x="318.0" y="661.0" type="line"/>
      <point x="131.0" y="639.0" type="line"/>
      <point x="131.0" y="495.0" type="line"/>
    </contour>
    <contour>
      <point x="280.0" y="471.0" type="line"/>
      <point x="1026.0" y="471.0" type="line"/>
      <point x="1026.0" y="657.0" type="line"/>
      <point x="280.0" y="657.0" type="line"/>
    </contour>
    <contour>
      <point x="857.0" y="0.0" type="line"/>
      <point x="1067.0" y="0.0" type="line"/>
      <point x="1067.0" y="1216.0" type="line"/>
      <point x="857.0" y="1216.0" type="line"/>
    </contour>
    <contour>
      <point x="684.0" y="1104.0" type="line"/>
      <point x="1262.0" y="1104.0" type="line"/>
      <point x="1262.0" y="1287.0" type="line"/>
      <point x="684.0" y="1287.0" type="line"/>
    </contour>
  </outline>
</glyph>
<glyph name="ma-deva" format="2">
  <advance width="1185.0"/>
  <unicode hex="092E"/>
  <anchor x="904.0" y="0.0" name="bottom"/>
  <anchor x="725.0" y="1287.0" name="candra"/>
  <anchor x="299.0" y="82.0" name="nukta"/>
  <anchor x="904.0" y="1287.0" name="top"/>
  <outline>
    <contour>
      <point x="799.0" y="1.0" type="line"/>
      <point x="1009.0" y="1.0" type="line"/>
      <point x="1009.0" y="1152.0" type="line"/>
      <point x="799.0" y="1152.0" type="line"/>
    </contour>
    <contour>
      <point x="230.0" y="286.0" type="line"/>
      <point x="370.0" y="287.0"/>
      <point x="398.0" y="354.0"/>
      <point x="398.0" y="435.0" type="curve" smooth="yes"/>
      <point x="398.0" y="659.0" type="line"/>
      <point x="232.0" y="659.0" type="line"/>
      <point x="45.0" y="635.0" type="line"/>
      <point x="45.0" y="492.0" type="line"/>
    </contour>
    <contour>
      <point x="187.0" y="382.0" type="line"/>
      <point x="396.0" y="572.0" type="line"/>
      <point x="397.0" y="1152.0" type="line"/>
      <point x="187.0" y="1152.0" type="line"/>
    </contour>
    <contour>
      <point x="193.0" y="469.0" type="line"/>
      <point x="969.0" y="469.0" type="line"/>
      <point x="969.0" y="655.0" type="line"/>
      <point x="193.0" y="655.0" type="line"/>
    </contour>
    <contour>
      <point x="-19.0" y="1104.0" type="line"/>
      <point x="1203.0" y="1104.0" type="line"/>
      <point x="1203.0" y="1287.0" type="line"/>
      <point x="-19.0" y="1287.0" type="line"/>
    </contour>
  </outline>
</glyph>
<glyph name="ra-deva" format="2">
  <advance width="749.0"/>
  <unicode hex="0930"/>
  <anchor x="509.0" y="27.0" name="bottom"/>
  <anchor x="356.0" y="1287.0" name="candra"/>
  <anchor x="137.0" y="97.0" name="nukta"/>
  <anchor x="446.0" y="1287.0" name="top"/>
  <outline>
    <contour>
      <point x="479.0" y="-39.0" type="line"/>
      <point x="648.0" y="84.0" type="line"/>
      <point x="297.0" y="557.0" type="line"/>
      <point x="288.0" y="548.0" type="line"/>
      <point x="304.0" y="538.0"/>
      <point x="331.0" y="534.0"/>
      <point x="356.0" y="534.0" type="curve" smooth="yes"/>
      <point x="469.0" y="534.0"/>
      <point x="561.0" y="620.0"/>
      <point x="561.0" y="796.909" type="curve" smooth="yes"/>
      <point x="561.0" y="1176.0" type="line"/>
      <point x="351.0" y="1176.0" type="line"/>
      <point x="351.0" y="803.091" type="line" smooth="yes"/>
      <point x="351.0" y="731.0"/>
      <point x="330.0" y="694.0"/>
      <point x="279.909" y="694.091" type="curve" smooth="yes"/>
      <point x="247.0" y="694.0"/>
      <point x="216.0" y="707.0"/>
      <point x="178.0" y="739.0" type="curve"/>
      <point x="43.0" y="627.0" type="line"/>
    </contour>
    <contour>
      <point x="-19.0" y="1104.0" type="line"/>
      <point x="768.0" y="1104.0" type="line"/>
      <point x="768.0" y="1287.0" type="line"/>
      <point x="-19.0" y="1287.0" type="line"/>
    </contour>
  </outline>
</glyph>
<glyph name="la-deva" format="2">
  <advance width="1415.0"/>
  <unicode hex="0932"/>
  <anchor x="1135.0" y="0.0" name="bottom"/>
  <anchor x="996.0" y="1287.0" name="candra"/>
  <anchor x="3.0" y="82.0" name="nukta"/>
  <anchor x="1135.0" y="1287.0" name="top"/>
  <outline>
    <contour>
      <point x="341.0" y="-32.0" type="curve"/>
      <point x="488.0" y="95.0" type="line"/>
      <point x="330.0" y="289.0"/>
      <point x="261.0" y="422.0"/>
      <point x="261.0" y="567.0" type="curve" smooth="yes"/>
      <point x="261.0" y="704.0"/>
      <point x="330.0" y="743.0"/>
      <point x="409.0" y="743.0" type="curve" smooth="yes"/>
      <point x="513.0" y="743.0"/>
      <point x="584.0" y="656.0"/>
      <point x="661.0" y="534.0" type="curve"/>
      <point x="680.0" y="671.0" type="line"/>
      <point x="608.0" y="860.0"/>
      <point x="505.0" y="940.0"/>
      <point x="359.0" y="940.0" type="curve" smooth="yes"/>
      <point x="168.0" y="940.0"/>
      <point x="55.0" y="815.0"/>
      <point x="55.0" y="597.0" type="curve" smooth="yes"/>
      <point x="55.0" y="334.0"/>
      <point x="199.0" y="127.0"/>
    </contour>
    <contour>
      <point x="567.0" y="445.0" type="curve"/>
      <point x="748.0" y="465.0" type="line"/>
      <point x="743.0" y="496.0"/>
      <point x="740.0" y="526.0"/>
      <point x="740.0" y="556.0" type="curve" smooth="yes"/>
      <point x="740.0" y="667.0"/>
      <point x="789.0" y="749.0"/>
      <point x="888.0" y="749.0" type="curve" smooth="yes"/>
      <point x="974.0" y="749.0"/>
      <point x="1035.0" y="701.0"/>
      <point x="1062.0" y="604.0" type="curve"/>
      <point x="1078.0" y="730.0" type="line"/>
      <point x="1061.0" y="869.0"/>
      <point x="964.0" y="939.0"/>
      <point x="850.0" y="939.0" type="curve" smooth="yes"/>
      <point x="656.0" y="939.0"/>
      <point x="547.0" y="775.0"/>
      <point x="547.0" y="573.0" type="curve" smooth="yes"/>
      <point x="547.0" y="528.0"/>
      <point x="552.0" y="485.0"/>
    </contour>
    <contour>
      <point x="1030.0" y="0.0" type="line"/>
      <point x="1240.0" y="0.0" type="line"/>
      <point x="1240.0" y="1197.0" type="line"/>
      <point x="1030.0" y="1197.0" type="line"/>
    </contour>
    <contour>
      <point x="-19.0" y="1104.0" type="line"/>
      <point x="1434.0" y="1104.0" type="line"/>
      <point x="1434.0" y="1287.0" type="line"/>
      <point x="-19.0" y="1287.0" type="line"/>
    </contour>
  </outline>
</glyph>
<glyph name="lla-deva" format="2">
  <advance width="1468.0"/>
  <unicode hex="0933"/>
  <anchor x="1068.0" y="41.0" name="bottom"/>
  <anchor x="971.0" y="1287.0" name="candra"/>
  <anchor x="728.0" y="19.0" name="nukta"/>
  <anchor x="1080.0" y="1287.0" name="top"/>
  <outline>
    <contour>
      <point x="393.0" y="128.0" type="curve" smooth="yes"/>
      <point x="566.0" y="128.0"/>
      <point x="645.0" y="191.0"/>
      <point x="793.0" y="424.0" type="curve" smooth="yes"/>
      <point x="946.0" y="668.0"/>
      <point x="985.909" y="747.091"/>
      <point x="1081.09" y="747.091" type="curve" smooth="yes"/>
      <point x="1165.0" y="747.0"/>
      <point x="1202.91" y="679.0"/>
      <point x="1203.0" y="551.0" type="curve" smooth="yes"/>
      <point x="1203.0" y="400.0"/>
      <point x="1143.0" y="323.0"/>
      <point x="1030.0" y="323.0" type="curve" smooth="yes"/>
      <point x="934.0" y="323.0"/>
      <point x="869.0" y="380.0"/>
      <point x="804.0" y="468.0" type="curve"/>
      <point x="706.0" y="330.0" type="line"/>
      <point x="805.0" y="197.0"/>
      <point x="894.0" y="130.0"/>
      <point x="1061.0" y="130.0" type="curve" smooth="yes"/>
      <point x="1288.0" y="130.0"/>
      <point x="1412.0" y="272.0"/>
      <point x="1412.0" y="549.0" type="curve" smooth="yes"/>
      <point x="1412.0" y="824.0"/>
      <point x="1267.0" y="943.0"/>
      <point x="1068.0" y="943.0" type="curve" smooth="yes"/>
      <point x="908.0" y="943.0"/>
      <point x="835.091" y="873.091"/>
      <point x="707.0" y="685.0" type="curve" smooth="yes"/>
      <point x="602.0" y="512.0"/>
      <point x="517.0" y="325.0"/>
      <point x="391.0" y="325.0" type="curve" smooth="yes"/>
      <point x="301.0" y="325.0"/>
      <point x="265.0" y="380.0"/>
      <point x="265.0" y="534.0" type="curve" smooth="yes"/>
      <point x="265.0" y="679.0"/>
      <point x="323.0" y="753.0"/>
      <point x="435.0" y="753.0" type="curve" smooth="yes"/>
      <point x="547.0" y="753.0"/>
      <point x="630.0" y="683.0"/>
      <point x="693.0" y="597.0" type="curve"/>
      <point x="768.0" y="736.0" type="line"/>
      <point x="679.0" y="896.0"/>
      <point x="562.0" y="945.0"/>
      <point x="422.0" y="945.0" type="curve" smooth="yes"/>
      <point x="183.0" y="945.0"/>
      <point x="56.0" y="806.0"/>
      <point x="56.0" y="536.0" type="curve" smooth="yes"/>
      <point x="56.0" y="275.0"/>
      <point x="192.0" y="128.0"/>
    </contour>
    <contour>
      <point x="-18.0" y="1104.0" type="line"/>
      <point x="1487.0" y="1104.0" type="line"/>
      <point x="1487.0" y="1287.0" type="line"/>
      <point x="-18.0" y="1287.0" type="line"/>
    </contour>
    <contour>
      <point x="975.0" y="808.0" type="line"/>
      <point x="1185.0" y="808.0" type="line"/>
      <point x="1185.0" y="1216.0" type="line"/>
      <point x="975.0" y="1216.0" type="line"/>
    </contour>
  </outline>
</glyph>
<glyph name="va-deva" format="2">
  <advance width="1091.0"/>
  <unicode hex="0935"/>
  <anchor x="811.0" y="0.0" name="bottom"/>
  <anchor x="695.0" y="1287.0" name="candra"/>
  <anchor x="84.0" y="82.0" name="nukta"/>
  <anchor x="811.0" y="1287.0" name="top"/>
  <outline>
    <contour>
      <point x="418.0" y="187.0" type="curve" smooth="yes"/>
      <point x="563.0" y="187.0"/>
      <point x="715.0" y="242.0"/>
      <point x="794.0" y="370.0" type="curve"/>
      <point x="737.0" y="507.0" type="line"/>
      <point x="646.0" y="408.0"/>
      <point x="559.0" y="368.0"/>
      <point x="430.0" y="368.0" type="curve" smooth="yes"/>
      <point x="313.0" y="368.0"/>
      <point x="265.0" y="421.0"/>
      <point x="265.0" y="556.0" type="curve" smooth="yes"/>
      <point x="265.0" y="703.0"/>
      <point x="328.0" y="751.0"/>
      <point x="470.0" y="755.0" type="curve" smooth="yes"/>
      <point x="552.0" y="756.0"/>
      <point x="669.0" y="739.0"/>
      <point x="794.0" y="676.0" type="curve"/>
      <point x="794.0" y="799.0" type="line"/>
      <point x="724.0" y="875.0"/>
      <point x="597.0" y="943.0"/>
      <point x="437.0" y="943.0" type="curve" smooth="yes"/>
      <point x="192.0" y="943.0"/>
      <point x="54.0" y="820.0"/>
      <point x="54.0" y="568.0" type="curve" smooth="yes"/>
      <point x="54.0" y="302.0"/>
      <point x="219.0" y="187.0"/>
    </contour>
    <contour>
      <point x="706.0" y="0.0" type="line"/>
      <point x="916.0" y="0.0" type="line"/>
      <point x="916.0" y="1185.0" type="line"/>
      <point x="706.0" y="1185.0" type="line"/>
    </contour>
    <contour>
      <point x="-29.0" y="1104.0" type="line"/>
      <point x="1110.0" y="1104.0" type="line"/>
      <point x="1110.0" y="1287.0" type="line"/>
      <point x="-29.0" y="1287.0" type="line"/>
    </contour>
  </outline>
</glyph>
<glyph name="sha-deva" format="2">
  <advance width="1392.0"/>
  <unicode hex="0936"/>
  <anchor x="1112.0" y="0.0" name="bottom"/>
  <anchor x="963.0" y="1287.0" name="candra"/>
  <anchor x="256.0" y="82.0" name="nukta"/>
  <anchor x="1112.0" y="1287.0" name="top"/>
  <outline>
    <contour>
      <point x="336.0" y="402.0" type="line"/>
      <point x="619.0" y="501.0"/>
      <point x="805.0" y="682.0"/>
      <point x="805.0" y="954.0" type="curve" smooth="yes"/>
      <point x="805.0" y="1146.0"/>
      <point x="686.0" y="1307.0"/>
      <point x="432.0" y="1307.0" type="curve" smooth="yes"/>
      <point x="217.0" y="1307.0"/>
      <point x="98.0" y="1191.0"/>
      <point x="98.0" y="1053.0" type="curve" smooth="yes"/>
      <point x="99.0" y="949.0"/>
      <point x="156.0" y="855.0"/>
      <point x="314.0" y="777.0" type="curve"/>
      <point x="401.0" y="897.0" type="line"/>
      <point x="320.0" y="951.0"/>
      <point x="298.0" y="992.0"/>
      <point x="298.0" y="1036.0" type="curve" smooth="yes"/>
      <point x="298.0" y="1096.0"/>
      <point x="349.0" y="1132.0"/>
      <point x="437.0" y="1132.0" type="curve" smooth="yes"/>
      <point x="547.0" y="1132.0"/>
      <point x="601.0" y="1058.0"/>
      <point x="601.0" y="952.0" type="curve" smooth="yes"/>
      <point x="601.0" y="765.0"/>
      <point x="471.0" y="633.0"/>
      <point x="200.0" y="531.0" type="curve"/>
    </contour>
    <contour>
      <point x="655.0" y="-56.0" type="line"/>
      <point x="818.091" y="81.909" type="line"/>
      <point x="362.0" y="561.0" type="line"/>
      <point x="220.0" y="507.0" type="line"/>
    </contour>
    <contour>
      <point x="212.0" y="367.0" type="curve" smooth="yes"/>
      <point x="284.0" y="367.0"/>
      <point x="334.0" y="389.0"/>
      <point x="446.0" y="446.0" type="curve"/>
      <point x="425.0" y="493.0" type="line"/>
      <point x="261.0" y="683.0" type="line"/>
      <point x="135.0" y="683.0" type="line"/>
      <point x="95.0" y="611.0"/>
      <point x="83.0" y="550.0"/>
      <point x="83.0" y="504.0" type="curve" smooth="yes"/>
      <point x="83.0" y="404.0"/>
      <point x="156.0" y="367.0"/>
    </contour>
    <contour>
      <point x="1006.0" y="0.0" type="line"/>
      <point x="1217.0" y="0.0" type="line"/>
      <point x="1217.0" y="1199.0" type="line"/>
      <point x="1006.0" y="1199.0" type="line"/>
    </contour>
    <contour>
      <point x="862.0" y="1104.0" type="line"/>
      <point x="1411.0" y="1104.0" type="line"/>
      <point x="1411.0" y="1287.0" type="line"/>
      <point x="862.0" y="1287.0" type="line"/>
    </contour>
  </outline>
</glyph>
<glyph name="ha-deva" format="2">
  <advance width="1033.0"/>
  <unicode hex="0939"/>
  <anchor x="807.0" y="-145.0" name="bottom"/>
  <anchor x="651.0" y="1287.0" name="candra"/>
  <anchor x="169.0" y="-221.0" name="nukta"/>
  <anchor x="762.0" y="1287.0" name="top"/>
  <outline>
    <contour>
      <point x="807.0" y="-297.0" type="curve"/>
      <point x="854.0" y="-133.0" type="line"/>
      <point x="651.0" y="-73.0"/>
      <point x="312.0" y="27.0"/>
      <point x="303.0" y="253.0" type="curve" smooth="yes"/>
      <point x="299.0" y="355.0"/>
      <point x="349.0" y="444.0"/>
      <point x="562.0" y="444.0" type="curve" smooth="yes"/>
      <point x="698.0" y="444.0"/>
      <point x="761.0" y="403.0"/>
      <point x="761.0" y="342.0" type="curve" smooth="yes"/>
      <point x="761.0" y="279.0"/>
      <point x="686.0" y="252.0"/>
      <point x="611.0" y="234.0" type="curve"/>
      <point x="677.0" y="70.0" type="line"/>
      <point x="825.0" y="95.0"/>
      <point x="941.0" y="195.0"/>
      <point x="941.0" y="345.0" type="curve" smooth="yes"/>
      <point x="941.0" y="534.0"/>
      <point x="786.0" y="629.0"/>
      <point x="558.0" y="629.0" type="curve" smooth="yes"/>
      <point x="342.0" y="629.0"/>
      <point x="92.0" y="548.0"/>
      <point x="92.0" y="285.0" type="curve" smooth="yes"/>
      <point x="92.0" y="79.0"/>
      <point x="276.0" y="-180.0"/>
    </contour>
    <contour>
      <point x="286.0" y="455.0" type="curve"/>
      <point x="413.0" y="507.0" type="line"/>
      <point x="358.0" y="599.0"/>
      <point x="332.0" y="674.0"/>
      <point x="333.0" y="719.0" type="curve" smooth="yes"/>
      <point x="334.0" y="760.0"/>
      <point x="356.0" y="795.0"/>
      <point x="443.0" y="795.0" type="curve" smooth="yes"/>
      <point x="867.0" y="795.0" type="line"/>
      <point x="867.0" y="1156.0" type="line"/>
      <point x="657.0" y="1156.0" type="line"/>
      <point x="657.0" y="982.0" type="line"/>
      <point x="414.0" y="982.0" type="line" smooth="yes"/>
      <point x="201.0" y="982.0"/>
      <point x="118.0" y="886.0"/>
      <point x="118.0" y="769.0" type="curve" smooth="yes"/>
      <point x="118.0" y="672.0"/>
      <point x="179.0" y="577.0"/>
    </contour>
    <contour>
      <point x="-19.0" y="1104.0" type="line"/>
      <point x="1052.0" y="1104.0" type="line"/>
      <point x="1052.0" y="1287.0" type="line"/>
      <point x="-19.0" y="1287.0" type="line"/>
    </contour>
  </outline>
</glyph>
<glyph name="ooeMatra-deva" format="2">
  <advance width="561.0"/>
  <unicode hex="093B"/>
  <anchor x="281.0" y="0.0" name="bottom"/>
  <anchor x="223.0" y="1287.0" name="candra"/>
  <anchor x="280.0" y="1287.0" name="top"/>
  <outline>
    <contour>
      <point x="176.0" y="1091.0" type="line"/>
      <point x="386.0" y="1091.0" type="line"/>
      <point x="386.0" y="1574.0" type="line"/>
      <point x="176.0" y="1574.0" type="line"/>
    </contour>
    <component base="aaMatra-deva"/>
  </outline>
</glyph>
<glyph name="aaMatra-deva" format="2">
  <advance width="561.0"/>
  <unicode hex="093E"/>
  <anchor x="281.0" y="0.0" name="bottom"/>
  <anchor x="223.0" y="1287.0" name="candra"/>
  <anchor x="280.0" y="1287.0" name="top"/>
  <outline>
    <contour>
      <point x="175.0" y="0.0" type="line"/>
      <point x="385.0" y="0.0" type="line"/>
      <point x="385.0" y="1208.0" type="line"/>
      <point x="175.0" y="1208.0" type="line"/>
    </contour>
    <contour>
      <point x="-19.0" y="1104.0" type="line"/>
      <point x="580.0" y="1104.0" type="line"/>
      <point x="580.0" y="1287.0" type="line"/>
      <point x="-19.0" y="1287.0" type="line"/>
    </contour>
  </outline>
</glyph>
<glyph name="iMatra-deva" format="2">
  <advance width="561.0"/>
  <unicode hex="093F"/>
  <anchor x="1408.0" y="1437.0" name="candra"/>
  <anchor x="1439.0" y="1477.0" name="imatra"/>
  <anchor x="1407.0" y="1474.0" name="top"/>
  <outline>
    <contour>
      <point x="271.0" y="1197.0" type="curve"/>
      <point x="451.0" y="1204.0" type="line"/>
      <point x="311.0" y="1341.0"/>
      <point x="285.0" y="1398.0"/>
      <point x="285.0" y="1475.0" type="curve" smooth="yes"/>
      <point x="285.0" y="1568.0"/>
      <point x="335.0" y="1614.0"/>
      <point x="514.0" y="1614.0" type="curve" smooth="yes"/>
      <point x="834.0" y="1614.0"/>
      <point x="1095.0" y="1512.0"/>
      <point x="1386.0" y="1356.0" type="curve"/>
      <point x="1455.0" y="1477.0" type="line"/>
      <point x="1124.0" y="1695.0"/>
      <point x="807.0" y="1808.0"/>
      <point x="483.0" y="1808.0" type="curve" smooth="yes"/>
      <point x="271.0" y="1808.0"/>
      <point x="68.0" y="1741.0"/>
      <point x="68.0" y="1524.0" type="curve" smooth="yes"/>
      <point x="68.0" y="1403.0"/>
      <point x="130.0" y="1305.0"/>
    </contour>
    <contour>
      <point x="175.0" y="1.0" type="line"/>
      <point x="385.0" y="1.0" type="line"/>
      <point x="385.0" y="1217.0" type="line"/>
      <point x="175.0" y="1217.0" type="line"/>
    </contour>
    <contour>
      <point x="-19.0" y="1104.0" type="line"/>
      <point x="586.0" y="1104.0" type="line"/>
      <point x="586.0" y="1287.0" type="line"/>
      <point x="-19.0" y="1287.0" type="line"/>
    </contour>
  </outline>
</glyph>
<glyph name="eMatra-deva" format="2">
  <unicode hex="0947"/>
  <anchor x="258.0" y="1287.0" name="_top"/>
  <anchor x="479.0" y="1396.0" name="candra"/>
  <anchor x="477.0" y="1287.0" name="top"/>
  <outline>
    <contour>
      <point x="187.0" y="1227.0" type="line"/>
      <point x="347.0" y="1287.0" type="line"/>
      <point x="164.0" y="1784.0"/>
      <point x="104.0" y="1827.0"/>
      <point x="-202.0" y="1827.0" type="curve" smooth="yes"/>
      <point x="-248.0" y="1827.0"/>
      <point x="-295.0" y="1823.0"/>
      <point x="-369.0" y="1806.0" type="curve"/>
      <point x="-340.0" y="1632.0" type="line"/>
      <point x="-296.0" y="1637.0"/>
      <point x="-251.0" y="1643.0"/>
      <point x="-201.0" y="1643.0" type="curve" smooth="yes"/>
      <point x="-3.0" y="1643.0"/>
      <point x="36.0" y="1579.0"/>
      <point x="169.0" y="1269.0" type="curve" smooth="yes"/>
    </contour>
  </outline>
</glyph>
<glyph name="om-deva" format="2">
  <advance width="1910.0"/>
  <unicode hex="0950"/>
  <outline>
    <contour>
      <point x="1541.0" y="274.0" type="curve" smooth="yes"/>
      <point x="1729.0" y="274.0"/>
      <point x="1850.0" y="419.0"/>
      <point x="1850.0" y="648.0" type="curve" smooth="yes"/>
      <point x="1850.0" y="881.0"/>
      <point x="1726.0" y="1027.0"/>
      <point x="1538.0" y="1027.0" type="curve" smooth="yes"/>
      <point x="1372.0" y="1027.0"/>
      <point x="1278.0" y="912.0"/>
      <point x="1185.0" y="766.0" type="curve" smooth="yes"/>
      <point x="1095.0" y="627.0"/>
      <point x="1026.0" y="487.0"/>
      <point x="931.0" y="487.0" type="curve" smooth="yes"/>
      <point x="878.0" y="487.0"/>
      <point x="829.0" y="518.0"/>
      <point x="798.0" y="564.0" type="curve"/>
      <point x="777.0" y="443.0" type="line"/>
      <point x="846.0" y="323.0"/>
      <point x="908.0" y="293.0"/>
      <point x="978.0" y="294.0" type="curve"/>
      <point x="1100.0" y="294.0"/>
      <point x="1186.0" y="423.0"/>
      <point x="1275.0" y="567.0" type="curve" smooth="yes"/>
      <point x="1371.0" y="725.0"/>
      <point x="1431.0" y="841.0"/>
      <point x="1529.0" y="841.0" type="curve" smooth="yes"/>
      <point x="1607.0" y="841.0"/>
      <point x="1655.0" y="782.0"/>
      <point x="1655.0" y="649.0" type="curve" smooth="yes"/>
      <point x="1655.0" y="520.0"/>
      <point x="1609.0" y="457.0"/>
      <point x="1521.0" y="457.0" type="curve" smooth="yes"/>
      <point x="1420.0" y="457.0"/>
      <point x="1352.0" y="572.0"/>
      <point x="1319.0" y="743.0" type="curve"/>
      <point x="1209.0" y="608.0" type="line"/>
      <point x="1235.0" y="411.0"/>
      <point x="1359.0" y="274.0"/>
    </contour>
    <contour>
      <point x="475.0" y="87.0" type="curve" smooth="yes"/>
      <point x="683.0" y="87.0"/>
      <point x="848.0" y="213.0"/>
      <point x="848.0" y="428.0" type="curve" smooth="yes"/>
      <point x="848.0" y="627.0"/>
      <point x="708.0" y="749.0"/>
      <point x="462.0" y="759.0" type="curve"/>
      <point x="347.0" y="704.0" type="line"/>
      <point x="543.0" y="647.0"/>
      <point x="639.0" y="575.0"/>
      <point x="639.0" y="454.0" type="curve" smooth="yes"/>
      <point x="639.0" y="336.0"/>
      <point x="571.0" y="279.0"/>
      <point x="462.0" y="279.0" type="curve" smooth="yes"/>
      <point x="376.0" y="279.0"/>
      <point x="249.0" y="315.0"/>
      <point x="131.0" y="430.0" type="curve"/>
      <point x="32.0" y="293.0" type="line"/>
      <point x="169.0" y="148.0"/>
      <point x="331.0" y="87.0"/>
    </contour>
    <contour>
      <point x="316.0" y="620.0" type="line"/>
      <point x="328.0" y="619.0"/>
      <point x="340.0" y="619.0"/>
      <point x="354.0" y="620.0" type="curve" smooth="yes"/>
      <point x="428.0" y="621.0"/>
      <point x="529.0" y="634.0"/>
      <point x="618.0" y="693.0" type="curve" smooth="yes"/>
      <point x="724.0" y="758.0"/>
      <point x="796.0" y="846.0"/>
      <point x="796.0" y="992.0" type="curve" smooth="yes"/>
      <point x="796.0" y="1188.0"/>
      <point x="666.0" y="1288.0"/>
      <point x="463.0" y="1288.0" type="curve" smooth="yes"/>
      <point x="359.0" y="1288.0"/>
      <point x="268.0" y="1262.0"/>
      <point x="167.0" y="1221.0" type="curve"/>
      <point x="226.0" y="1047.0" type="line"/>
      <point x="329.0" y="1087.0"/>
      <point x="399.0" y="1101.0"/>
      <point x="458.0" y="1101.0" type="curve" smooth="yes"/>
      <point x="553.0" y="1101.0"/>
      <point x="604.0" y="1063.0"/>
      <point x="604.0" y="980.0" type="curve" smooth="yes"/>
      <point x="604.0" y="867.0"/>
      <point x="509.0" y="831.0"/>
      <point x="372.0" y="810.0" type="curve" smooth="yes"/>
      <point x="339.0" y="805.0"/>
      <point x="361.0" y="808.0"/>
      <point x="303.0" y="802.0" type="curve"/>
    </contour>
    <component base="candraBindu-deva" xOffset="865.0" yOffset="-408.0"/>
  </outline>
</glyph>
<glyph name="udatta-deva" format="2">
  <unicode hex="0951"/>
  <anchor x="270.0" y="1167.0" name="_top"/>
  <outline>
    <contour>
      <point x="196.0" y="1410.0" type="line"/>
      <point x="345.0" y="1410.0" type="line"/>
      <point x="345.0" y="1886.0" type="line"/>
      <point x="196.0" y="1886.0" type="line"/>
    </contour>
  </outline>
</glyph>
<glyph name="grave-deva" format="2">
  <unicode hex="0953"/>
  <outline>
    <contour>
      <point x="-364.0" y="1319.0" type="line"/>
      <point x="-264.0" y="1424.0" type="line"/>
      <point x="-663.0" y="1821.0" type="line"/>
      <point x="-790.0" y="1714.0" type="line"/>
    </contour>
  </outline>
</glyph>
<glyph name="acute-deva" format="2">
  <unicode hex="0954"/>
  <outline>
    <contour>
      <point x="-271.0" y="1319.0" type="line"/>
      <point x="156.0" y="1714.0" type="line"/>
      <point x="28.0" y="1821.0" type="line"/>
      <point x="-371.0" y="1424.0" type="line"/>
    </contour>
  </outline>
</glyph>
<glyph name="rrVocalic-deva" format="2">
  <advance width="1514.0"/>
  <unicode hex="0960"/>
  <anchor x="761.0" y="0.0" name="bottom"/>
  <anchor x="760.0" y="1287.0" name="candra"/>
  <anchor x="761.0" y="1167.0" name="top"/>
  <outline>
    <contour>
      <point x="231.091" y="68.091" type="line"/>
      <point x="727.0" y="469.0" type="line"/>
      <point x="731.0" y="596.0" type="line"/>
      <point x="489.0" y="913.0"/>
      <point x="385.0" y="938.0"/>
      <point x="274.0" y="939.0" type="curve" smooth="yes"/>
      <point x="176.0" y="939.0"/>
      <point x="102.0" y="902.0"/>
      <point x="37.0" y="861.0" type="curve"/>
      <point x="119.0" y="681.0" type="line"/>
      <point x="200.0" y="722.0"/>
      <point x="254.0" y="742.0"/>
      <point x="304.0" y="741.0" type="curve" smooth="yes"/>
      <point x="384.0" y="741.0"/>
      <point x="456.0" y="684.0"/>
      <point x="608.0" y="525.0" type="curve"/>
      <point x="608.0" y="588.0" type="line"/>
      <point x="105.0" y="219.0" type="line"/>
    </contour>
    <contour>
      <point x="1370.0" y="-311.0" type="curve" smooth="yes"/>
      <point x="1475.0" y="-308.0"/>
      <point x="1577.0" y="-274.0"/>
      <point x="1656.0" y="-216.0" type="curve"/>
      <point x="1589.0" y="-76.0" type="line"/>
      <point x="1523.0" y="-117.0"/>
      <point x="1448.0" y="-146.0"/>
      <point x="1384.0" y="-148.0" type="curve" smooth="yes"/>
      <point x="1311.91" y="-150.0"/>
      <point x="1281.0" y="-122.0"/>
      <point x="1281.0" y="-68.0" type="curve" smooth="yes"/>
      <point x="1281.0" y="-9.0"/>
      <point x="1333.0" y="31.0"/>
      <point x="1473.0" y="47.0" type="curve"/>
      <point x="1451.0" y="199.0" type="line"/>
      <point x="1181.0" y="185.0"/>
      <point x="1090.0" y="47.0"/>
      <point x="1090.0" y="-71.0" type="curve" smooth="yes"/>
      <point x="1090.0" y="-212.0"/>
      <point x="1202.0" y="-315.0"/>
    </contour>
    <contour>
      <point x="657.0" y="0.0" type="line"/>
      <point x="867.0" y="0.0" type="line"/>
      <point x="867.0" y="1148.0" type="line"/>
      <point x="657.0" y="1148.0" type="line"/>
    </contour>
    <contour>
      <point x="1298.0" y="76.0" type="curve"/>
      <point x="1397.0" y="153.0" type="line"/>
      <point x="1242.0" y="179.0"/>
      <point x="1209.0" y="239.0"/>
      <point x="1209.0" y="291.0" type="curve" smooth="yes"/>
      <point x="1209.0" y="367.0"/>
      <point x="1305.0" y="388.0"/>
      <point x="1409.0" y="402.091" type="curve"/>
      <point x="1422.0" y="514.0" type="line"/>
      <point x="1216.0" y="851.0" type="line"/>
      <point x="1077.0" y="781.0" type="line"/>
      <point x="1245.09" y="490.909" type="line"/>
      <point x="1251.0" y="538.0" type="line"/>
      <point x="1139.0" y="509.0"/>
      <point x="1009.0" y="446.0"/>
      <point x="1009.0" y="321.909" type="curve" smooth="yes"/>
      <point x="1009.0" y="244.0"/>
      <point x="1030.0" y="126.0"/>
    </contour>
    <contour>
      <point x="806.0" y="523.0" type="line"/>
      <point x="985.0" y="512.0"/>
      <point x="1123.0" y="598.0"/>
      <point x="1216.0" y="665.0" type="curve" smooth="yes"/>
      <point x="1308.0" y="743.0"/>
      <point x="1314.0" y="792.0"/>
      <point x="1314.0" y="826.0" type="curve" smooth="yes"/>
      <point x="1314.0" y="904.0"/>
      <point x="1228.0" y="957.0"/>
      <point x="1100.0" y="984.0" type="curve"/>
      <point x="994.0" y="891.0" type="line"/>
      <point x="1076.0" y="752.0" type="line"/>
      <point x="1087.09" y="812.0" type="line"/>
      <point x="1013.0" y="734.0"/>
      <point x="878.0" y="667.0"/>
      <point x="727.0" y="708.0" type="curve"/>
    </contour>
    <contour>
      <point x="-19.0" y="1104.0" type="line"/>
      <point x="1534.0" y="1104.0" type="line"/>
      <point x="1534.0" y="1287.0" type="line"/>
      <point x="-19.0" y="1287.0" type="line"/>
    </contour>
  </outline>
</glyph>
<glyph name="llVocalic-deva" format="2">
  <advance width="1271.0"/>
  <unicode hex="0961"/>
  <anchor x="705.0" y="31.0" name="bottom"/>
  <anchor x="641.0" y="1287.0" name="candra"/>
  <anchor x="942.0" y="1287.0" name="top"/>
  <outline>
    <contour>
      <point x="1281.0" y="1287.0" type="line"/>
      <point x="-19.0" y="1287.0" type="line"/>
      <point x="-19.0" y="1104.0" type="line"/>
      <point x="1281.0" y="1104.0" type="line"/>
    </contour>
    <contour>
      <point x="1047.0" y="1163.0" type="line"/>
      <point x="837.0" y="1163.0" type="line"/>
      <point x="837.0" y="828.0" type="line"/>
      <point x="1047.0" y="828.0" type="line"/>
    </contour>
    <contour>
      <point x="339.0" y="940.0" type="curve" smooth="yes"/>
      <point x="167.0" y="940.0"/>
      <point x="53.909" y="815.091"/>
      <point x="54.0" y="597.0" type="curve" smooth="yes"/>
      <point x="54.0" y="334.0"/>
      <point x="214.0" y="132.0"/>
      <point x="308.0" y="24.0" type="curve"/>
      <point x="456.0" y="151.0" type="line"/>
      <point x="345.0" y="293.0"/>
      <point x="260.0" y="423.0"/>
      <point x="260.0" y="567.0" type="curve" smooth="yes"/>
      <point x="260.0" y="707.0"/>
      <point x="328.909" y="745.909"/>
      <point x="389.0" y="746.0" type="curve" smooth="yes"/>
      <point x="494.0" y="746.0"/>
      <point x="565.0" y="658.909"/>
      <point x="642.0" y="536.0" type="curve"/>
      <point x="661.0" y="671.0" type="line"/>
      <point x="589.0" y="860.0"/>
      <point x="486.0" y="940.0"/>
    </contour>
    <contour>
      <point x="870.0" y="943.0" type="curve" smooth="yes"/>
      <point x="647.0" y="943.0"/>
      <point x="538.0" y="775.0"/>
      <point x="538.0" y="574.0" type="curve" smooth="yes"/>
      <point x="538.0" y="529.0"/>
      <point x="543.0" y="485.0"/>
      <point x="558.0" y="446.0" type="curve"/>
      <point x="739.0" y="465.0" type="line"/>
      <point x="734.0" y="497.0"/>
      <point x="731.0" y="527.0"/>
      <point x="731.0" y="557.0" type="curve" smooth="yes"/>
      <point x="731.0" y="668.0"/>
      <point x="780.0" y="751.0"/>
      <point x="879.0" y="751.0" type="curve" smooth="yes"/>
      <point x="983.091" y="750.909"/>
      <point x="1020.0" y="667.0"/>
      <point x="1020.0" y="563.0" type="curve" smooth="yes"/>
      <point x="1020.0" y="532.0"/>
      <point x="1018.0" y="507.0"/>
      <point x="1010.0" y="475.0" type="curve"/>
      <point x="1038.0" y="527.0" type="line"/>
      <point x="924.0" y="508.0"/>
      <point x="795.0" y="437.0"/>
      <point x="795.0" y="311.0" type="curve" smooth="yes"/>
      <point x="795.0" y="233.0"/>
      <point x="817.0" y="115.0"/>
      <point x="1085.0" y="65.0" type="curve"/>
      <point x="1184.0" y="142.0" type="line"/>
      <point x="1030.0" y="168.0"/>
      <point x="995.0" y="228.0"/>
      <point x="995.0" y="280.0" type="curve" smooth="yes"/>
      <point x="995.0" y="357.0"/>
      <point x="1085.0" y="375.0"/>
      <point x="1195.0" y="393.0" type="curve"/>
      <point x="1209.0" y="450.0"/>
      <point x="1216.0" y="506.0"/>
      <point x="1216.0" y="560.0" type="curve" smooth="yes"/>
      <point x="1216.0" y="792.0"/>
      <point x="1099.0" y="943.0"/>
    </contour>
    <contour>
      <point x="1237.0" y="188.0" type="line"/>
      <point x="967.0" y="174.0"/>
      <point x="876.0" y="36.0"/>
      <point x="876.0" y="-81.0" type="curve" smooth="yes"/>
      <point x="876.0" y="-222.0"/>
      <point x="988.0" y="-325.0"/>
      <point x="1155.0" y="-321.0" type="curve" smooth="yes"/>
      <point x="1261.0" y="-318.0"/>
      <point x="1363.09" y="-284.091"/>
      <point x="1442.0" y="-226.0" type="curve"/>
      <point x="1375.0" y="-86.0" type="line"/>
      <point x="1309.0" y="-126.909"/>
      <point x="1234.0" y="-156.0"/>
      <point x="1169.0" y="-158.0" type="curve" smooth="yes"/>
      <point x="1096.0" y="-160.0"/>
      <point x="1067.0" y="-132.0"/>
      <point x="1067.0" y="-79.0" type="curve" smooth="yes"/>
      <point x="1067.0" y="-20.0"/>
      <point x="1119.0" y="20.0"/>
      <point x="1259.0" y="36.0" type="curve"/>
    </contour>
  </outline>
</glyph>
<glyph name="dbldanda-deva" format="2">
  <advance width="885.0"/>
  <unicode hex="0965"/>
  <outline>
    <contour>
      <point x="545.0" y="0.0" type="line"/>
      <point x="756.0" y="0.0" type="line"/>
      <point x="756.0" y="1287.0" type="line"/>
      <point x="545.0" y="1287.0" type="line"/>
    </contour>
    <contour>
      <point x="125.0" y="0.0" type="line"/>
      <point x="336.0" y="0.0" type="line"/>
      <point x="336.0" y="1287.0" type="line"/>
      <point x="125.0" y="1287.0" type="line"/>
    </contour>
  </outline>
</glyph>
<glyph name="one-deva" format="2">
  <advance width="786.0"/>
  <unicode hex="0967"/>
  <outline>
    <contour>
      <point x="594.0" y="-194.0" type="line"/>
      <point x="766.0" y="-66.0" type="line"/>
      <point x="236.0" y="540.0" type="line"/>
      <point x="283.0" y="412.0" type="line"/>
      <point x="544.0" y="560.0"/>
      <point x="750.0" y="714.0"/>
      <point x="751.0" y="975.0" type="curve" smooth="yes"/>
      <point x="751.0" y="1190.0"/>
      <point x="612.0" y="1310.0"/>
      <point x="400.0" y="1310.0" type="curve" smooth="yes"/>
      <point x="210.0" y="1310.0"/>
      <point x="72.0" y="1213.0"/>
      <point x="72.0" y="1034.0" type="curve" smooth="yes"/>
      <point x="72.0" y="801.0"/>
      <point x="309.0" y="676.0"/>
      <point x="483.0" y="674.0" type="curve"/>
      <point x="569.0" y="778.0" type="line"/>
      <point x="436.0" y="796.0"/>
      <point x="275.0" y="860.0"/>
      <point x="276.0" y="1002.0" type="curve" smooth="yes"/>
      <point x="276.0" y="1086.0"/>
      <point x="333.0" y="1130.0"/>
      <point x="417.0" y="1130.0" type="curve" smooth="yes"/>
      <point x="513.0" y="1130.0"/>
      <point x="553.0" y="1071.0"/>
      <point x="553.0" y="984.0" type="curve" smooth="yes"/>
      <point x="553.0" y="823.0"/>
      <point x="387.0" y="670.0"/>
      <point x="121.0" y="531.0" type="curve"/>
      <point x="116.0" y="417.0" type="line"/>
    </contour>
  </outline>
</glyph>
<glyph name="two-deva" format="2">
  <advance width="826.0"/>
  <unicode hex="0968"/>
  <outline>
    <contour>
      <point x="296.0" y="461.0" type="line"/>
      <point x="587.0" y="534.0"/>
      <point x="774.0" y="724.0"/>
      <point x="771.0" y="954.0" type="curve" smooth="yes"/>
      <point x="768.0" y="1136.0"/>
      <point x="664.0" y="1311.0"/>
      <point x="369.0" y="1311.0" type="curve" smooth="yes"/>
      <point x="317.0" y="1311.0"/>
      <point x="184.0" y="1304.0"/>
      <point x="76.0" y="1259.0" type="curve"/>
      <point x="121.0" y="1092.0" type="line"/>
      <point x="190.0" y="1112.0"/>
      <point x="296.0" y="1130.0"/>
      <point x="346.0" y="1130.0" type="curve" smooth="yes"/>
      <point x="474.0" y="1130.0"/>
      <point x="565.0" y="1087.0"/>
      <point x="567.0" y="949.0" type="curve" smooth="yes"/>
      <point x="568.0" y="779.0"/>
      <point x="417.0" y="656.0"/>
      <point x="139.0" y="604.0" type="curve"/>
    </contour>
    <contour>
      <point x="642.0" y="-30.0" type="line"/>
      <point x="804.0" y="101.0" type="line"/>
      <point x="333.0" y="593.0" type="line"/>
      <point x="204.0" y="528.0" type="line"/>
    </contour>
    <contour>
      <point x="209.0" y="431.0" type="curve" smooth="yes"/>
      <point x="215.0" y="431.0"/>
      <point x="282.0" y="431.0"/>
      <point x="415.0" y="461.0" type="curve"/>
      <point x="409.0" y="560.0" type="line"/>
      <point x="232.0" y="752.0" type="line"/>
      <point x="115.0" y="752.0" type="line"/>
      <point x="63.0" y="667.0"/>
      <point x="52.0" y="611.0"/>
      <point x="52.0" y="575.0" type="curve" smooth="yes"/>
      <point x="52.0" y="479.0"/>
      <point x="128.0" y="431.0"/>
    </contour>
  </outline>
</glyph>
<glyph name="three-deva" format="2">
  <advance width="904.0"/>
  <unicode hex="0969"/>
  <outline>
    <contour>
      <point x="487.0" y="-162.0" type="line"/>
      <point x="632.0" y="-39.0" type="line"/>
      <point x="423.0" y="170.0" type="line"/>
      <point x="409.0" y="138.0" type="line"/>
      <point x="434.0" y="141.0"/>
      <point x="458.0" y="140.0"/>
      <point x="485.0" y="144.0" type="curve" smooth="yes"/>
      <point x="664.0" y="168.0"/>
      <point x="823.0" y="281.0"/>
      <point x="823.0" y="455.0" type="curve" smooth="yes"/>
      <point x="823.0" y="588.0"/>
      <point x="759.0" y="700.0"/>
      <point x="608.0" y="754.0" type="curve"/>
      <point x="614.0" y="721.0" type="line"/>
      <point x="713.0" y="785.0"/>
      <point x="760.0" y="882.0"/>
      <point x="760.0" y="988.0" type="curve" smooth="yes"/>
      <point x="760.0" y="1208.0"/>
      <point x="595.0" y="1310.0"/>
      <point x="415.0" y="1310.0" type="curve" smooth="yes"/>
      <point x="300.0" y="1310.0"/>
      <point x="182.0" y="1284.0"/>
      <point x="89.0" y="1242.0" type="curve"/>
      <point x="146.0" y="1070.0" type="line"/>
      <point x="214.0" y="1100.0"/>
      <point x="308.0" y="1122.0"/>
      <point x="389.0" y="1122.0" type="curve" smooth="yes"/>
      <point x="477.0" y="1122.0"/>
      <point x="552.0" y="1096.0"/>
      <point x="552.0" y="998.0" type="curve" smooth="yes"/>
      <point x="552.0" y="924.0"/>
      <point x="509.0" y="827.0"/>
      <point x="231.0" y="826.0" type="curve"/>
      <point x="244.0" y="651.0" type="line"/>
      <point x="260.0" y="648.0"/>
      <point x="283.0" y="646.0"/>
      <point x="313.0" y="646.0" type="curve" smooth="yes"/>
      <point x="399.0" y="646.0"/>
      <point x="471.0" y="658.0"/>
      <point x="532.0" y="680.0" type="curve"/>
      <point x="475.0" y="690.0" type="line"/>
      <point x="569.0" y="642.0"/>
      <point x="616.0" y="572.0"/>
      <point x="616.0" y="488.0" type="curve" smooth="yes"/>
      <point x="616.0" y="395.0"/>
      <point x="529.0" y="325.0"/>
      <point x="397.0" y="325.0" type="curve" smooth="yes"/>
      <point x="364.0" y="325.0"/>
      <point x="328.0" y="329.0"/>
      <point x="298.0" y="334.0" type="curve"/>
      <point x="355.0" y="295.0" type="line"/>
      <point x="210.0" y="470.0" type="line"/>
      <point x="85.0" y="470.0" type="line"/>
      <point x="45.0" y="389.0"/>
      <point x="33.0" y="348.0"/>
      <point x="33.0" y="312.0" type="curve" smooth="yes"/>
      <point x="33.0" y="221.0"/>
      <point x="109.0" y="165.0"/>
      <point x="268.0" y="145.0" type="curve"/>
    </contour>
  </outline>
</glyph>
<glyph name="six-deva" format="2">
  <advance width="941.0"/>
  <unicode hex="096C"/>
  <outline>
    <contour>
      <point x="474.0" y="110.0" type="curve" smooth="yes"/>
      <point x="702.0" y="109.0"/>
      <point x="908.0" y="203.0"/>
      <point x="907.0" y="352.0" type="curve" smooth="yes"/>
      <point x="907.0" y="457.0"/>
      <point x="781.0" y="519.0"/>
      <point x="710.0" y="545.0" type="curve"/>
      <point x="561.0" y="460.0" type="line"/>
      <point x="709.0" y="249.0" type="line"/>
      <point x="745.0" y="361.0" type="line"/>
      <point x="669.0" y="311.0"/>
      <point x="585.0" y="290.0"/>
      <point x="493.0" y="290.0" type="curve" smooth="yes"/>
      <point x="347.0" y="290.0"/>
      <point x="298.0" y="358.0"/>
      <point x="298.0" y="459.0" type="curve" smooth="yes"/>
      <point x="298.0" y="597.0"/>
      <point x="411.0" y="641.0"/>
      <point x="546.0" y="641.0" type="curve" smooth="yes"/>
      <point x="582.0" y="641.0"/>
      <point x="617.0" y="640.0"/>
      <point x="646.0" y="637.0" type="curve"/>
      <point x="652.0" y="814.0" type="line"/>
      <point x="616.0" y="820.0"/>
      <point x="571.0" y="824.0"/>
      <point x="524.0" y="824.0" type="curve" smooth="yes"/>
      <point x="324.0" y="825.0"/>
      <point x="91.0" y="748.0"/>
      <point x="91.0" y="463.0" type="curve" smooth="yes"/>
      <point x="91.0" y="238.0"/>
      <point x="237.0" y="110.0"/>
    </contour>
    <contour>
      <point x="937.0" y="-86.0" type="line"/>
      <point x="1098.0" y="58.0" type="line"/>
      <point x="778.0" y="360.0" type="line"/>
      <point x="693.0" y="267.0" type="line"/>
    </contour>
    <contour>
      <point x="395.0" y="708.0" type="curve"/>
      <point x="525.0" y="774.0" type="line"/>
      <point x="513.0" y="778.0" type="line"/>
      <point x="448.0" y="807.0"/>
      <point x="322.0" y="872.0"/>
      <point x="322.0" y="975.0" type="curve" smooth="yes"/>
      <point x="322.0" y="1072.0"/>
      <point x="387.0" y="1119.0"/>
      <point x="501.0" y="1119.0" type="curve" smooth="yes"/>
      <point x="574.0" y="1119.0"/>
      <point x="664.0" y="1107.0"/>
      <point x="723.0" y="1086.0" type="curve"/>
      <point x="761.0" y="1266.0" type="line"/>
      <point x="680.0" y="1291.0"/>
      <point x="581.0" y="1306.0"/>
      <point x="491.0" y="1306.0" type="curve" smooth="yes"/>
      <point x="277.0" y="1306.0"/>
      <point x="103.0" y="1211.0"/>
      <point x="103.0" y="1013.0" type="curve" smooth="yes"/>
      <point x="103.0" y="878.0"/>
      <point x="199.0" y="767.0"/>
    </contour>
  </outline>
</glyph>
<glyph name="eight-deva" format="2">
  <advance width="853.0"/>
  <unicode hex="096E"/>
  <outline>
    <contour>
      <point x="505.0" y="37.0" type="curve" smooth="yes"/>
      <point x="643.0" y="35.0"/>
      <point x="777.0" y="73.0"/>
      <point x="843.0" y="117.0" type="curve"/>
      <point x="785.0" y="285.0" type="line"/>
      <point x="685.0" y="248.0"/>
      <point x="596.0" y="229.0"/>
      <point x="518.0" y="230.0" type="curve" smooth="yes"/>
      <point x="399.0" y="232.0"/>
      <point x="290.0" y="275.0"/>
      <point x="290.0" y="473.0" type="curve" smooth="yes"/>
      <point x="290.0" y="664.0"/>
      <point x="425.0" y="823.0"/>
      <point x="750.0" y="1184.0" type="curve"/>
      <point x="595.0" y="1310.0" type="line"/>
      <point x="278.0" y="990.0"/>
      <point x="78.0" y="721.0"/>
      <point x="78.0" y="466.0" type="curve" smooth="yes"/>
      <point x="78.0" y="284.0"/>
      <point x="167.0" y="42.0"/>
    </contour>
  </outline>
</glyph>
<glyph name="abbreviation-deva" format="2">
  <advance width="966.0"/>
  <unicode hex="0970"/>
  <outline>
    <contour>
      <point x="486.0" y="244.0" type="curve" smooth="yes"/>
      <point x="646.0" y="244.0"/>
      <point x="828.0" y="315.0"/>
      <point x="828.0" y="552.0" type="curve" smooth="yes"/>
      <point x="828.0" y="761.0"/>
      <point x="695.0" y="896.0"/>
      <point x="480.0" y="896.0" type="curve" smooth="yes"/>
      <point x="321.0" y="896.0"/>
      <point x="139.0" y="825.0"/>
      <point x="139.0" y="587.0" type="curve" smooth="yes"/>
      <point x="139.0" y="378.0"/>
      <point x="272.0" y="244.0"/>
    </contour>
    <contour>
      <point x="480.0" y="411.0" type="curve"/>
      <point x="384.0" y="411.0"/>
      <point x="329.0" y="453.0"/>
      <point x="330.0" y="566.0" type="curve" smooth="yes"/>
      <point x="329.0" y="690.0"/>
      <point x="395.0" y="728.0"/>
      <point x="485.0" y="728.0" type="curve" smooth="yes"/>
      <point x="582.0" y="728.0"/>
      <point x="637.0" y="685.0"/>
      <point x="637.0" y="573.0" type="curve" smooth="yes"/>
      <point x="637.0" y="450.0"/>
      <point x="571.0" y="411.0"/>
    </contour>
  </outline>
</glyph>
<glyph name="oe-deva" format="2">
  <advance width="1399.0"/>
  <unicode hex="0973"/>
  <anchor x="1117.0" y="0.0" name="bottom"/>
  <anchor x="942.0" y="1287.0" name="candra"/>
  <anchor x="1154.0" y="1287.0" name="top"/>
  <outline>
    <contour>
      <point x="1014.0" y="1191.0" type="line"/>
      <point x="1224.0" y="1191.0" type="line"/>
      <point x="1224.0" y="1574.0" type="line"/>
      <point x="1014.0" y="1574.0" type="line"/>
    </contour>
    <component base="a-deva"/>
  </outline>
</glyph>
<glyph name="jjya-deva" format="2">
  <advance width="1164.0"/>
  <unicode hex="097A"/>
  <anchor x="887.0" y="0.0" name="bottom"/>
  <anchor x="583.0" y="1287.0" name="candra"/>
  <anchor x="171.0" y="30.0" name="nukta"/>
  <anchor x="886.0" y="1287.0" name="top"/>
  <outline>
    <contour>
      <point x="500.0" y="238.0" type="curve" smooth="yes"/>
      <point x="621.0" y="238.0"/>
      <point x="762.0" y="288.0"/>
      <point x="839.0" y="410.0" type="curve"/>
      <point x="848.0" y="671.0" type="line"/>
      <point x="754.0" y="491.0"/>
      <point x="622.0" y="429.0"/>
      <point x="490.0" y="429.0" type="curve" smooth="yes"/>
      <point x="362.0" y="429.0"/>
      <point x="275.0" y="485.0"/>
      <point x="218.0" y="648.0" type="curve"/>
      <point x="191.0" y="561.0" type="line"/>
      <point x="392.0" y="620.0"/>
      <point x="453.0" y="698.0"/>
      <point x="453.0" y="802.0" type="curve" smooth="yes"/>
      <point x="453.0" y="891.0"/>
      <point x="405.0" y="1008.0"/>
      <point x="307.0" y="1129.0" type="curve"/>
      <point x="151.0" y="1128.0" type="line"/>
      <point x="260.0" y="1027.0"/>
      <point x="290.0" y="958.0"/>
      <point x="281.0" y="894.0" type="curve" smooth="yes"/>
      <point x="265.0" y="796.0"/>
      <point x="191.0" y="745.0"/>
      <point x="34.0" y="682.0" type="curve"/>
      <point x="82.0" y="376.0"/>
      <point x="282.0" y="238.0"/>
    </contour>
    <contour>
      <point x="837.0" y="448.0" type="line"/>
      <point x="957.0" y="558.0" type="line"/>
      <point x="360.0" y="1163.0" type="line"/>
      <point x="259.0" y="1054.0" type="line"/>
    </contour>
    <contour>
      <point x="778.0" y="0.0" type="line"/>
      <point x="988.0" y="0.0" type="line"/>
      <point x="988.0" y="1230.0" type="line"/>
      <point x="778.0" y="1230.0" type="line"/>
    </contour>
    <contour>
      <point x="-19.0" y="1104.0" type="line"/>
      <point x="1183.0" y="1104.0" type="line"/>
      <point x="1183.0" y="1287.0" type="line"/>
      <point x="-19.0" y="1287.0" type="line"/>
    </contour>
  </outline>
</glyph>
<glyph name="gga-deva" format="2">
  <advance width="1146.0"/>
  <unicode hex="097B"/>
  <anchor x="865.0" y="0.0" name="bottom"/>
  <anchor x="763.0" y="1287.0" name="candra"/>
  <anchor x="320.0" y="92.0" name="nukta"/>
  <anchor x="865.0" y="1287.0" name="top"/>
  <outline>
    <contour>
      <point x="66.0" y="-96.0" type="line"/>
      <point x="970.0" y="-96.0" type="line"/>
      <point x="970.0" y="74.0" type="line"/>
      <point x="66.0" y="74.0" type="line"/>
    </contour>
    <component base="ga-deva"/>
  </outline>
</glyph>
<glyph name="jja-deva" format="2">
  <advance width="1422.0"/>
  <unicode hex="097C"/>
  <anchor x="1147.0" y="0.0" name="bottom"/>
  <anchor x="1027.0" y="1287.0" name="candra"/>
  <anchor x="133.0" y="90.0" name="nukta"/>
  <anchor x="1144.0" y="1287.0" name="top"/>
  <outline>
    <contour>
      <point x="147.0" y="-96.0" type="line"/>
      <point x="1247.0" y="-96.0" type="line"/>
      <point x="1247.0" y="74.0" type="line"/>
      <point x="147.0" y="74.0" type="line"/>
    </contour>
    <component base="ja-deva"/>
  </outline>
</glyph>
<glyph name="ddda-deva" format="2">
  <advance width="1056.0"/>
  <unicode hex="097E"/>
  <anchor x="560.0" y="-87.0" name="bottom"/>
  <anchor x="658.0" y="1287.0" name="candra"/>
  <anchor x="568.0" y="-241.0" name="nukta"/>
  <anchor x="759.0" y="1287.0" name="top"/>
  <outline>
    <contour>
      <point x="97.0" y="-339.0" type="line"/>
      <point x="976.0" y="-339.0" type="line"/>
      <point x="976.0" y="-169.0" type="line"/>
      <point x="97.0" y="-169.0" type="line"/>
    </contour>
    <component base="dda-deva"/>
  </outline>
</glyph>
<glyph name="bba-deva" format="2">
  <advance width="1123.0"/>
  <unicode hex="097F"/>
  <anchor x="843.0" y="0.0" name="bottom"/>
  <anchor x="711.0" y="1287.0" name="candra"/>
  <anchor x="117.0" y="41.0" name="nukta"/>
  <anchor x="843.0" y="1287.0" name="top"/>
  <outline>
    <contour>
      <point x="67.0" y="-96.0" type="line"/>
      <point x="948.0" y="-96.0" type="line"/>
      <point x="948.0" y="74.0" type="line"/>
      <point x="67.0" y="74.0" type="line"/>
    </contour>
    <component base="ba-deva"/>
  </outline>
</glyph>
<glyph name="d.sups" format="2">
  <advance width="774.0"/>
  <unicode hex="1D48"/>
  <outline>
    <contour>
      <point x="343.0" y="516.0" type="curve" smooth="yes"/>
      <point x="415.0" y="516.0"/>
      <point x="475.0" y="555.0"/>
      <point x="527.0" y="601.0" type="curve"/>
      <point x="532.0" y="601.0" type="line"/>
      <point x="547.0" y="532.0" type="line"/>
      <point x="677.0" y="532.0" type="line"/>
      <point x="677.0" y="1488.0" type="line"/>
      <point x="517.0" y="1488.0" type="line"/>
      <point x="517.0" y="1253.0" type="line"/>
      <point x="525.0" y="1140.0" type="line"/>
      <point x="475.0" y="1185.0"/>
      <point x="418.0" y="1214.0"/>
      <point x="347.0" y="1214.0" type="curve" smooth="yes"/>
      <point x="204.0" y="1214.0"/>
      <point x="62.0" y="1085.0"/>
      <point x="62.0" y="877.0" type="curve" smooth="yes"/>
      <point x="62.0" y="647.0"/>
      <point x="169.0" y="516.0"/>
    </contour>
    <contour>
      <point x="382.0" y="645.0" type="curve" smooth="yes"/>
      <point x="278.0" y="645.0"/>
      <point x="226.0" y="724.0"/>
      <point x="226.0" y="877.0" type="curve" smooth="yes"/>
      <point x="226.0" y="1006.0"/>
      <point x="297.0" y="1085.0"/>
      <point x="380.0" y="1085.0" type="curve" smooth="yes"/>
      <point x="423.0" y="1085.0"/>
      <point x="469.0" y="1069.0"/>
      <point x="517.0" y="1028.0" type="curve"/>
      <point x="517.0" y="721.0" type="line"/>
      <point x="471.0" y="670.0"/>
      <point x="430.0" y="645.0"/>
    </contour>
  </outline>
</glyph>
<glyph name="k.sups" format="2">
  <advance width="717.0"/>
  <unicode hex="1D4F"/>
  <outline>
    <contour>
      <point x="98.0" y="532.0" type="line"/>
      <point x="258.0" y="532.0" type="line"/>
      <point x="258.0" y="697.0" type="line"/>
      <point x="357.0" y="817.0" type="line"/>
      <point x="533.0" y="532.0" type="line"/>
      <point x="707.0" y="532.0" type="line"/>
      <point x="448.0" y="922.0" type="line"/>
      <point x="683.0" y="1197.0" type="line"/>
      <point x="508.0" y="1197.0" type="line"/>
      <point x="267.0" y="894.0" type="line"/>
      <point x="258.0" y="894.0" type="line"/>
      <point x="258.0" y="1488.0" type="line"/>
      <point x="98.0" y="1488.0" type="line"/>
    </contour>
  </outline>
</glyph>
<glyph name="m.sups" format="2">
  <advance width="1159.0"/>
  <unicode hex="1D50"/>
  <outline>
    <contour>
      <point x="98.0" y="532.0" type="line"/>
      <point x="258.0" y="532.0" type="line"/>
      <point x="258.0" y="996.0" type="line"/>
      <point x="313.0" y="1052.0"/>
      <point x="355.0" y="1079.0"/>
      <point x="397.0" y="1079.0" type="curve" smooth="yes"/>
      <point x="479.0" y="1079.0"/>
      <point x="503.0" y="1023.0"/>
      <point x="503.0" y="927.0" type="curve" smooth="yes"/>
      <point x="503.0" y="532.0" type="line"/>
      <point x="662.0" y="532.0" type="line"/>
      <point x="662.0" y="996.0" type="line"/>
      <point x="718.0" y="1052.0"/>
      <point x="760.0" y="1079.0"/>
      <point x="802.0" y="1079.0" type="curve" smooth="yes"/>
      <point x="885.0" y="1079.0"/>
      <point x="909.0" y="1023.0"/>
      <point x="909.0" y="927.0" type="curve" smooth="yes"/>
      <point x="909.0" y="532.0" type="line"/>
      <point x="1069.0" y="532.0" type="line"/>
      <point x="1069.0" y="947.0" type="line"/>
      <point x="1069.0" y="1107.0"/>
      <point x="1006.0" y="1214.0"/>
      <point x="858.0" y="1214.0" type="curve" smooth="yes"/>
      <point x="768.0" y="1214.0"/>
      <point x="699.0" y="1156.0"/>
      <point x="639.0" y="1094.0" type="curve"/>
      <point x="607.0" y="1173.0"/>
      <point x="543.0" y="1214.0"/>
      <point x="453.0" y="1214.0" type="curve" smooth="yes"/>
      <point x="362.0" y="1214.0"/>
      <point x="302.0" y="1165.0"/>
      <point x="247.0" y="1106.0" type="curve"/>
      <point x="240.0" y="1106.0" type="line"/>
      <point x="228.0" y="1197.0" type="line"/>
      <point x="98.0" y="1197.0" type="line"/>
    </contour>
  </outline>
</glyph>
<glyph name="p.sups" format="2">
  <advance width="774.0"/>
  <unicode hex="1D56"/>
  <outline>
    <contour>
      <point x="98.0" y="255.0" type="line"/>
      <point x="258.0" y="255.0" type="line"/>
      <point x="258.0" y="460.0" type="line"/>
      <point x="249.0" y="590.0" type="line"/>
      <point x="302.0" y="542.0"/>
      <point x="368.0" y="516.0"/>
      <point x="428.0" y="516.0" type="curve" smooth="yes"/>
      <point x="576.0" y="516.0"/>
      <point x="712.0" y="647.0"/>
      <point x="712.0" y="877.0" type="curve" smooth="yes"/>
      <point x="712.0" y="1080.0"/>
      <point x="615.0" y="1214.0"/>
      <point x="446.0" y="1214.0" type="curve" smooth="yes"/>
      <point x="370.0" y="1214.0"/>
      <point x="297.0" y="1171.0"/>
      <point x="246.0" y="1125.0" type="curve"/>
      <point x="240.0" y="1125.0" type="line"/>
      <point x="226.0" y="1197.0" type="line"/>
      <point x="98.0" y="1197.0" type="line"/>
    </contour>
    <contour>
      <point x="396.0" y="645.0" type="curve" smooth="yes"/>
      <point x="355.0" y="645.0"/>
      <point x="305.0" y="660.0"/>
      <point x="258.0" y="700.0" type="curve"/>
      <point x="258.0" y="1008.0" type="line"/>
      <point x="308.0" y="1057.0"/>
      <point x="356.0" y="1083.0"/>
      <point x="404.0" y="1083.0" type="curve" smooth="yes"/>
      <point x="503.0" y="1083.0"/>
      <point x="548.0" y="1008.0"/>
      <point x="548.0" y="875.0" type="curve" smooth="yes"/>
      <point x="548.0" y="724.0"/>
      <point x="482.0" y="645.0"/>
    </contour>
  </outline>
</glyph>
<glyph name="v.sups" format="2">
  <advance width="684.0"/>
  <unicode hex="1D5B"/>
  <outline>
    <contour>
      <point x="249.0" y="532.0" type="line"/>
      <point x="435.0" y="532.0" type="line"/>
      <point x="668.0" y="1197.0" type="line"/>
      <point x="513.0" y="1197.0" type="line"/>
      <point x="407.0" y="856.0" type="line"/>
      <point x="348.0" y="654.0" type="line"/>
      <point x="342.0" y="654.0" type="line"/>
      <point x="280.0" y="856.0" type="line"/>
      <point x="175.0" y="1197.0" type="line"/>
      <point x="16.0" y="1197.0" type="line"/>
    </contour>
  </outline>
</glyph>
<glyph name="quoteleft" format="2">
  <advance width="550.0"/>
  <unicode hex="2018"/>
  <outline>
    <contour>
      <point x="269.0" y="761.0" type="curve" smooth="yes"/>
      <point x="342.0" y="761.0"/>
      <point x="396.0" y="813.0"/>
      <point x="396.0" y="894.0" type="curve" smooth="yes"/>
      <point x="396.0" y="972.0"/>
      <point x="337.0" y="1017.0"/>
      <point x="270.0" y="1017.0" type="curve" smooth="yes"/>
      <point x="264.0" y="1017.0"/>
      <point x="257.0" y="1017.0"/>
      <point x="251.0" y="1015.0" type="curve"/>
      <point x="251.0" y="1133.0"/>
      <point x="308.0" y="1254.0"/>
      <point x="420.0" y="1320.0" type="curve"/>
      <point x="357.0" y="1415.0" type="line"/>
      <point x="197.0" y="1322.0"/>
      <point x="99.0" y="1174.0"/>
      <point x="99.0" y="978.0" type="curve" smooth="yes"/>
      <point x="99.0" y="840.0"/>
      <point x="169.0" y="761.0"/>
    </contour>
  </outline>
</glyph>
<glyph name="daggerdbl" format="2">
  <advance width="974.0"/>
  <unicode hex="2021"/>
  <outline>
    <contour>
      <point x="396.0" y="-164.0" type="line"/>
      <point x="577.0" y="-164.0" type="line"/>
      <point x="564.0" y="174.0" type="line"/>
      <point x="871.0" y="161.0" type="line"/>
      <point x="871.0" y="343.0" type="line"/>
      <point x="564.0" y="325.0" type="line"/>
      <point x="577.0" y="647.0" type="line"/>
      <point x="564.0" y="970.0" type="line"/>
      <point x="871.0" y="951.0" type="line"/>
      <point x="871.0" y="1134.0" type="line"/>
      <point x="564.0" y="1120.0" type="line"/>
      <point x="577.0" y="1458.0" type="line"/>
      <point x="396.0" y="1458.0" type="line"/>
      <point x="409.0" y="1120.0" type="line"/>
      <point x="103.0" y="1134.0" type="line"/>
      <point x="103.0" y="951.0" type="line"/>
      <point x="409.0" y="970.0" type="line"/>
      <point x="396.0" y="647.0" type="line"/>
      <point x="409.0" y="325.0" type="line"/>
      <point x="103.0" y="343.0" type="line"/>
      <point x="103.0" y="161.0" type="line"/>
      <point x="409.0" y="174.0" type="line"/>
    </contour>
  </outline>
</glyph>
<glyph name="bullet" format="2">
  <advance width="655.0"/>
  <unicode hex="2022"/>
  <outline>
    <contour>
      <point x="327.0" y="277.0" type="curve" smooth="yes"/>
      <point x="461.0" y="277.0"/>
      <point x="573.0" y="385.0"/>
      <point x="573.0" y="538.0" type="curve" smooth="yes"/>
      <point x="573.0" y="691.0"/>
      <point x="461.0" y="799.0"/>
      <point x="327.0" y="799.0" type="curve" smooth="yes"/>
      <point x="193.0" y="799.0"/>
      <point x="82.0" y="691.0"/>
      <point x="82.0" y="538.0" type="curve" smooth="yes"/>
      <point x="82.0" y="385.0"/>
      <point x="193.0" y="277.0"/>
    </contour>
  </outline>
</glyph>
<glyph name="perthousand" format="2">
  <advance width="2488.0"/>
  <unicode hex="2030"/>
  <outline>
    <contour>
      <point x="418.0" y="-25.0" type="line"/>
      <point x="555.0" y="-25.0" type="line"/>
      <point x="1289.0" y="1365.0" type="line"/>
      <point x="1151.0" y="1365.0" type="line"/>
    </contour>
    <contour>
      <point x="380.0" y="517.0" type="curve" smooth="yes"/>
      <point x="566.0" y="517.0"/>
      <point x="696.0" y="674.0"/>
      <point x="696.0" y="943.0" type="curve" smooth="yes"/>
      <point x="696.0" y="1212.0"/>
      <point x="566.0" y="1365.0"/>
      <point x="380.0" y="1365.0" type="curve" smooth="yes"/>
      <point x="193.0" y="1365.0"/>
      <point x="65.0" y="1212.0"/>
      <point x="65.0" y="943.0" type="curve" smooth="yes"/>
      <point x="65.0" y="674.0"/>
      <point x="193.0" y="517.0"/>
    </contour>
    <contour>
      <point x="380.0" y="646.0" type="curve" smooth="yes"/>
      <point x="288.0" y="646.0"/>
      <point x="223.0" y="739.0"/>
      <point x="223.0" y="943.0" type="curve" smooth="yes"/>
      <point x="223.0" y="1148.0"/>
      <point x="288.0" y="1237.0"/>
      <point x="380.0" y="1237.0" type="curve" smooth="yes"/>
      <point x="470.0" y="1237.0"/>
      <point x="536.0" y="1148.0"/>
      <point x="536.0" y="943.0" type="curve" smooth="yes"/>
      <point x="536.0" y="739.0"/>
      <point x="470.0" y="646.0"/>
    </contour>
    <contour>
      <point x="1330.0" y="-25.0" type="curve" smooth="yes"/>
      <point x="1518.0" y="-25.0"/>
      <point x="1646.0" y="131.0"/>
      <point x="1646.0" y="401.0" type="curve" smooth="yes"/>
      <point x="1646.0" y="669.0"/>
      <point x="1518.0" y="823.0"/>
      <point x="1330.0" y="823.0" type="curve" smooth="yes"/>
      <point x="1144.0" y="823.0"/>
      <point x="1014.0" y="669.0"/>
      <point x="1014.0" y="401.0" type="curve" smooth="yes"/>
      <point x="1014.0" y="131.0"/>
      <point x="1144.0" y="-25.0"/>
    </contour>
    <contour>
      <point x="1330.0" y="104.0" type="curve" smooth="yes"/>
      <point x="1239.0" y="104.0"/>
      <point x="1174.0" y="197.0"/>
      <point x="1174.0" y="401.0" type="curve" smooth="yes"/>
      <point x="1174.0" y="606.0"/>
      <point x="1239.0" y="695.0"/>
      <point x="1330.0" y="695.0" type="curve" smooth="yes"/>
      <point x="1422.0" y="695.0"/>
      <point x="1488.0" y="606.0"/>
      <point x="1488.0" y="401.0" type="curve" smooth="yes"/>
      <point x="1488.0" y="197.0"/>
      <point x="1422.0" y="104.0"/>
    </contour>
    <contour>
      <point x="2108.0" y="-25.0" type="curve" smooth="yes"/>
      <point x="2296.0" y="-25.0"/>
      <point x="2425.0" y="131.0"/>
      <point x="2425.0" y="401.0" type="curve" smooth="yes"/>
      <point x="2425.0" y="669.0"/>
      <point x="2296.0" y="823.0"/>
      <point x="2108.0" y="823.0" type="curve" smooth="yes"/>
      <point x="1921.0" y="823.0"/>
      <point x="1792.0" y="669.0"/>
      <point x="1792.0" y="401.0" type="curve" smooth="yes"/>
      <point x="1792.0" y="131.0"/>
      <point x="1921.0" y="-25.0"/>
    </contour>
    <contour>
      <point x="2108.0" y="104.0" type="curve" smooth="yes"/>
      <point x="2018.0" y="104.0"/>
      <point x="1952.0" y="197.0"/>
      <point x="1952.0" y="401.0" type="curve" smooth="yes"/>
      <point x="1952.0" y="606.0"/>
      <point x="2018.0" y="695.0"/>
      <point x="2108.0" y="695.0" type="curve" smooth="yes"/>
      <point x="2200.0" y="695.0"/>
      <point x="2266.0" y="606.0"/>
      <point x="2266.0" y="401.0" type="curve" smooth="yes"/>
      <point x="2266.0" y="197.0"/>
      <point x="2200.0" y="104.0"/>
    </contour>
  </outline>
</glyph>
